M48
; DRILL file {KiCad 7.0.8} date Sat Feb  3 13:12:59 2024
; FORMAT={-:-/ absolute / inch / decimal}
; #@! TF.CreationDate,2024-02-03T13:12:59+03:00
; #@! TF.GenerationSoftware,Kicad,Pcbnew,7.0.8
; #@! TF.FileFunction,Plated,1,2,PTH
FMAT,2
INCH
; #@! TA.AperFunction,Plated,PTH,ViaDrill
T1C0.0157
; #@! TA.AperFunction,Plated,PTH,ComponentDrill
T2C0.0394
%
G90
G05
T1
X7.373Y-2.985
X7.373Y-2.829
X7.5835Y-3.4983
X7.5925Y-3.0728
X7.7205Y-3.7736
X7.7595Y-3.4993
X7.878Y-4.2343
X7.9409Y-4.25
X8.0591Y-4.1909
X8.082Y-4.073
X8.142Y-3.142
X8.142Y-3.3
X8.143Y-3.222
X8.143Y-3.378
X8.155Y-2.83
X8.155Y-2.91
X8.164Y-3.483
X8.219Y-3.02
T2
X7.4882Y-3.5874
X7.4882Y-3.6874
X7.4882Y-3.7874
X7.4882Y-3.8874
X7.4882Y-3.9874
X7.4882Y-4.0874
X7.4882Y-4.1874
X7.4882Y-4.2874
X7.6654Y-3.9433
X7.6654Y-4.0433
X7.904Y-3.5868
X7.904Y-3.6868
X7.952Y-4.477
X8.016Y-3.587
X8.016Y-3.687
X8.052Y-4.477
X8.152Y-4.477
X8.175Y-3.587
X8.175Y-3.687
X8.175Y-3.787
X8.175Y-3.887
X8.175Y-3.987
X8.175Y-4.087
X8.175Y-4.187
X8.175Y-4.287
X8.252Y-4.477
T0
M30
