M48
; DRILL file {KiCad 7.0.8} date Sat Feb  3 12:13:44 2024
; FORMAT={-:-/ absolute / inch / decimal}
; #@! TF.CreationDate,2024-02-03T12:13:44+03:00
; #@! TF.GenerationSoftware,Kicad,Pcbnew,7.0.8
; #@! TF.FileFunction,Plated,1,2,PTH
FMAT,2
INCH
; #@! TA.AperFunction,Plated,PTH,ViaDrill
T1C0.0157
; #@! TA.AperFunction,Plated,PTH,ComponentDrill
T2C0.0394
; #@! TA.AperFunction,Plated,PTH,ComponentDrill
T3C0.0423
; #@! TA.AperFunction,Plated,PTH,ComponentDrill
T4C0.0520
%
G90
G05
T1
X8.8563Y-2.2087
X8.9035Y-3.4272
X8.9469Y-2.4409
X8.9961Y-3.376
X9.0098Y-2.7047
X9.0512Y-2.8169
X9.1102Y-2.7047
X9.1642Y-2.7567
X9.3041Y-2.4754
X9.314Y-3.35
X9.3169Y-2.2087
T2
X8.8858Y-2.5659
X8.8858Y-2.6659
X8.8858Y-2.7659
X8.9744Y-3.5807
X8.9744Y-3.6807
X8.9744Y-3.7807
X8.9744Y-3.8807
X8.9744Y-3.9807
X8.9744Y-4.0807
X8.9744Y-4.1807
X8.9744Y-4.2807
X9.2894Y-2.5648
X9.2894Y-2.6648
X9.2894Y-2.7648
T3
X9.3093Y-2.9377
X9.3093Y-3.0377
X9.3093Y-3.1377
X9.3093Y-3.2377
T4
X8.8898Y-2.0728
X8.8898Y-5.1437
X9.0866Y-2.0728
X9.0866Y-5.1437
X9.2835Y-2.0728
X9.2835Y-5.1437
T0
M30
