%TF.GenerationSoftware,KiCad,Pcbnew,7.0.8*%
%TF.CreationDate,2024-02-03T12:05:27+03:00*%
%TF.ProjectId,RS485,52533438-352e-46b6-9963-61645f706362,rev?*%
%TF.SameCoordinates,Original*%
%TF.FileFunction,Copper,L2,Bot*%
%TF.FilePolarity,Positive*%
%FSLAX46Y46*%
G04 Gerber Fmt 4.6, Leading zero omitted, Abs format (unit mm)*
G04 Created by KiCad (PCBNEW 7.0.8) date 2024-02-03 12:05:27*
%MOMM*%
%LPD*%
G01*
G04 APERTURE LIST*
G04 Aperture macros list*
%AMRoundRect*
0 Rectangle with rounded corners*
0 $1 Rounding radius*
0 $2 $3 $4 $5 $6 $7 $8 $9 X,Y pos of 4 corners*
0 Add a 4 corners polygon primitive as box body*
4,1,4,$2,$3,$4,$5,$6,$7,$8,$9,$2,$3,0*
0 Add four circle primitives for the rounded corners*
1,1,$1+$1,$2,$3*
1,1,$1+$1,$4,$5*
1,1,$1+$1,$6,$7*
1,1,$1+$1,$8,$9*
0 Add four rect primitives between the rounded corners*
20,1,$1+$1,$2,$3,$4,$5,0*
20,1,$1+$1,$4,$5,$6,$7,0*
20,1,$1+$1,$6,$7,$8,$9,0*
20,1,$1+$1,$8,$9,$2,$3,0*%
G04 Aperture macros list end*
%TA.AperFunction,ComponentPad*%
%ADD10R,1.700000X1.700000*%
%TD*%
%TA.AperFunction,ComponentPad*%
%ADD11O,1.700000X1.700000*%
%TD*%
%TA.AperFunction,ComponentPad*%
%ADD12R,2.250000X1.750000*%
%TD*%
%TA.AperFunction,ComponentPad*%
%ADD13O,2.250000X1.750000*%
%TD*%
%TA.AperFunction,ComponentPad*%
%ADD14R,1.980000X3.960000*%
%TD*%
%TA.AperFunction,ComponentPad*%
%ADD15O,1.980000X3.960000*%
%TD*%
%TA.AperFunction,SMDPad,CuDef*%
%ADD16RoundRect,0.150000X-0.512500X-0.150000X0.512500X-0.150000X0.512500X0.150000X-0.512500X0.150000X0*%
%TD*%
%TA.AperFunction,SMDPad,CuDef*%
%ADD17RoundRect,0.250000X-0.650000X1.000000X-0.650000X-1.000000X0.650000X-1.000000X0.650000X1.000000X0*%
%TD*%
%TA.AperFunction,SMDPad,CuDef*%
%ADD18RoundRect,0.250000X-0.262500X-0.450000X0.262500X-0.450000X0.262500X0.450000X-0.262500X0.450000X0*%
%TD*%
%TA.AperFunction,SMDPad,CuDef*%
%ADD19RoundRect,0.200000X0.200000X0.275000X-0.200000X0.275000X-0.200000X-0.275000X0.200000X-0.275000X0*%
%TD*%
%TA.AperFunction,SMDPad,CuDef*%
%ADD20RoundRect,0.150000X0.150000X-0.587500X0.150000X0.587500X-0.150000X0.587500X-0.150000X-0.587500X0*%
%TD*%
%TA.AperFunction,SMDPad,CuDef*%
%ADD21RoundRect,0.125000X0.125000X-0.825000X0.125000X0.825000X-0.125000X0.825000X-0.125000X-0.825000X0*%
%TD*%
%TA.AperFunction,SMDPad,CuDef*%
%ADD22RoundRect,0.250001X-0.924999X0.499999X-0.924999X-0.499999X0.924999X-0.499999X0.924999X0.499999X0*%
%TD*%
%TA.AperFunction,SMDPad,CuDef*%
%ADD23RoundRect,0.250000X0.450000X-0.262500X0.450000X0.262500X-0.450000X0.262500X-0.450000X-0.262500X0*%
%TD*%
%TA.AperFunction,SMDPad,CuDef*%
%ADD24RoundRect,0.200000X-0.200000X-0.275000X0.200000X-0.275000X0.200000X0.275000X-0.200000X0.275000X0*%
%TD*%
%TA.AperFunction,SMDPad,CuDef*%
%ADD25RoundRect,0.250001X-0.499999X-0.924999X0.499999X-0.924999X0.499999X0.924999X-0.499999X0.924999X0*%
%TD*%
%TA.AperFunction,SMDPad,CuDef*%
%ADD26RoundRect,0.250000X-0.250000X-0.475000X0.250000X-0.475000X0.250000X0.475000X-0.250000X0.475000X0*%
%TD*%
%TA.AperFunction,SMDPad,CuDef*%
%ADD27RoundRect,0.200000X-0.275000X0.200000X-0.275000X-0.200000X0.275000X-0.200000X0.275000X0.200000X0*%
%TD*%
%TA.AperFunction,SMDPad,CuDef*%
%ADD28RoundRect,0.225000X0.225000X0.250000X-0.225000X0.250000X-0.225000X-0.250000X0.225000X-0.250000X0*%
%TD*%
%TA.AperFunction,SMDPad,CuDef*%
%ADD29R,1.500000X2.000000*%
%TD*%
%TA.AperFunction,SMDPad,CuDef*%
%ADD30R,3.800000X2.000000*%
%TD*%
%TA.AperFunction,SMDPad,CuDef*%
%ADD31RoundRect,0.250000X0.262500X0.450000X-0.262500X0.450000X-0.262500X-0.450000X0.262500X-0.450000X0*%
%TD*%
%TA.AperFunction,SMDPad,CuDef*%
%ADD32RoundRect,0.225000X-0.225000X-0.250000X0.225000X-0.250000X0.225000X0.250000X-0.225000X0.250000X0*%
%TD*%
%TA.AperFunction,SMDPad,CuDef*%
%ADD33RoundRect,0.150000X0.150000X-0.875000X0.150000X0.875000X-0.150000X0.875000X-0.150000X-0.875000X0*%
%TD*%
%TA.AperFunction,ViaPad*%
%ADD34C,1.000000*%
%TD*%
%TA.AperFunction,Conductor*%
%ADD35C,0.300000*%
%TD*%
%TA.AperFunction,Conductor*%
%ADD36C,0.250000*%
%TD*%
G04 APERTURE END LIST*
D10*
%TO.P,ESP_RX,1*%
%TO.N,ESP_UART_Rx*%
X200761600Y-91104800D03*
D11*
%TO.P,ESP_RX,2*%
%TO.N,PA9*%
X200761600Y-93644800D03*
%TD*%
D10*
%TO.P,J2,1,Pin_1*%
%TO.N,VDDB*%
X235950000Y-70225000D03*
D11*
%TO.P,J2,2,Pin_2*%
%TO.N,Net-(J2-Pin_2)*%
X235950000Y-67685000D03*
%TO.P,J2,3,Pin_3*%
%TO.N,unconnected-(J2-Pin_3-Pad3)*%
X235950000Y-65145000D03*
%TD*%
D12*
%TO.P,PS1,1,-Vin*%
%TO.N,GND*%
X236455000Y-82237500D03*
D13*
%TO.P,PS1,2,+Vin*%
%TO.N,Net-(PS1-+Vin)*%
X236455000Y-79697500D03*
%TO.P,PS1,3,-Vout*%
%TO.N,GND1*%
X236455000Y-77157500D03*
%TO.P,PS1,4,+Vout*%
%TO.N,VDDB*%
X236455000Y-74617500D03*
%TD*%
D14*
%TO.P,REF\u002A\u002A,1*%
%TO.N,GND1*%
X235800000Y-52650000D03*
D15*
%TO.P,REF\u002A\u002A,2*%
%TO.N,A*%
X230800000Y-52650000D03*
%TO.P,REF\u002A\u002A,3*%
%TO.N,B*%
X225800000Y-52650000D03*
%TD*%
D10*
%TO.P,Flash,1*%
%TO.N,Net-(U3-GPIO0)*%
X194700000Y-100160000D03*
D11*
%TO.P,Flash,2*%
%TO.N,GND*%
X194700000Y-102700000D03*
%TD*%
D10*
%TO.P,Debug port,1,Pin_1*%
%TO.N,+3V3*%
X201980800Y-113715800D03*
D11*
%TO.P,Debug port,2,Pin_2*%
%TO.N,GND*%
X204520800Y-113715800D03*
%TO.P,Debug port,3,Pin_3*%
%TO.N,SWDIO*%
X207060800Y-113715800D03*
%TO.P,Debug port,4,Pin_4*%
%TO.N,SCLK*%
X209600800Y-113715800D03*
%TD*%
D10*
%TO.P,Main board,1*%
%TO.N,RO{slash}DI*%
X207645000Y-91109800D03*
D11*
%TO.P,Main board,2*%
%TO.N,Tx*%
X207645000Y-93649800D03*
%TO.P,Main board,3*%
%TO.N,Rx*%
X207645000Y-96189800D03*
%TO.P,Main board,4*%
%TO.N,GND*%
X207645000Y-98729800D03*
%TO.P,Main board,5*%
X207645000Y-101269800D03*
%TO.P,Main board,6*%
%TO.N,+3V3*%
X207645000Y-103809800D03*
%TO.P,Main board,7*%
%TO.N,GND*%
X207645000Y-106349800D03*
%TO.P,Main board,8*%
%TO.N,+5V*%
X207645000Y-108889800D03*
%TD*%
D10*
%TO.P,LEDS,1*%
%TO.N,GND*%
X190200000Y-108900000D03*
D11*
%TO.P,LEDS,2*%
%TO.N,+3V3*%
X190200000Y-106360000D03*
%TO.P,LEDS,3*%
%TO.N,Net-(CH32V203F8P1-NRST)*%
X190200000Y-103820000D03*
%TO.P,LEDS,4*%
%TO.N,Net-(CH32V203F8P1-PB15)*%
X190200000Y-101280000D03*
%TO.P,LEDS,5*%
%TO.N,Tx*%
X190200000Y-98740000D03*
%TO.P,LEDS,6*%
%TO.N,Rx*%
X190200000Y-96200000D03*
%TO.P,LEDS,7*%
%TO.N,PA10*%
X190200000Y-93660000D03*
%TO.P,LEDS,8*%
%TO.N,PA9*%
X190200000Y-91120000D03*
%TD*%
D10*
%TO.P,ESP_TX,1*%
%TO.N,ESP_UART_Tx*%
X203606400Y-91109800D03*
D11*
%TO.P,ESP_TX,2*%
%TO.N,PA10*%
X203606400Y-93649800D03*
%TD*%
D14*
%TO.P,REF\u002A\u002A,1*%
%TO.N,+5VD*%
X225800000Y-130650000D03*
D15*
%TO.P,REF\u002A\u002A,2*%
%TO.N,GND*%
X230800000Y-130650000D03*
%TO.P,REF\u002A\u002A,3*%
X235800000Y-130650000D03*
%TD*%
D10*
%TO.P,Main board,1*%
%TO.N,RO{slash}DI*%
X227950000Y-90950000D03*
D11*
%TO.P,Main board,2*%
%TO.N,Tx*%
X227950000Y-93490000D03*
%TO.P,Main board,3*%
%TO.N,Rx*%
X227950000Y-96030000D03*
%TO.P,Main board,4*%
%TO.N,GND*%
X227950000Y-98570000D03*
%TO.P,Main board,5*%
X227950000Y-101110000D03*
%TO.P,Main board,6*%
%TO.N,+3V3*%
X227950000Y-103650000D03*
%TO.P,Main board,7*%
%TO.N,GND*%
X227950000Y-106190000D03*
%TO.P,Main board,8*%
%TO.N,+5V*%
X227950000Y-108730000D03*
%TD*%
D10*
%TO.P,J1,1,Pin_1*%
%TO.N,unconnected-(J1-Pin_1-Pad1)*%
X225700000Y-65175000D03*
D11*
%TO.P,J1,2,Pin_2*%
%TO.N,Net-(J1-Pin_2)*%
X225700000Y-67715000D03*
%TO.P,J1,3,Pin_3*%
%TO.N,GND1*%
X225700000Y-70255000D03*
%TD*%
D16*
%TO.P,D1,1,A1*%
%TO.N,A*%
X229625000Y-58150000D03*
%TO.P,D1,2,A2*%
%TO.N,B*%
X229625000Y-56250000D03*
%TO.P,D1,3,common*%
%TO.N,GND1*%
X231900000Y-57200000D03*
%TD*%
D17*
%TO.P,D4,1,K*%
%TO.N,+5V*%
X225750000Y-122250000D03*
%TO.P,D4,2,A*%
%TO.N,+5VD*%
X225750000Y-126250000D03*
%TD*%
D18*
%TO.P,R2,1*%
%TO.N,Net-(J1-Pin_2)*%
X224975000Y-60100000D03*
%TO.P,R2,2*%
%TO.N,B*%
X226800000Y-60100000D03*
%TD*%
%TO.P,R11,1*%
%TO.N,A*%
X234875000Y-60100000D03*
%TO.P,R11,2*%
%TO.N,Net-(J2-Pin_2)*%
X236700000Y-60100000D03*
%TD*%
D19*
%TO.P,R18,1*%
%TO.N,Net-(U3-GPIO15)*%
X205257400Y-83820000D03*
%TO.P,R18,2*%
%TO.N,GND*%
X203607400Y-83820000D03*
%TD*%
D20*
%TO.P,Q1,1,G*%
%TO.N,PA8*%
X194320200Y-74064100D03*
%TO.P,Q1,2,S*%
%TO.N,GND*%
X192420200Y-74064100D03*
%TO.P,Q1,3,D*%
%TO.N,Net-(Q1-D)*%
X193370200Y-72189100D03*
%TD*%
D21*
%TO.P,CH32V203F8P6,1,PB6*%
%TO.N,SWDIO*%
X203631800Y-104241600D03*
%TO.P,CH32V203F8P6,2,PB7*%
%TO.N,SCLK*%
X202981800Y-104241600D03*
%TO.P,CH32V203F8P6,3,VSS*%
%TO.N,GND*%
X202331800Y-104241600D03*
%TO.P,CH32V203F8P6,4,VDD*%
%TO.N,+3V3*%
X201681800Y-104241600D03*
%TO.P,CH32V203F8P6,5,NRST*%
%TO.N,Net-(CH32V203F8P1-NRST)*%
X201031800Y-104241600D03*
%TO.P,CH32V203F8P6,6,PA0*%
%TO.N,unconnected-(CH32V203F8P1-PA0-Pad6)*%
X200381800Y-104241600D03*
%TO.P,CH32V203F8P6,7,PA1*%
%TO.N,RO{slash}DI*%
X199731800Y-104241600D03*
%TO.P,CH32V203F8P6,8,PA2*%
%TO.N,Tx*%
X199081800Y-104241600D03*
%TO.P,CH32V203F8P6,9,PA3*%
%TO.N,Rx*%
X198431800Y-104241600D03*
%TO.P,CH32V203F8P6,10,PA6*%
%TO.N,unconnected-(CH32V203F8P1-PA6-Pad10)*%
X197781800Y-104241600D03*
%TO.P,CH32V203F8P6,11,PA4*%
%TO.N,unconnected-(CH32V203F8P1-PA4-Pad11)*%
X197781800Y-97241600D03*
%TO.P,CH32V203F8P6,12,PA5*%
%TO.N,unconnected-(CH32V203F8P1-PA5-Pad12)*%
X198431800Y-97241600D03*
%TO.P,CH32V203F8P6,13,PA7*%
%TO.N,unconnected-(CH32V203F8P1-PA7-Pad13)*%
X199081800Y-97241600D03*
%TO.P,CH32V203F8P6,14,PB0*%
%TO.N,unconnected-(CH32V203F8P1-PB0-Pad14)*%
X199731800Y-97241600D03*
%TO.P,CH32V203F8P6,15,PB13*%
%TO.N,unconnected-(CH32V203F8P1-PB13-Pad15)*%
X200381800Y-97241600D03*
%TO.P,CH32V203F8P6,16,PB14*%
%TO.N,unconnected-(CH32V203F8P1-PB14-Pad16)*%
X201031800Y-97241600D03*
%TO.P,CH32V203F8P6,17,PB15*%
%TO.N,Net-(CH32V203F8P1-PB15)*%
X201681800Y-97241600D03*
%TO.P,CH32V203F8P6,18,PA8*%
%TO.N,PA8*%
X202331800Y-97241600D03*
%TO.P,CH32V203F8P6,19,PA9*%
%TO.N,PA9*%
X202981800Y-97241600D03*
%TO.P,CH32V203F8P6,20,PA10*%
%TO.N,PA10*%
X203631800Y-97241600D03*
%TD*%
D19*
%TO.P,R17,1*%
%TO.N,+3.3V*%
X190550800Y-75895200D03*
%TO.P,R17,2*%
%TO.N,Net-(U3-EN)*%
X188900800Y-75895200D03*
%TD*%
D22*
%TO.P,C11,1*%
%TO.N,+3V3*%
X233700000Y-115300000D03*
%TO.P,C11,2*%
%TO.N,GND*%
X233700000Y-118550000D03*
%TD*%
D23*
%TO.P,R5,1*%
%TO.N,RO{slash}DI*%
X231500000Y-91125000D03*
%TO.P,R5,2*%
%TO.N,Net-(CA-IS3741LW1-VI1)*%
X231500000Y-89300000D03*
%TD*%
D10*
%TO.P,LEDS,1*%
%TO.N,GND*%
X165350000Y-108650000D03*
D11*
%TO.P,LEDS,2*%
%TO.N,+3V3*%
X165350000Y-106110000D03*
%TO.P,LEDS,3*%
%TO.N,Net-(CH32V203F8P1-NRST)*%
X165350000Y-103570000D03*
%TO.P,LEDS,4*%
%TO.N,Net-(CH32V203F8P1-PB15)*%
X165350000Y-101030000D03*
%TO.P,LEDS,5*%
%TO.N,Tx*%
X165350000Y-98490000D03*
%TO.P,LEDS,6*%
%TO.N,Rx*%
X165350000Y-95950000D03*
%TO.P,LEDS,7*%
%TO.N,PA10*%
X165350000Y-93410000D03*
%TO.P,LEDS,8*%
%TO.N,PA9*%
X165350000Y-90870000D03*
%TD*%
D24*
%TO.P,R19,1*%
%TO.N,+3.3V*%
X203582000Y-79908400D03*
%TO.P,R19,2*%
%TO.N,Net-(U3-GPIO0)*%
X205232000Y-79908400D03*
%TD*%
D19*
%TO.P,R21,1*%
%TO.N,PA8*%
X194411600Y-75971400D03*
%TO.P,R21,2*%
%TO.N,GND*%
X192761600Y-75971400D03*
%TD*%
D25*
%TO.P,C10,1*%
%TO.N,+5V*%
X229200000Y-122250000D03*
%TO.P,C10,2*%
%TO.N,GND*%
X232450000Y-122250000D03*
%TD*%
D24*
%TO.P,R20,1*%
%TO.N,+3.3V*%
X203607400Y-81864200D03*
%TO.P,R20,2*%
%TO.N,Net-(U3-GPIO2)*%
X205257400Y-81864200D03*
%TD*%
D26*
%TO.P,C7,1*%
%TO.N,Net-(CA-IS3741LW1-VI1)*%
X231150000Y-85850000D03*
%TO.P,C7,2*%
%TO.N,GND*%
X233050000Y-85850000D03*
%TD*%
D27*
%TO.P,R3,1*%
%TO.N,VDDB*%
X228900000Y-65700000D03*
%TO.P,R3,2*%
%TO.N,Net-(CA-IS3741LW1-VI4)*%
X228900000Y-67350000D03*
%TD*%
D28*
%TO.P,C8,1*%
%TO.N,VDDB*%
X233950000Y-71400000D03*
%TO.P,C8,2*%
%TO.N,GND1*%
X232400000Y-71400000D03*
%TD*%
D29*
%TO.P,U2,1,GND*%
%TO.N,GND*%
X230350000Y-118300000D03*
%TO.P,U2,2,VO*%
%TO.N,+3V3*%
X228050000Y-118300000D03*
D30*
X228050000Y-112000000D03*
D29*
%TO.P,U2,3,VI*%
%TO.N,+5V*%
X225750000Y-118300000D03*
%TD*%
D31*
%TO.P,R8,1*%
%TO.N,Net-(U1-A)*%
X236662500Y-57700000D03*
%TO.P,R8,2*%
%TO.N,A*%
X234837500Y-57700000D03*
%TD*%
D24*
%TO.P,R7,1*%
%TO.N,Net-(CA-IS3741LW1-VI1)*%
X231500000Y-87750000D03*
%TO.P,R7,2*%
%TO.N,GND*%
X233150000Y-87750000D03*
%TD*%
D32*
%TO.P,C12,1*%
%TO.N,+3V3*%
X201656800Y-106541600D03*
%TO.P,C12,2*%
%TO.N,GND*%
X203206800Y-106541600D03*
%TD*%
D33*
%TO.P,CA-IS3741LW1,1,VDDA*%
%TO.N,+3V3*%
X233700000Y-83157500D03*
%TO.P,CA-IS3741LW1,2,GNDA*%
%TO.N,GND*%
X232430000Y-83157500D03*
%TO.P,CA-IS3741LW1,3,VI1*%
%TO.N,Net-(CA-IS3741LW1-VI1)*%
X231160000Y-83157500D03*
%TO.P,CA-IS3741LW1,4,VI2*%
%TO.N,Net-(CA-IS3741LW1-VI2)*%
X229890000Y-83157500D03*
%TO.P,CA-IS3741LW1,5,VI3*%
%TO.N,unconnected-(CA-IS3741LW1-VI3-Pad5)*%
X228620000Y-83157500D03*
%TO.P,CA-IS3741LW1,6,VO4*%
%TO.N,Rx*%
X227350000Y-83157500D03*
%TO.P,CA-IS3741LW1,7,ENA*%
%TO.N,+3V3*%
X226080000Y-83157500D03*
%TO.P,CA-IS3741LW1,8,GNDA*%
%TO.N,GND*%
X224810000Y-83157500D03*
%TO.P,CA-IS3741LW1,9,GNDB*%
%TO.N,GND1*%
X224810000Y-73857500D03*
%TO.P,CA-IS3741LW1,10,ENB*%
%TO.N,VDDB*%
X226080000Y-73857500D03*
%TO.P,CA-IS3741LW1,11,VI4*%
%TO.N,Net-(CA-IS3741LW1-VI4)*%
X227350000Y-73857500D03*
%TO.P,CA-IS3741LW1,12,VO3*%
%TO.N,unconnected-(CA-IS3741LW1-VO3-Pad12)*%
X228620000Y-73857500D03*
%TO.P,CA-IS3741LW1,13,VO2*%
%TO.N,Net-(CA-IS3741LW1-VO2)*%
X229890000Y-73857500D03*
%TO.P,CA-IS3741LW1,14,VO1*%
%TO.N,Net-(CA-IS3741LW1-VO1)*%
X231160000Y-73857500D03*
%TO.P,CA-IS3741LW1,15,GNDB*%
%TO.N,GND1*%
X232430000Y-73857500D03*
%TO.P,CA-IS3741LW1,16,VDDB*%
%TO.N,VDDB*%
X233700000Y-73857500D03*
%TD*%
D32*
%TO.P,C13,1*%
%TO.N,Net-(CH32V203F8P1-NRST)*%
X201550000Y-110150000D03*
%TO.P,C13,2*%
%TO.N,GND*%
X203100000Y-110150000D03*
%TD*%
D28*
%TO.P,C6,1*%
%TO.N,+3V3*%
X226100000Y-85650000D03*
%TO.P,C6,2*%
%TO.N,GND*%
X224550000Y-85650000D03*
%TD*%
D19*
%TO.P,R16,1*%
%TO.N,+3.3V*%
X190525400Y-73863200D03*
%TO.P,R16,2*%
%TO.N,Net-(Q1-D)*%
X188875400Y-73863200D03*
%TD*%
D18*
%TO.P,R4,1*%
%TO.N,Net-(U1-B)*%
X224975000Y-57800000D03*
%TO.P,R4,2*%
%TO.N,B*%
X226800000Y-57800000D03*
%TD*%
D34*
%TO.N,VDDB*%
X236324172Y-62874500D03*
X227250000Y-62000000D03*
%TO.N,GND1*%
X232771398Y-70021398D03*
%TO.N,GND*%
X236575600Y-85090000D03*
X197091000Y-88883000D03*
X206832200Y-85801200D03*
X192850000Y-78050000D03*
%TO.N,+3V3*%
X226150000Y-87050000D03*
X201700000Y-107950000D03*
%TO.N,Net-(CA-IS3741LW1-VI2)*%
X228500000Y-85750000D03*
%TO.N,Net-(CH32V203F8P1-NRST)*%
X200100000Y-107550000D03*
%TO.N,Rx*%
X173900000Y-93950000D03*
%TO.N,Net-(CA-IS3741LW1-VI4)*%
X228850000Y-68700000D03*
%TO.N,Net-(CA-IS3741LW1-VO2)*%
X229900000Y-71550000D03*
%TO.N,Net-(CA-IS3741LW1-VO1)*%
X231400000Y-68700000D03*
%TO.N,SWDIO*%
X204700000Y-106450000D03*
%TO.N,SCLK*%
X205282800Y-103454200D03*
%TO.N,Net-(CH32V203F8P1-PB15)*%
X196100000Y-95850000D03*
%TO.N,Net-(U1-B)*%
X224950000Y-56100000D03*
%TO.N,Net-(U1-A)*%
X236650000Y-56100000D03*
%TO.N,+3.3V*%
X192620600Y-88857600D03*
X207365600Y-88468200D03*
X208762600Y-76708000D03*
%TO.N,Net-(Q1-D)*%
X187274204Y-71856600D03*
%TO.N,Net-(U3-EN)*%
X187274200Y-75819000D03*
%TO.N,Net-(U3-GPIO15)*%
X206806800Y-83820000D03*
%TO.N,Net-(U3-GPIO0)*%
X206806800Y-79806800D03*
%TO.N,Net-(U3-GPIO2)*%
X206832200Y-81838800D03*
%TO.N,ESP_UART_Rx*%
X207137000Y-73914000D03*
%TO.N,ESP_UART_Tx*%
X207137000Y-71882000D03*
%TD*%
D35*
%TO.N,+3V3*%
X211600000Y-107764800D02*
X207645000Y-103809800D01*
X211600000Y-115000000D02*
X211600000Y-107764800D01*
X210900000Y-115700000D02*
X211600000Y-115000000D01*
X203100000Y-115700000D02*
X210900000Y-115700000D01*
X201980800Y-114580800D02*
X203100000Y-115700000D01*
X201980800Y-113715800D02*
X201980800Y-114580800D01*
%TO.N,VDDB*%
X226630000Y-75432500D02*
X232910000Y-75432500D01*
X235950000Y-70225000D02*
X234650000Y-68925000D01*
X235950000Y-70225000D02*
X235125000Y-70225000D01*
X226080000Y-74882500D02*
X226630000Y-75432500D01*
X227250000Y-62000000D02*
X228900000Y-63650000D01*
X236324172Y-62874500D02*
X228124500Y-62874500D01*
X236455000Y-70730000D02*
X235950000Y-70225000D01*
X228900000Y-63650000D02*
X228900000Y-65700000D01*
X233700000Y-74642500D02*
X233700000Y-73857500D01*
X233700000Y-73857500D02*
X233700000Y-71650000D01*
X235125000Y-70225000D02*
X233950000Y-71400000D01*
X228124500Y-62874500D02*
X227250000Y-62000000D01*
X232910000Y-75432500D02*
X233700000Y-74642500D01*
X234650000Y-64548672D02*
X236324172Y-62874500D01*
X233700000Y-71650000D02*
X233950000Y-71400000D01*
X234650000Y-68925000D02*
X234650000Y-64548672D01*
X226080000Y-73857500D02*
X226080000Y-74882500D01*
%TO.N,GND1*%
X232400000Y-70392796D02*
X232771398Y-70021398D01*
X232430000Y-71430000D02*
X232400000Y-71400000D01*
X232430000Y-73857500D02*
X232430000Y-71430000D01*
X235800000Y-53300000D02*
X235800000Y-52650000D01*
X232400000Y-71400000D02*
X232400000Y-70392796D01*
%TO.N,+5V*%
X229200000Y-122250000D02*
X225750000Y-122250000D01*
X226520000Y-108730000D02*
X227950000Y-108730000D01*
X225800000Y-122300000D02*
X225750000Y-122250000D01*
X225750000Y-118300000D02*
X225700000Y-118250000D01*
X229200000Y-122250000D02*
X225750000Y-118800000D01*
X225700000Y-118250000D02*
X225700000Y-109550000D01*
X225700000Y-109550000D02*
X226520000Y-108730000D01*
X225750000Y-118800000D02*
X225750000Y-118300000D01*
%TO.N,GND*%
X233950000Y-118800000D02*
X233700000Y-118550000D01*
X236550000Y-82332500D02*
X236455000Y-82237500D01*
X236600000Y-90150000D02*
X234200000Y-87750000D01*
X202331800Y-105666600D02*
X203206800Y-106541600D01*
X233050000Y-122850000D02*
X232450000Y-122250000D01*
X203607400Y-83820000D02*
X203607400Y-84862400D01*
X203100000Y-110150000D02*
X203100000Y-111250000D01*
X232430000Y-85230000D02*
X233050000Y-85850000D01*
X202331800Y-103071321D02*
X203061521Y-102341600D01*
X230350000Y-118300000D02*
X233450000Y-118300000D01*
X224810000Y-83157500D02*
X224810000Y-85390000D01*
X227950000Y-101110000D02*
X230990000Y-101110000D01*
X204546200Y-85801200D02*
X206832200Y-85801200D01*
X224810000Y-85390000D02*
X224550000Y-85650000D01*
D36*
X192761600Y-77961600D02*
X192850000Y-78050000D01*
X197091000Y-88806800D02*
X197091000Y-88883000D01*
D35*
X205442993Y-102341600D02*
X206350000Y-103248607D01*
X236600000Y-95500000D02*
X236600000Y-90150000D01*
D36*
X192761600Y-75971400D02*
X192761600Y-74405500D01*
D35*
X224810000Y-83157500D02*
X224810000Y-82132500D01*
X203844800Y-110150000D02*
X207645000Y-106349800D01*
X202331800Y-103641600D02*
X202331800Y-105666600D01*
X203100000Y-111250000D02*
X204520800Y-112670800D01*
X206350000Y-103248607D02*
X206350000Y-105054800D01*
X230990000Y-101110000D02*
X236600000Y-95500000D01*
D36*
X192761600Y-75971400D02*
X192761600Y-77961600D01*
D35*
X235500000Y-130350000D02*
X235800000Y-130650000D01*
X233450000Y-118300000D02*
X233700000Y-118550000D01*
X206350000Y-105054800D02*
X207645000Y-106349800D01*
X232430000Y-83157500D02*
X232430000Y-85230000D01*
X233050000Y-87650000D02*
X233150000Y-87750000D01*
X202331800Y-104241600D02*
X202331800Y-103071321D01*
X233050000Y-85850000D02*
X233050000Y-87650000D01*
D36*
X192761600Y-74405500D02*
X192420200Y-74064100D01*
D35*
X203607400Y-84862400D02*
X204546200Y-85801200D01*
D36*
X197091000Y-88883000D02*
X197014800Y-88883000D01*
X197014800Y-88883000D02*
X197040200Y-88857600D01*
D35*
X203100000Y-110150000D02*
X203844800Y-110150000D01*
X204520800Y-112670800D02*
X204520800Y-113715800D01*
X235155000Y-80937500D02*
X236455000Y-82237500D01*
X224810000Y-82132500D02*
X226005000Y-80937500D01*
X234200000Y-87750000D02*
X233150000Y-87750000D01*
X203061521Y-102341600D02*
X205442993Y-102341600D01*
X226005000Y-80937500D02*
X235155000Y-80937500D01*
%TO.N,+3V3*%
X201700000Y-106584800D02*
X201656800Y-106541600D01*
X201681800Y-104241600D02*
X201681800Y-106516600D01*
X233700000Y-115300000D02*
X228400000Y-115300000D01*
X228050000Y-115650000D02*
X228050000Y-112000000D01*
X201700000Y-107950000D02*
X201700000Y-106584800D01*
X233105000Y-81537500D02*
X233700000Y-82132500D01*
X226100000Y-83177500D02*
X226080000Y-83157500D01*
X226675000Y-81537500D02*
X233105000Y-81537500D01*
X226100000Y-85650000D02*
X226100000Y-83177500D01*
X233700000Y-115300000D02*
X233700000Y-109400000D01*
X226100000Y-87000000D02*
X226150000Y-87050000D01*
X201681800Y-106516600D02*
X201656800Y-106541600D01*
X233700000Y-109400000D02*
X227950000Y-103650000D01*
X228050000Y-118300000D02*
X228050000Y-116200000D01*
X226080000Y-83157500D02*
X226080000Y-82132500D01*
X228400000Y-115300000D02*
X228050000Y-115650000D01*
X226080000Y-82132500D02*
X226675000Y-81537500D01*
X228050000Y-116200000D02*
X228050000Y-115650000D01*
X226100000Y-85650000D02*
X226100000Y-87000000D01*
X233700000Y-82132500D02*
X233700000Y-83157500D01*
%TO.N,Net-(CA-IS3741LW1-VI1)*%
X231160000Y-83157500D02*
X231160000Y-85840000D01*
X231500000Y-86200000D02*
X231150000Y-85850000D01*
X231500000Y-89300000D02*
X231500000Y-87750000D01*
X231160000Y-85840000D02*
X231150000Y-85850000D01*
X231500000Y-87750000D02*
X231500000Y-86200000D01*
%TO.N,Net-(CA-IS3741LW1-VI2)*%
X229890000Y-84760000D02*
X229890000Y-83157500D01*
X228900000Y-85750000D02*
X229890000Y-84760000D01*
X228500000Y-85750000D02*
X228900000Y-85750000D01*
%TO.N,Net-(CH32V203F8P1-NRST)*%
X200750000Y-109650000D02*
X201250000Y-110150000D01*
X201031800Y-104327996D02*
X201031800Y-103641600D01*
X201031800Y-104241600D02*
X201031800Y-105807716D01*
X201031800Y-105807716D02*
X200200000Y-106639516D01*
X200752400Y-109647600D02*
X200750000Y-109650000D01*
X201250000Y-110150000D02*
X201550000Y-110150000D01*
X200100000Y-107550000D02*
X193930000Y-107550000D01*
X193930000Y-107550000D02*
X190200000Y-103820000D01*
X200200000Y-106639516D02*
X200200000Y-107450000D01*
X200200000Y-109100000D02*
X200750000Y-109650000D01*
X200200000Y-107450000D02*
X200100000Y-107550000D01*
X200200000Y-107650000D02*
X200200000Y-109100000D01*
X200100000Y-107550000D02*
X200200000Y-107650000D01*
%TO.N,Rx*%
X206100000Y-99972182D02*
X206100000Y-97734800D01*
X198431800Y-105284062D02*
X198124262Y-105591600D01*
X226604594Y-88988909D02*
X226604594Y-94684594D01*
X226604594Y-94684594D02*
X227950000Y-96030000D01*
X195369418Y-105591600D02*
X192650000Y-102872182D01*
X165350000Y-95950000D02*
X171900000Y-95950000D01*
X206100000Y-97734800D02*
X207645000Y-96189800D01*
X171900000Y-95950000D02*
X173900000Y-93950000D01*
X198431800Y-104241600D02*
X198431800Y-105284062D01*
X227350000Y-88243503D02*
X226604594Y-88988909D01*
X198431800Y-102943504D02*
X200683704Y-100691600D01*
X192650000Y-97050000D02*
X191800000Y-96200000D01*
X198431800Y-104241600D02*
X198431800Y-102943504D01*
X198124262Y-105591600D02*
X195369418Y-105591600D01*
X192650000Y-102872182D02*
X192650000Y-97050000D01*
X205380582Y-100691600D02*
X206100000Y-99972182D01*
X200683704Y-100691600D02*
X205380582Y-100691600D01*
X191800000Y-96200000D02*
X190200000Y-96200000D01*
X227350000Y-83157500D02*
X227350000Y-88243503D01*
%TO.N,Net-(CA-IS3741LW1-VI4)*%
X227350000Y-70200000D02*
X228850000Y-68700000D01*
X228850000Y-67400000D02*
X228900000Y-67350000D01*
X227350000Y-73857500D02*
X227350000Y-70200000D01*
X228850000Y-68700000D02*
X228850000Y-67400000D01*
%TO.N,Net-(CA-IS3741LW1-VO2)*%
X229890000Y-71560000D02*
X229900000Y-71550000D01*
X229890000Y-73857500D02*
X229890000Y-71560000D01*
%TO.N,Net-(CA-IS3741LW1-VO1)*%
X231160000Y-71210406D02*
X231400000Y-70970406D01*
X231160000Y-73857500D02*
X231160000Y-71210406D01*
X231400000Y-70970406D02*
X231400000Y-68700000D01*
%TO.N,SWDIO*%
X204700000Y-105309800D02*
X203631800Y-104241600D01*
X204700000Y-106450000D02*
X204700000Y-105309800D01*
%TO.N,SCLK*%
X205359000Y-103454200D02*
X205308200Y-103403400D01*
X204720200Y-102891600D02*
X205282800Y-103454200D01*
X203289338Y-102891600D02*
X204720200Y-102891600D01*
X205282800Y-103454200D02*
X205359000Y-103454200D01*
X205282800Y-103378000D02*
X205282800Y-103454200D01*
X202981800Y-103199139D02*
X203289338Y-102891600D01*
X202981800Y-104241600D02*
X202981800Y-103199139D01*
%TO.N,RO{slash}DI*%
X205670810Y-101791600D02*
X201139338Y-101791600D01*
X231500000Y-91125000D02*
X228125000Y-91125000D01*
X209450000Y-101250000D02*
X208184856Y-102515144D01*
X209450000Y-92914800D02*
X209450000Y-101250000D01*
X207631800Y-91123000D02*
X207645000Y-91109800D01*
X228125000Y-91125000D02*
X227950000Y-90950000D01*
X208184856Y-102515144D02*
X206394355Y-102515144D01*
X201139338Y-101791600D02*
X199731800Y-103199138D01*
X206394355Y-102515144D02*
X205670810Y-101791600D01*
X207645000Y-91109800D02*
X209450000Y-92914800D01*
X199731800Y-103199138D02*
X199731800Y-104241600D01*
%TO.N,Tx*%
X206850000Y-100000000D02*
X208500000Y-100000000D01*
X199081800Y-105411879D02*
X198352079Y-106141600D01*
X198352079Y-106141600D02*
X195141600Y-106141600D01*
X200911521Y-101241600D02*
X205650000Y-101241600D01*
X208500000Y-100000000D02*
X208900000Y-99600000D01*
X192100000Y-103100000D02*
X192100000Y-100640000D01*
X205650000Y-101200000D02*
X206850000Y-100000000D01*
X205650000Y-101241600D02*
X205650000Y-101200000D01*
X192100000Y-100640000D02*
X190200000Y-98740000D01*
X208900000Y-99600000D02*
X208900000Y-94904800D01*
X195141600Y-106141600D02*
X192100000Y-103100000D01*
X199081800Y-104241600D02*
X199081800Y-103071321D01*
X199081800Y-104241600D02*
X199081800Y-105411879D01*
X199081800Y-103071321D02*
X200911521Y-101241600D01*
X208900000Y-94904800D02*
X207645000Y-93649800D01*
%TO.N,Net-(CH32V203F8P1-PB15)*%
X196100000Y-95850000D02*
X196350000Y-95850000D01*
X201681800Y-97241600D02*
X201681800Y-96199138D01*
X201332662Y-95850000D02*
X196100000Y-95850000D01*
X201681800Y-96199138D02*
X201332662Y-95850000D01*
D36*
%TO.N,PA8*%
X194411600Y-89061600D02*
X194411600Y-75971400D01*
X200215144Y-94865144D02*
X194411600Y-89061600D01*
X194411600Y-74155500D02*
X194320200Y-74064100D01*
X202331800Y-96106676D02*
X201090268Y-94865144D01*
X201090268Y-94865144D02*
X200215144Y-94865144D01*
X202331800Y-97241600D02*
X202331800Y-96106676D01*
X194411600Y-75971400D02*
X194411600Y-74155500D01*
D35*
%TO.N,PA9*%
X192900000Y-95073528D02*
X192900000Y-91500000D01*
X202981800Y-98284062D02*
X202615862Y-98650000D01*
X202615862Y-98650000D02*
X196476472Y-98650000D01*
X202981800Y-97241600D02*
X202981800Y-95133400D01*
X202981800Y-95133400D02*
X201493200Y-93644800D01*
X196476472Y-98650000D02*
X192900000Y-95073528D01*
X202981800Y-97241600D02*
X202981800Y-98284062D01*
X192520000Y-91120000D02*
X190200000Y-91120000D01*
X192900000Y-91500000D02*
X192520000Y-91120000D01*
X201493200Y-93644800D02*
X200761600Y-93644800D01*
%TO.N,PA10*%
X203631800Y-97241600D02*
X203631800Y-98411880D01*
X203631800Y-97241600D02*
X203631800Y-93675200D01*
X203631800Y-98411880D02*
X202843679Y-99200000D01*
X190708654Y-93660000D02*
X190200000Y-93660000D01*
X202843679Y-99200000D02*
X196248654Y-99200000D01*
X203631800Y-93675200D02*
X203606400Y-93649800D01*
X196248654Y-99200000D02*
X190708654Y-93660000D01*
%TO.N,A*%
X234387500Y-58150000D02*
X234837500Y-57700000D01*
X234837500Y-57700000D02*
X234837500Y-60062500D01*
X229625000Y-58150000D02*
X230800000Y-56975000D01*
X229625000Y-58150000D02*
X234387500Y-58150000D01*
X230800000Y-56975000D02*
X230800000Y-52650000D01*
X234837500Y-60062500D02*
X234875000Y-60100000D01*
%TO.N,B*%
X225800000Y-54600000D02*
X225800000Y-52650000D01*
X227450000Y-56250000D02*
X225800000Y-54600000D01*
X229625000Y-56250000D02*
X227450000Y-56250000D01*
X226800000Y-56900000D02*
X227450000Y-56250000D01*
X226800000Y-57800000D02*
X226800000Y-56900000D01*
X226800000Y-57800000D02*
X226800000Y-60100000D01*
X226300000Y-52650000D02*
X225800000Y-52650000D01*
%TO.N,+5VD*%
X225800000Y-126300000D02*
X225750000Y-126250000D01*
X225800000Y-130650000D02*
X225800000Y-126300000D01*
%TO.N,Net-(J1-Pin_2)*%
X227000000Y-66415000D02*
X227000000Y-63093503D01*
X225700000Y-67715000D02*
X227000000Y-66415000D01*
X224975000Y-61068503D02*
X224975000Y-60100000D01*
X227000000Y-63093503D02*
X224975000Y-61068503D01*
%TO.N,Net-(J2-Pin_2)*%
X237274172Y-60674172D02*
X236700000Y-60100000D01*
X235950000Y-67685000D02*
X237274172Y-66360828D01*
X237274172Y-66360828D02*
X237274172Y-60674172D01*
%TO.N,Net-(U1-B)*%
X224950000Y-57775000D02*
X224975000Y-57800000D01*
X224950000Y-56100000D02*
X224950000Y-57775000D01*
%TO.N,Net-(U1-A)*%
X236650000Y-57687500D02*
X236662500Y-57700000D01*
X236650000Y-56100000D02*
X236650000Y-57687500D01*
D36*
%TO.N,+3.3V*%
X207365600Y-88468200D02*
X207365600Y-88544400D01*
X208762600Y-76733400D02*
X208762600Y-76708000D01*
X190525400Y-75869800D02*
X190550800Y-75895200D01*
X190550800Y-86787800D02*
X192620600Y-88857600D01*
X208762600Y-76708000D02*
X208762600Y-87147400D01*
X203582000Y-79908400D02*
X203582000Y-81838800D01*
X207441800Y-88468200D02*
X207365600Y-88468200D01*
X208788000Y-76708000D02*
X208762600Y-76733400D01*
X203582000Y-78916800D02*
X203784200Y-78714600D01*
X203784200Y-78714600D02*
X206781400Y-78714600D01*
X203582000Y-81838800D02*
X203607400Y-81864200D01*
X208762600Y-76708000D02*
X208788000Y-76708000D01*
X190525400Y-73863200D02*
X190525400Y-75869800D01*
X207365600Y-88544400D02*
X207314800Y-88595200D01*
X203582000Y-79908400D02*
X203582000Y-78916800D01*
X208762600Y-87147400D02*
X207441800Y-88468200D01*
X206781400Y-78714600D02*
X208762600Y-76733400D01*
X190550800Y-75895200D02*
X190550800Y-86787800D01*
%TO.N,Net-(Q1-D)*%
X188875400Y-73457796D02*
X187274204Y-71856600D01*
X187274204Y-71856600D02*
X193037700Y-71856600D01*
X188875400Y-73863200D02*
X188875400Y-73457796D01*
X193037700Y-71856600D02*
X193370200Y-72189100D01*
%TO.N,Net-(U3-EN)*%
X188824600Y-75819000D02*
X188900800Y-75895200D01*
X187274200Y-75819000D02*
X188824600Y-75819000D01*
D35*
%TO.N,Net-(U3-GPIO15)*%
X205257400Y-83820000D02*
X206806800Y-83820000D01*
%TO.N,Net-(U3-GPIO0)*%
X206806800Y-79806800D02*
X208237600Y-81237600D01*
X206705200Y-79908400D02*
X206806800Y-79806800D01*
X208237600Y-81237600D02*
X208237600Y-86323407D01*
X194700000Y-100160000D02*
X194718400Y-100141600D01*
X204058400Y-100141600D02*
X205150000Y-99050000D01*
X194718400Y-100141600D02*
X204058400Y-100141600D01*
X205232000Y-79908400D02*
X206705200Y-79908400D01*
X205150000Y-97600000D02*
X205150000Y-97671496D01*
X205150000Y-99050000D02*
X205150000Y-97600000D01*
X205150000Y-89411007D02*
X205150000Y-97600000D01*
X208237600Y-86323407D02*
X205150000Y-89411007D01*
%TO.N,Net-(U3-GPIO2)*%
X205257400Y-81864200D02*
X206806800Y-81864200D01*
X206806800Y-81864200D02*
X206832200Y-81838800D01*
%TO.N,ESP_UART_Rx*%
X207137000Y-73914000D02*
X206679800Y-73914000D01*
X200761600Y-79832200D02*
X200761600Y-91104800D01*
X206679800Y-73914000D02*
X200761600Y-79832200D01*
%TO.N,ESP_UART_Tx*%
X203606400Y-91109800D02*
X202336400Y-92379800D01*
X199511600Y-79507400D02*
X207137000Y-71882000D01*
X199511600Y-92323600D02*
X199511600Y-79507400D01*
X199567800Y-92379800D02*
X199511600Y-92323600D01*
X202336400Y-92379800D02*
X199567800Y-92379800D01*
%TD*%
%TA.AperFunction,Conductor*%
%TO.N,GND*%
G36*
X186329800Y-76222232D02*
G01*
X186384338Y-76276770D01*
X186386706Y-76281032D01*
X186438283Y-76377527D01*
X186438287Y-76377533D01*
X186438290Y-76377538D01*
X186563317Y-76529883D01*
X186715662Y-76654910D01*
X186715671Y-76654915D01*
X186715673Y-76654916D01*
X186889468Y-76747812D01*
X186889470Y-76747812D01*
X186889473Y-76747814D01*
X187078068Y-76805024D01*
X187274200Y-76824341D01*
X187470332Y-76805024D01*
X187658927Y-76747814D01*
X187832738Y-76654910D01*
X187928799Y-76576074D01*
X187999046Y-76544245D01*
X188075803Y-76551805D01*
X188138497Y-76596729D01*
X188140604Y-76599357D01*
X188145324Y-76605381D01*
X188145327Y-76605384D01*
X188145328Y-76605385D01*
X188265615Y-76725672D01*
X188411194Y-76813678D01*
X188573604Y-76864286D01*
X188644184Y-76870700D01*
X188644191Y-76870700D01*
X189157409Y-76870700D01*
X189157416Y-76870700D01*
X189227996Y-76864286D01*
X189390406Y-76813678D01*
X189535985Y-76725672D01*
X189620441Y-76641216D01*
X189687236Y-76602652D01*
X189764364Y-76602652D01*
X189831159Y-76641216D01*
X189881659Y-76691716D01*
X189920223Y-76758511D01*
X189925300Y-76797075D01*
X189925300Y-86702295D01*
X189923447Y-86719080D01*
X189924009Y-86719134D01*
X189923126Y-86728470D01*
X189925300Y-86797614D01*
X189925300Y-86827155D01*
X189926096Y-86833457D01*
X189926645Y-86840445D01*
X189928090Y-86886420D01*
X189928092Y-86886434D01*
X189933131Y-86903778D01*
X189937872Y-86926670D01*
X189940135Y-86944589D01*
X189940137Y-86944596D01*
X189957073Y-86987370D01*
X189959347Y-86994012D01*
X189972182Y-87038190D01*
X189981378Y-87053740D01*
X189991661Y-87074730D01*
X189998314Y-87091532D01*
X190014871Y-87114321D01*
X190025358Y-87128756D01*
X190029210Y-87134620D01*
X190052630Y-87174220D01*
X190063449Y-87185039D01*
X190065406Y-87186996D01*
X190080586Y-87204770D01*
X190091206Y-87219387D01*
X190126656Y-87248714D01*
X190131844Y-87253435D01*
X191576254Y-88697845D01*
X191614818Y-88764640D01*
X191619178Y-88817806D01*
X191615259Y-88857599D01*
X191634576Y-89053734D01*
X191691787Y-89242331D01*
X191784683Y-89416126D01*
X191784684Y-89416127D01*
X191784690Y-89416138D01*
X191909717Y-89568483D01*
X192062062Y-89693510D01*
X192062071Y-89693515D01*
X192062073Y-89693516D01*
X192235868Y-89786412D01*
X192235870Y-89786412D01*
X192235873Y-89786414D01*
X192424468Y-89843624D01*
X192620600Y-89862941D01*
X192816732Y-89843624D01*
X193005327Y-89786414D01*
X193008091Y-89784937D01*
X193065408Y-89754300D01*
X193179138Y-89693510D01*
X193331483Y-89568483D01*
X193456510Y-89416138D01*
X193456517Y-89416126D01*
X193547579Y-89245760D01*
X193600302Y-89189467D01*
X193674109Y-89167078D01*
X193749223Y-89184592D01*
X193805516Y-89237315D01*
X193822068Y-89274426D01*
X193832982Y-89311990D01*
X193842178Y-89327540D01*
X193852461Y-89348530D01*
X193859114Y-89365332D01*
X193863520Y-89371396D01*
X193886158Y-89402556D01*
X193890010Y-89408420D01*
X193913430Y-89448020D01*
X193926206Y-89460796D01*
X193941386Y-89478570D01*
X193952006Y-89493187D01*
X193987456Y-89522514D01*
X193992644Y-89527235D01*
X199410551Y-94945141D01*
X199449115Y-95011936D01*
X199449115Y-95089064D01*
X199410551Y-95155859D01*
X199343756Y-95194423D01*
X199305192Y-95199500D01*
X196930910Y-95199500D01*
X196856410Y-95179538D01*
X196815732Y-95145025D01*
X196810885Y-95139119D01*
X196810883Y-95139117D01*
X196658538Y-95014090D01*
X196658532Y-95014087D01*
X196658526Y-95014083D01*
X196484731Y-94921187D01*
X196296134Y-94863976D01*
X196100000Y-94844659D01*
X195903865Y-94863976D01*
X195715268Y-94921187D01*
X195541473Y-95014083D01*
X195541465Y-95014088D01*
X195541463Y-95014089D01*
X195541462Y-95014090D01*
X195389117Y-95139117D01*
X195264088Y-95291465D01*
X195264083Y-95291473D01*
X195171187Y-95465268D01*
X195113976Y-95653865D01*
X195094659Y-95850000D01*
X195108275Y-95988253D01*
X195095710Y-96064350D01*
X195046780Y-96123971D01*
X194974595Y-96151139D01*
X194898498Y-96138574D01*
X194854633Y-96108215D01*
X193594141Y-94847723D01*
X193555577Y-94780928D01*
X193550500Y-94742364D01*
X193550500Y-91588262D01*
X193552396Y-91571082D01*
X193551878Y-91571033D01*
X193552760Y-91561701D01*
X193550500Y-91489796D01*
X193550500Y-91459078D01*
X193549656Y-91452398D01*
X193549104Y-91445391D01*
X193548802Y-91435798D01*
X193547597Y-91397431D01*
X193542224Y-91378937D01*
X193537485Y-91356054D01*
X193535071Y-91336942D01*
X193517402Y-91292315D01*
X193515129Y-91285675D01*
X193501744Y-91239601D01*
X193491939Y-91223022D01*
X193481653Y-91202024D01*
X193474570Y-91184133D01*
X193474565Y-91184124D01*
X193446359Y-91145301D01*
X193442504Y-91139432D01*
X193418085Y-91098141D01*
X193418083Y-91098139D01*
X193418081Y-91098135D01*
X193404460Y-91084514D01*
X193389278Y-91066737D01*
X193377964Y-91051165D01*
X193377963Y-91051163D01*
X193340995Y-91020580D01*
X193335800Y-91015854D01*
X193042384Y-90722438D01*
X193031579Y-90708951D01*
X193031178Y-90709284D01*
X193025205Y-90702065D01*
X193025202Y-90702060D01*
X192972755Y-90652809D01*
X192951035Y-90631089D01*
X192945710Y-90626958D01*
X192940372Y-90622398D01*
X192905400Y-90589557D01*
X192905396Y-90589554D01*
X192905393Y-90589552D01*
X192888515Y-90580273D01*
X192868984Y-90567444D01*
X192853764Y-90555638D01*
X192809720Y-90536578D01*
X192803423Y-90533493D01*
X192761372Y-90510375D01*
X192761369Y-90510373D01*
X192755697Y-90508917D01*
X192742704Y-90505580D01*
X192720598Y-90498012D01*
X192702926Y-90490365D01*
X192702923Y-90490364D01*
X192702921Y-90490364D01*
X192655540Y-90482859D01*
X192648666Y-90481435D01*
X192609896Y-90471482D01*
X192602177Y-90469500D01*
X192602176Y-90469500D01*
X192582922Y-90469500D01*
X192559611Y-90467665D01*
X192540594Y-90464652D01*
X192492819Y-90469169D01*
X192485803Y-90469500D01*
X191470736Y-90469500D01*
X191396236Y-90449538D01*
X191348682Y-90405963D01*
X191347365Y-90404082D01*
X191238495Y-90248599D01*
X191071401Y-90081505D01*
X190877830Y-89945965D01*
X190663663Y-89846097D01*
X190663661Y-89846096D01*
X190435409Y-89784937D01*
X190200000Y-89764341D01*
X189964590Y-89784937D01*
X189736340Y-89846096D01*
X189736339Y-89846096D01*
X189736337Y-89846097D01*
X189522171Y-89945965D01*
X189522168Y-89945966D01*
X189522168Y-89945967D01*
X189328596Y-90081507D01*
X189161507Y-90248596D01*
X189161505Y-90248599D01*
X189025965Y-90442171D01*
X188926097Y-90656337D01*
X188926096Y-90656340D01*
X188864937Y-90884590D01*
X188844341Y-91120000D01*
X188864937Y-91355409D01*
X188922921Y-91571813D01*
X188926097Y-91583663D01*
X189025965Y-91797830D01*
X189161505Y-91991401D01*
X189328599Y-92158495D01*
X189484913Y-92267947D01*
X189534489Y-92327030D01*
X189547882Y-92402986D01*
X189521503Y-92475463D01*
X189484912Y-92512054D01*
X189328597Y-92621506D01*
X189161507Y-92788596D01*
X189144961Y-92812227D01*
X189025965Y-92982171D01*
X188930852Y-93186140D01*
X188926096Y-93196340D01*
X188864937Y-93424590D01*
X188844341Y-93660000D01*
X188864937Y-93895409D01*
X188923363Y-94113463D01*
X188926097Y-94123663D01*
X189025965Y-94337830D01*
X189161505Y-94531401D01*
X189328599Y-94698495D01*
X189484913Y-94807947D01*
X189534489Y-94867030D01*
X189547882Y-94942986D01*
X189521503Y-95015463D01*
X189484912Y-95052054D01*
X189328597Y-95161506D01*
X189161507Y-95328596D01*
X189161505Y-95328599D01*
X189025965Y-95522171D01*
X188930852Y-95726140D01*
X188926096Y-95736340D01*
X188864937Y-95964590D01*
X188844341Y-96200000D01*
X188864937Y-96435409D01*
X188909172Y-96600500D01*
X188926097Y-96663663D01*
X189025965Y-96877830D01*
X189161505Y-97071401D01*
X189328599Y-97238495D01*
X189484913Y-97347947D01*
X189534489Y-97407030D01*
X189547882Y-97482986D01*
X189521503Y-97555463D01*
X189484912Y-97592054D01*
X189328597Y-97701506D01*
X189161507Y-97868596D01*
X189069848Y-97999500D01*
X189025965Y-98062171D01*
X188977909Y-98165227D01*
X188926096Y-98276340D01*
X188864937Y-98504590D01*
X188844341Y-98740000D01*
X188864937Y-98975409D01*
X188925789Y-99202517D01*
X188926097Y-99203663D01*
X189025965Y-99417830D01*
X189161505Y-99611401D01*
X189328599Y-99778495D01*
X189484913Y-99887947D01*
X189534489Y-99947030D01*
X189547882Y-100022986D01*
X189521503Y-100095463D01*
X189484912Y-100132054D01*
X189328597Y-100241506D01*
X189161507Y-100408596D01*
X189161505Y-100408599D01*
X189025965Y-100602171D01*
X188926097Y-100816337D01*
X188926096Y-100816340D01*
X188864937Y-101044590D01*
X188844341Y-101280000D01*
X188864937Y-101515409D01*
X188923607Y-101734372D01*
X188926097Y-101743663D01*
X189025965Y-101957830D01*
X189161505Y-102151401D01*
X189328599Y-102318495D01*
X189484913Y-102427947D01*
X189534489Y-102487030D01*
X189547882Y-102562986D01*
X189521503Y-102635463D01*
X189484912Y-102672054D01*
X189328597Y-102781506D01*
X189161507Y-102948596D01*
X189105779Y-103028185D01*
X189025965Y-103142171D01*
X188927448Y-103353440D01*
X188926096Y-103356340D01*
X188864937Y-103584590D01*
X188844341Y-103820000D01*
X188864937Y-104055409D01*
X188923363Y-104273463D01*
X188926097Y-104283663D01*
X189025965Y-104497830D01*
X189161505Y-104691401D01*
X189328599Y-104858495D01*
X189484913Y-104967947D01*
X189534489Y-105027030D01*
X189547882Y-105102986D01*
X189521503Y-105175463D01*
X189484912Y-105212054D01*
X189328597Y-105321506D01*
X189161507Y-105488596D01*
X189161505Y-105488599D01*
X189025965Y-105682171D01*
X188926097Y-105896337D01*
X188926096Y-105896340D01*
X188864937Y-106124590D01*
X188844341Y-106360000D01*
X188864937Y-106595409D01*
X188923317Y-106813291D01*
X188926097Y-106823663D01*
X189025965Y-107037830D01*
X189154136Y-107220876D01*
X189161506Y-107231402D01*
X189256311Y-107326207D01*
X189294875Y-107393002D01*
X189294875Y-107470130D01*
X189256311Y-107536925D01*
X189203024Y-107571171D01*
X189107911Y-107606647D01*
X189107905Y-107606650D01*
X188992812Y-107692809D01*
X188992809Y-107692812D01*
X188906650Y-107807905D01*
X188906645Y-107807915D01*
X188856401Y-107942622D01*
X188850001Y-108002157D01*
X188850000Y-108002177D01*
X188850000Y-108650000D01*
X189766314Y-108650000D01*
X189740507Y-108690156D01*
X189700000Y-108828111D01*
X189700000Y-108971889D01*
X189740507Y-109109844D01*
X189766314Y-109150000D01*
X188850000Y-109150000D01*
X188850000Y-109797822D01*
X188850001Y-109797842D01*
X188856401Y-109857377D01*
X188906645Y-109992084D01*
X188906650Y-109992094D01*
X188992809Y-110107187D01*
X188992812Y-110107190D01*
X189107905Y-110193349D01*
X189107915Y-110193354D01*
X189242623Y-110243598D01*
X189242621Y-110243598D01*
X189302157Y-110249998D01*
X189302177Y-110250000D01*
X189950000Y-110250000D01*
X189950000Y-109335501D01*
X190057685Y-109384680D01*
X190164237Y-109400000D01*
X190235763Y-109400000D01*
X190342315Y-109384680D01*
X190450000Y-109335501D01*
X190450000Y-110250000D01*
X191097823Y-110250000D01*
X191097842Y-110249998D01*
X191157377Y-110243598D01*
X191292084Y-110193354D01*
X191292094Y-110193349D01*
X191407187Y-110107190D01*
X191407190Y-110107187D01*
X191493349Y-109992094D01*
X191493354Y-109992084D01*
X191543598Y-109857377D01*
X191549998Y-109797842D01*
X191550000Y-109797822D01*
X191550000Y-109150000D01*
X190633686Y-109150000D01*
X190659493Y-109109844D01*
X190700000Y-108971889D01*
X190700000Y-108828111D01*
X190659493Y-108690156D01*
X190633686Y-108650000D01*
X191550000Y-108650000D01*
X191550000Y-108002177D01*
X191549998Y-108002157D01*
X191543598Y-107942622D01*
X191493354Y-107807915D01*
X191493349Y-107807905D01*
X191407190Y-107692812D01*
X191407187Y-107692809D01*
X191292094Y-107606650D01*
X191292086Y-107606646D01*
X191196976Y-107571171D01*
X191134149Y-107526432D01*
X191102110Y-107456274D01*
X191109442Y-107379495D01*
X191143689Y-107326207D01*
X191238490Y-107231406D01*
X191238495Y-107231401D01*
X191374035Y-107037830D01*
X191473903Y-106823663D01*
X191535063Y-106595408D01*
X191549080Y-106435189D01*
X191575459Y-106362714D01*
X191634543Y-106313137D01*
X191710499Y-106299744D01*
X191782976Y-106326123D01*
X191802872Y-106342818D01*
X193407615Y-107947561D01*
X193418420Y-107961047D01*
X193418821Y-107960716D01*
X193424795Y-107967937D01*
X193424797Y-107967939D01*
X193424798Y-107967940D01*
X193461257Y-108002177D01*
X193477243Y-108017189D01*
X193498967Y-108038913D01*
X193498975Y-108038919D01*
X193504291Y-108043043D01*
X193509629Y-108047602D01*
X193544607Y-108080448D01*
X193557010Y-108087266D01*
X193561475Y-108089721D01*
X193581022Y-108102561D01*
X193596234Y-108114361D01*
X193596237Y-108114363D01*
X193627512Y-108127897D01*
X193640273Y-108133419D01*
X193646569Y-108136502D01*
X193688632Y-108159627D01*
X193707275Y-108164413D01*
X193729406Y-108171990D01*
X193747071Y-108179635D01*
X193747072Y-108179635D01*
X193747074Y-108179636D01*
X193771171Y-108183452D01*
X193794465Y-108187142D01*
X193801343Y-108188566D01*
X193816463Y-108192448D01*
X193847823Y-108200500D01*
X193867079Y-108200500D01*
X193890386Y-108202334D01*
X193909405Y-108205347D01*
X193943555Y-108202118D01*
X193957184Y-108200831D01*
X193964199Y-108200500D01*
X199269090Y-108200500D01*
X199343590Y-108220462D01*
X199384268Y-108254975D01*
X199389114Y-108260880D01*
X199389119Y-108260885D01*
X199495025Y-108347800D01*
X199539950Y-108410493D01*
X199549500Y-108462978D01*
X199549500Y-109011734D01*
X199547603Y-109028912D01*
X199548122Y-109028961D01*
X199547239Y-109038297D01*
X199549500Y-109110203D01*
X199549500Y-109140936D01*
X199550346Y-109147633D01*
X199550895Y-109154621D01*
X199552402Y-109202565D01*
X199552402Y-109202568D01*
X199557775Y-109221063D01*
X199562513Y-109243945D01*
X199564927Y-109263052D01*
X199564928Y-109263057D01*
X199582593Y-109307674D01*
X199584866Y-109314315D01*
X199598256Y-109360398D01*
X199598257Y-109360400D01*
X199608058Y-109376973D01*
X199618341Y-109397964D01*
X199625429Y-109415867D01*
X199625432Y-109415872D01*
X199653632Y-109454686D01*
X199657487Y-109460555D01*
X199673236Y-109487184D01*
X199681919Y-109501865D01*
X199681921Y-109501867D01*
X199695533Y-109515479D01*
X199710717Y-109533258D01*
X199722032Y-109548832D01*
X199722034Y-109548834D01*
X199722036Y-109548835D01*
X199722037Y-109548837D01*
X199744754Y-109567630D01*
X199759009Y-109579423D01*
X199764203Y-109584149D01*
X200236589Y-110056535D01*
X200254464Y-110078143D01*
X200258171Y-110083599D01*
X200302718Y-110122872D01*
X200306130Y-110126076D01*
X200558730Y-110378676D01*
X200597294Y-110445471D01*
X200601600Y-110468893D01*
X200609651Y-110547708D01*
X200662997Y-110708697D01*
X200752032Y-110853044D01*
X200871956Y-110972968D01*
X201016303Y-111062003D01*
X201177292Y-111115349D01*
X201276655Y-111125500D01*
X201823344Y-111125499D01*
X201922708Y-111115349D01*
X202083697Y-111062003D01*
X202228044Y-110972968D01*
X202228050Y-110972961D01*
X202232984Y-110969061D01*
X202303803Y-110938508D01*
X202380410Y-110947459D01*
X202417818Y-110969055D01*
X202422264Y-110972570D01*
X202566514Y-111061546D01*
X202727392Y-111114855D01*
X202826689Y-111124999D01*
X202849999Y-111124998D01*
X202850000Y-111124998D01*
X202850000Y-110400000D01*
X203350000Y-110400000D01*
X203350000Y-111124999D01*
X203373310Y-111124999D01*
X203472606Y-111114855D01*
X203472609Y-111114855D01*
X203633485Y-111061546D01*
X203777732Y-110972572D01*
X203897572Y-110852732D01*
X203986546Y-110708485D01*
X204039856Y-110547603D01*
X204039857Y-110547603D01*
X204049999Y-110448325D01*
X204050000Y-110448315D01*
X204050000Y-110400000D01*
X203350000Y-110400000D01*
X202850000Y-110400000D01*
X202850000Y-109175000D01*
X203350000Y-109175000D01*
X203350000Y-109900000D01*
X204049999Y-109900000D01*
X204049999Y-109851690D01*
X204039855Y-109752393D01*
X204039855Y-109752390D01*
X203986546Y-109591514D01*
X203897572Y-109447267D01*
X203777732Y-109327427D01*
X203633485Y-109238453D01*
X203472603Y-109185143D01*
X203472603Y-109185142D01*
X203373325Y-109175000D01*
X203350000Y-109175000D01*
X202850000Y-109175000D01*
X202850000Y-109174999D01*
X202826691Y-109175000D01*
X202826690Y-109175000D01*
X202727393Y-109185144D01*
X202727390Y-109185144D01*
X202566514Y-109238453D01*
X202422267Y-109327427D01*
X202417812Y-109330950D01*
X202346989Y-109361493D01*
X202270383Y-109352534D01*
X202232990Y-109330943D01*
X202228047Y-109327035D01*
X202228044Y-109327032D01*
X202093340Y-109243945D01*
X202083699Y-109237998D01*
X202083698Y-109237997D01*
X202083697Y-109237997D01*
X202032593Y-109221063D01*
X201964042Y-109198347D01*
X201899602Y-109155964D01*
X201864988Y-109087039D01*
X201869473Y-109010042D01*
X201911856Y-108945602D01*
X201967655Y-108914327D01*
X202084727Y-108878814D01*
X202258538Y-108785910D01*
X202410883Y-108660883D01*
X202535910Y-108508538D01*
X202628814Y-108334727D01*
X202686024Y-108146132D01*
X202705341Y-107950000D01*
X202686024Y-107753868D01*
X202668819Y-107697154D01*
X202666296Y-107620070D01*
X202702653Y-107552049D01*
X202768150Y-107511319D01*
X202826548Y-107505675D01*
X202933481Y-107516599D01*
X202956799Y-107516598D01*
X202956800Y-107516598D01*
X202956800Y-106440600D01*
X202976762Y-106366100D01*
X203031300Y-106311562D01*
X203105800Y-106291600D01*
X203307800Y-106291600D01*
X203382300Y-106311562D01*
X203436838Y-106366100D01*
X203456800Y-106440600D01*
X203456800Y-107516599D01*
X203480110Y-107516599D01*
X203579406Y-107506455D01*
X203579409Y-107506455D01*
X203740285Y-107453146D01*
X203884532Y-107364172D01*
X203947892Y-107300812D01*
X204014687Y-107262247D01*
X204091815Y-107262247D01*
X204136041Y-107282287D01*
X204141457Y-107285906D01*
X204141462Y-107285910D01*
X204141467Y-107285912D01*
X204141469Y-107285914D01*
X204315268Y-107378812D01*
X204315270Y-107378812D01*
X204315273Y-107378814D01*
X204503868Y-107436024D01*
X204700000Y-107455341D01*
X204896132Y-107436024D01*
X205084727Y-107378814D01*
X205114435Y-107362935D01*
X205155423Y-107341026D01*
X205258538Y-107285910D01*
X205410883Y-107160883D01*
X205535910Y-107008538D01*
X205617519Y-106855859D01*
X205628812Y-106834731D01*
X205628812Y-106834730D01*
X205628814Y-106834727D01*
X205686024Y-106646132D01*
X205705341Y-106450000D01*
X205686024Y-106253868D01*
X205628814Y-106065273D01*
X205628812Y-106065270D01*
X205628812Y-106065268D01*
X205535916Y-105891473D01*
X205535915Y-105891471D01*
X205535910Y-105891462D01*
X205410883Y-105739117D01*
X205410881Y-105739115D01*
X205404968Y-105734262D01*
X205360047Y-105671566D01*
X205350500Y-105619089D01*
X205350500Y-105398063D01*
X205352396Y-105380883D01*
X205351878Y-105380834D01*
X205352760Y-105371502D01*
X205350500Y-105299596D01*
X205350500Y-105268878D01*
X205349656Y-105262198D01*
X205349104Y-105255191D01*
X205348802Y-105245598D01*
X205347597Y-105207231D01*
X205342224Y-105188737D01*
X205337485Y-105165854D01*
X205335071Y-105146742D01*
X205317404Y-105102120D01*
X205315128Y-105095473D01*
X205301744Y-105049401D01*
X205291945Y-105032833D01*
X205281656Y-105011831D01*
X205274569Y-104993932D01*
X205274568Y-104993929D01*
X205246361Y-104955105D01*
X205242510Y-104949241D01*
X205225889Y-104921138D01*
X205218081Y-104907935D01*
X205204460Y-104894314D01*
X205189278Y-104876537D01*
X205177964Y-104860965D01*
X205177963Y-104860963D01*
X205140995Y-104830380D01*
X205135800Y-104825654D01*
X205008087Y-104697941D01*
X204969523Y-104631146D01*
X204969523Y-104554018D01*
X205008087Y-104487223D01*
X205074882Y-104448659D01*
X205128046Y-104444299D01*
X205282800Y-104459541D01*
X205478932Y-104440224D01*
X205667527Y-104383014D01*
X205841338Y-104290110D01*
X205993683Y-104165083D01*
X206072288Y-104069302D01*
X206134978Y-104024379D01*
X206211734Y-104016819D01*
X206281988Y-104048650D01*
X206326914Y-104111343D01*
X206331387Y-104125264D01*
X206364212Y-104247769D01*
X206371097Y-104273463D01*
X206470965Y-104487630D01*
X206606505Y-104681201D01*
X206773599Y-104848295D01*
X206930349Y-104958053D01*
X206979925Y-105017135D01*
X206993318Y-105093091D01*
X206966939Y-105165568D01*
X206930348Y-105202158D01*
X206773923Y-105311688D01*
X206606891Y-105478720D01*
X206471402Y-105672219D01*
X206371568Y-105886312D01*
X206314364Y-106099799D01*
X206314364Y-106099800D01*
X207211314Y-106099800D01*
X207185507Y-106139956D01*
X207145000Y-106277911D01*
X207145000Y-106421689D01*
X207185507Y-106559644D01*
X207211314Y-106599800D01*
X206314364Y-106599800D01*
X206371568Y-106813289D01*
X206371569Y-106813291D01*
X206471400Y-107027379D01*
X206471406Y-107027388D01*
X206606888Y-107220876D01*
X206773920Y-107387908D01*
X206930348Y-107497440D01*
X206979925Y-107556524D01*
X206993318Y-107632480D01*
X206966939Y-107704957D01*
X206930348Y-107741547D01*
X206773600Y-107851303D01*
X206606507Y-108018396D01*
X206507617Y-108159627D01*
X206470965Y-108211971D01*
X206387852Y-108390206D01*
X206371096Y-108426140D01*
X206309937Y-108654390D01*
X206289341Y-108889800D01*
X206309937Y-109125209D01*
X206365064Y-109330950D01*
X206371097Y-109353463D01*
X206470965Y-109567630D01*
X206606505Y-109761201D01*
X206773599Y-109928295D01*
X206967170Y-110063835D01*
X207181337Y-110163703D01*
X207409592Y-110224863D01*
X207645000Y-110245459D01*
X207880408Y-110224863D01*
X208108663Y-110163703D01*
X208322830Y-110063835D01*
X208516401Y-109928295D01*
X208683495Y-109761201D01*
X208819035Y-109567630D01*
X208918903Y-109353463D01*
X208980063Y-109125208D01*
X209000659Y-108889800D01*
X208980063Y-108654392D01*
X208918903Y-108426137D01*
X208819035Y-108211971D01*
X208683495Y-108018399D01*
X208516401Y-107851305D01*
X208516399Y-107851303D01*
X208359652Y-107741547D01*
X208310075Y-107682464D01*
X208296682Y-107606507D01*
X208323062Y-107534031D01*
X208359652Y-107497440D01*
X208516079Y-107387908D01*
X208683111Y-107220876D01*
X208818593Y-107027388D01*
X208818599Y-107027379D01*
X208918430Y-106813291D01*
X208918431Y-106813289D01*
X208975636Y-106599800D01*
X208078686Y-106599800D01*
X208104493Y-106559644D01*
X208145000Y-106421689D01*
X208145000Y-106277911D01*
X208104493Y-106139956D01*
X208078686Y-106099800D01*
X208953336Y-106099800D01*
X209027836Y-106119762D01*
X209058695Y-106143441D01*
X210905859Y-107990605D01*
X210944423Y-108057400D01*
X210949500Y-108095964D01*
X210949500Y-112814850D01*
X210929538Y-112889350D01*
X210875000Y-112943888D01*
X210800500Y-112963850D01*
X210726000Y-112943888D01*
X210678447Y-112900313D01*
X210639296Y-112844400D01*
X210472202Y-112677306D01*
X210395320Y-112623472D01*
X210278630Y-112541765D01*
X210064463Y-112441897D01*
X210064461Y-112441896D01*
X209836209Y-112380737D01*
X209600800Y-112360141D01*
X209365390Y-112380737D01*
X209137140Y-112441896D01*
X209137139Y-112441896D01*
X209137137Y-112441897D01*
X208922971Y-112541765D01*
X208922968Y-112541766D01*
X208922968Y-112541767D01*
X208729396Y-112677307D01*
X208562306Y-112844397D01*
X208452854Y-113000712D01*
X208393770Y-113050289D01*
X208317814Y-113063682D01*
X208245337Y-113037303D01*
X208208746Y-113000712D01*
X208182935Y-112963850D01*
X208099295Y-112844399D01*
X207932201Y-112677305D01*
X207738630Y-112541765D01*
X207524463Y-112441897D01*
X207524461Y-112441896D01*
X207296209Y-112380737D01*
X207060800Y-112360141D01*
X206825390Y-112380737D01*
X206597140Y-112441896D01*
X206597139Y-112441896D01*
X206597137Y-112441897D01*
X206382971Y-112541765D01*
X206382968Y-112541766D01*
X206382968Y-112541767D01*
X206189396Y-112677307D01*
X206022303Y-112844400D01*
X205912547Y-113001148D01*
X205853464Y-113050725D01*
X205777507Y-113064118D01*
X205705031Y-113037738D01*
X205668440Y-113001148D01*
X205558908Y-112844720D01*
X205391876Y-112677688D01*
X205198388Y-112542206D01*
X205198379Y-112542200D01*
X204984291Y-112442369D01*
X204984289Y-112442368D01*
X204770800Y-112385164D01*
X204770800Y-113280298D01*
X204663115Y-113231120D01*
X204556563Y-113215800D01*
X204485037Y-113215800D01*
X204378485Y-113231120D01*
X204270800Y-113280298D01*
X204270800Y-112385164D01*
X204270799Y-112385164D01*
X204057312Y-112442368D01*
X203843219Y-112542202D01*
X203649716Y-112677694D01*
X203555171Y-112772239D01*
X203488376Y-112810803D01*
X203411248Y-112810803D01*
X203344454Y-112772238D01*
X203310207Y-112718948D01*
X203274598Y-112623472D01*
X203274595Y-112623466D01*
X203188347Y-112508255D01*
X203188344Y-112508252D01*
X203073133Y-112422004D01*
X203073129Y-112422002D01*
X202938282Y-112371708D01*
X202878676Y-112365300D01*
X201082936Y-112365300D01*
X201082911Y-112365302D01*
X201023321Y-112371708D01*
X201023315Y-112371709D01*
X200888470Y-112422002D01*
X200888466Y-112422004D01*
X200773255Y-112508252D01*
X200773252Y-112508255D01*
X200687004Y-112623466D01*
X200687002Y-112623470D01*
X200636708Y-112758317D01*
X200630300Y-112817914D01*
X200630300Y-114613663D01*
X200630302Y-114613688D01*
X200636708Y-114673278D01*
X200636709Y-114673284D01*
X200687002Y-114808129D01*
X200687004Y-114808133D01*
X200773252Y-114923344D01*
X200773255Y-114923347D01*
X200888466Y-115009595D01*
X200888470Y-115009597D01*
X201023317Y-115059891D01*
X201082914Y-115066299D01*
X201082918Y-115066299D01*
X201082927Y-115066300D01*
X201484635Y-115066299D01*
X201559135Y-115086261D01*
X201589994Y-115109940D01*
X202577614Y-116097559D01*
X202588422Y-116111049D01*
X202588823Y-116110718D01*
X202594794Y-116117936D01*
X202647260Y-116167205D01*
X202668969Y-116188914D01*
X202674284Y-116193036D01*
X202679618Y-116197592D01*
X202710173Y-116226284D01*
X202750816Y-116291835D01*
X202753238Y-116368925D01*
X202716791Y-116436898D01*
X202651240Y-116477541D01*
X202608175Y-116483900D01*
X186255300Y-116483900D01*
X186180800Y-116463938D01*
X186126262Y-116409400D01*
X186106300Y-116334900D01*
X186106300Y-76351270D01*
X186126262Y-76276770D01*
X186180800Y-76222232D01*
X186255300Y-76202270D01*
X186329800Y-76222232D01*
G37*
%TD.AperFunction*%
%TA.AperFunction,Conductor*%
G36*
X199378040Y-100812062D02*
G01*
X199432578Y-100866600D01*
X199452540Y-100941100D01*
X199432578Y-101015600D01*
X199408899Y-101046459D01*
X198034234Y-102421122D01*
X198020750Y-102431926D01*
X198021082Y-102432327D01*
X198013859Y-102438302D01*
X197964610Y-102490747D01*
X197942894Y-102512463D01*
X197942880Y-102512479D01*
X197938744Y-102517809D01*
X197934195Y-102523135D01*
X197901351Y-102558111D01*
X197892073Y-102574988D01*
X197879244Y-102594518D01*
X197867438Y-102609739D01*
X197867436Y-102609743D01*
X197848381Y-102653774D01*
X197845294Y-102660076D01*
X197817659Y-102710347D01*
X197815259Y-102709027D01*
X197778229Y-102758879D01*
X197707442Y-102789504D01*
X197685691Y-102791100D01*
X197593648Y-102791100D01*
X197593638Y-102791101D01*
X197579693Y-102792198D01*
X197558178Y-102793890D01*
X197558174Y-102793890D01*
X197558173Y-102793891D01*
X197406410Y-102837982D01*
X197270381Y-102918429D01*
X197270378Y-102918431D01*
X197158631Y-103030178D01*
X197158629Y-103030181D01*
X197078182Y-103166210D01*
X197078182Y-103166211D01*
X197034091Y-103317970D01*
X197034091Y-103317973D01*
X197031300Y-103353437D01*
X197031300Y-104125264D01*
X197031301Y-104792100D01*
X197011339Y-104866600D01*
X196956801Y-104921138D01*
X196882301Y-104941100D01*
X195700582Y-104941100D01*
X195626082Y-104921138D01*
X195595223Y-104897459D01*
X194957716Y-104259952D01*
X194919152Y-104193157D01*
X194919152Y-104116029D01*
X194957716Y-104049234D01*
X195024511Y-104010670D01*
X195163489Y-103973431D01*
X195163491Y-103973430D01*
X195377579Y-103873599D01*
X195377588Y-103873593D01*
X195571076Y-103738111D01*
X195738111Y-103571076D01*
X195873593Y-103377588D01*
X195873599Y-103377579D01*
X195973430Y-103163491D01*
X195973431Y-103163489D01*
X196030636Y-102950000D01*
X195133686Y-102950000D01*
X195159493Y-102909844D01*
X195200000Y-102771889D01*
X195200000Y-102628111D01*
X195159493Y-102490156D01*
X195133686Y-102450000D01*
X196030636Y-102450000D01*
X196030635Y-102449999D01*
X195973431Y-102236512D01*
X195873597Y-102022419D01*
X195738108Y-101828920D01*
X195643560Y-101734372D01*
X195604996Y-101667577D01*
X195604996Y-101590449D01*
X195643560Y-101523654D01*
X195696848Y-101489408D01*
X195792331Y-101453796D01*
X195792331Y-101453795D01*
X195792333Y-101453795D01*
X195861206Y-101402236D01*
X195907546Y-101367546D01*
X195993796Y-101252331D01*
X196007421Y-101215802D01*
X196044091Y-101117482D01*
X196050499Y-101057885D01*
X196050500Y-101057867D01*
X196050500Y-100941100D01*
X196070462Y-100866600D01*
X196125000Y-100812062D01*
X196199500Y-100792100D01*
X199303540Y-100792100D01*
X199378040Y-100812062D01*
G37*
%TD.AperFunction*%
%TA.AperFunction,Conductor*%
G36*
X202530532Y-102462062D02*
G01*
X202585070Y-102516600D01*
X202605032Y-102591100D01*
X202585070Y-102665600D01*
X202564647Y-102693099D01*
X202563860Y-102693936D01*
X202563860Y-102693937D01*
X202556161Y-102702136D01*
X202514611Y-102746381D01*
X202492893Y-102768099D01*
X202492879Y-102768115D01*
X202488743Y-102773445D01*
X202484194Y-102778771D01*
X202451350Y-102813747D01*
X202442077Y-102830616D01*
X202429244Y-102850152D01*
X202417440Y-102865370D01*
X202412667Y-102873442D01*
X202410011Y-102871871D01*
X202372232Y-102919498D01*
X202300508Y-102947862D01*
X202224212Y-102936565D01*
X202201374Y-102923053D01*
X202201287Y-102923201D01*
X202154951Y-102895797D01*
X202100988Y-102840691D01*
X202093078Y-102810541D01*
X202081799Y-102802072D01*
X202049264Y-102811525D01*
X201972152Y-102813140D01*
X201966127Y-102811525D01*
X201905431Y-102793891D01*
X201887695Y-102792495D01*
X201869963Y-102791100D01*
X201869959Y-102791100D01*
X201719433Y-102791100D01*
X201493638Y-102791101D01*
X201479693Y-102792198D01*
X201458178Y-102793890D01*
X201458171Y-102793891D01*
X201449981Y-102796271D01*
X201372870Y-102797884D01*
X201305283Y-102760725D01*
X201265330Y-102694752D01*
X201263717Y-102617641D01*
X201300876Y-102550054D01*
X201303024Y-102547859D01*
X201365144Y-102485740D01*
X201431939Y-102447177D01*
X201470502Y-102442100D01*
X202456032Y-102442100D01*
X202530532Y-102462062D01*
G37*
%TD.AperFunction*%
%TA.AperFunction,Conductor*%
G36*
X207820500Y-100670462D02*
G01*
X207875038Y-100725000D01*
X207895000Y-100799500D01*
X207895000Y-100834298D01*
X207787315Y-100785120D01*
X207680763Y-100769800D01*
X207609237Y-100769800D01*
X207502685Y-100785120D01*
X207395000Y-100834298D01*
X207395000Y-100799500D01*
X207414962Y-100725000D01*
X207469500Y-100670462D01*
X207544000Y-100650500D01*
X207746000Y-100650500D01*
X207820500Y-100670462D01*
G37*
%TD.AperFunction*%
%TA.AperFunction,Conductor*%
G36*
X207895000Y-99200500D02*
G01*
X207875038Y-99275000D01*
X207820500Y-99329538D01*
X207746000Y-99349500D01*
X207544000Y-99349500D01*
X207469500Y-99329538D01*
X207414962Y-99275000D01*
X207395000Y-99200500D01*
X207395000Y-99165301D01*
X207502685Y-99214480D01*
X207609237Y-99229800D01*
X207680763Y-99229800D01*
X207787315Y-99214480D01*
X207895000Y-99165301D01*
X207895000Y-99200500D01*
G37*
%TD.AperFunction*%
%TA.AperFunction,Conductor*%
G36*
X206536397Y-70819962D02*
G01*
X206590935Y-70874500D01*
X206610897Y-70949000D01*
X206590935Y-71023500D01*
X206556425Y-71064175D01*
X206426117Y-71171117D01*
X206321936Y-71298062D01*
X206301088Y-71323465D01*
X206301083Y-71323473D01*
X206208187Y-71497268D01*
X206150976Y-71685865D01*
X206131659Y-71882003D01*
X206132408Y-71889610D01*
X206119842Y-71965707D01*
X206089484Y-72009568D01*
X199114034Y-78985018D01*
X199100550Y-78995822D01*
X199100882Y-78996223D01*
X199093659Y-79002198D01*
X199044410Y-79054643D01*
X199022694Y-79076359D01*
X199022680Y-79076375D01*
X199018544Y-79081705D01*
X199013995Y-79087031D01*
X198981151Y-79122007D01*
X198971873Y-79138884D01*
X198959044Y-79158414D01*
X198947238Y-79173635D01*
X198947236Y-79173639D01*
X198928181Y-79217670D01*
X198925094Y-79223972D01*
X198901974Y-79266029D01*
X198901973Y-79266030D01*
X198897181Y-79284694D01*
X198889611Y-79306803D01*
X198881964Y-79324475D01*
X198874459Y-79371860D01*
X198873036Y-79378734D01*
X198861100Y-79425223D01*
X198861100Y-79425225D01*
X198861100Y-79444478D01*
X198859265Y-79467789D01*
X198856253Y-79486803D01*
X198860769Y-79534580D01*
X198861100Y-79541596D01*
X198861100Y-92235334D01*
X198859203Y-92252512D01*
X198859722Y-92252561D01*
X198857958Y-92271226D01*
X198856151Y-92271055D01*
X198841159Y-92334958D01*
X198788358Y-92391179D01*
X198714520Y-92413467D01*
X198639431Y-92395850D01*
X198604490Y-92369899D01*
X195080741Y-88846150D01*
X195042177Y-88779355D01*
X195037100Y-88740791D01*
X195037100Y-76873275D01*
X195057062Y-76798775D01*
X195080741Y-76767916D01*
X195122985Y-76725672D01*
X195167072Y-76681585D01*
X195255078Y-76536006D01*
X195305686Y-76373596D01*
X195312100Y-76303016D01*
X195312100Y-75639784D01*
X195305686Y-75569204D01*
X195255078Y-75406794D01*
X195167072Y-75261215D01*
X195080741Y-75174884D01*
X195042177Y-75108089D01*
X195037100Y-75069525D01*
X195037100Y-75011677D01*
X195057062Y-74937177D01*
X195057783Y-74935941D01*
X195071944Y-74911998D01*
X195117798Y-74754169D01*
X195120700Y-74717294D01*
X195120700Y-73410906D01*
X195117798Y-73374031D01*
X195071944Y-73216202D01*
X194988281Y-73074735D01*
X194872065Y-72958519D01*
X194738762Y-72879684D01*
X194730600Y-72874857D01*
X194730599Y-72874856D01*
X194730598Y-72874856D01*
X194664479Y-72855646D01*
X194572771Y-72829002D01*
X194560477Y-72828034D01*
X194535894Y-72826100D01*
X194535890Y-72826100D01*
X194319700Y-72826100D01*
X194245200Y-72806138D01*
X194190662Y-72751600D01*
X194170700Y-72677100D01*
X194170700Y-71535910D01*
X194170700Y-71535906D01*
X194167798Y-71499031D01*
X194121944Y-71341202D01*
X194038281Y-71199735D01*
X193922065Y-71083519D01*
X193922060Y-71083516D01*
X193911467Y-71077251D01*
X193857503Y-71022146D01*
X193838321Y-70947441D01*
X193859062Y-70873154D01*
X193914167Y-70819190D01*
X193987313Y-70800000D01*
X206461897Y-70800000D01*
X206536397Y-70819962D01*
G37*
%TD.AperFunction*%
%TA.AperFunction,Conductor*%
G36*
X202909718Y-78814744D02*
G01*
X202948282Y-78881539D01*
X202952697Y-78906077D01*
X202956169Y-78942793D01*
X202956500Y-78949810D01*
X202956500Y-79006525D01*
X202936538Y-79081025D01*
X202912859Y-79111884D01*
X202826527Y-79198215D01*
X202738524Y-79343791D01*
X202738521Y-79343796D01*
X202699884Y-79467789D01*
X202687914Y-79506204D01*
X202681500Y-79576784D01*
X202681500Y-80240016D01*
X202687914Y-80310596D01*
X202738522Y-80473006D01*
X202757000Y-80503572D01*
X202826527Y-80618584D01*
X202912859Y-80704916D01*
X202951423Y-80771711D01*
X202956500Y-80810275D01*
X202956500Y-80987725D01*
X202936538Y-81062225D01*
X202912859Y-81093084D01*
X202851927Y-81154015D01*
X202782400Y-81269027D01*
X202763922Y-81299594D01*
X202713314Y-81462004D01*
X202706900Y-81532584D01*
X202706900Y-82195816D01*
X202713314Y-82266396D01*
X202763922Y-82428806D01*
X202815847Y-82514700D01*
X202850275Y-82571652D01*
X202851928Y-82574385D01*
X202972215Y-82694672D01*
X203005642Y-82714880D01*
X203059072Y-82770504D01*
X203077531Y-82845390D01*
X203056074Y-82919473D01*
X203005646Y-82969902D01*
X202972527Y-82989923D01*
X202852323Y-83110127D01*
X202852323Y-83110128D01*
X202764383Y-83255598D01*
X202764380Y-83255605D01*
X202713809Y-83417890D01*
X202707400Y-83488430D01*
X202707400Y-83570000D01*
X203708400Y-83570000D01*
X203782900Y-83589962D01*
X203837438Y-83644500D01*
X203857400Y-83719000D01*
X203857400Y-84794999D01*
X203863968Y-84794999D01*
X203863969Y-84794998D01*
X203934504Y-84788590D01*
X203934511Y-84788589D01*
X204096795Y-84738019D01*
X204096801Y-84738016D01*
X204242271Y-84650076D01*
X204242272Y-84650076D01*
X204326687Y-84565662D01*
X204393482Y-84527098D01*
X204470610Y-84527098D01*
X204537405Y-84565662D01*
X204622215Y-84650472D01*
X204767794Y-84738478D01*
X204930204Y-84789086D01*
X205000784Y-84795500D01*
X205000791Y-84795500D01*
X205514009Y-84795500D01*
X205514016Y-84795500D01*
X205584596Y-84789086D01*
X205747006Y-84738478D01*
X205892585Y-84650472D01*
X205954430Y-84588626D01*
X206021223Y-84550063D01*
X206098351Y-84550063D01*
X206154312Y-84578807D01*
X206248262Y-84655910D01*
X206248271Y-84655915D01*
X206248273Y-84655916D01*
X206422068Y-84748812D01*
X206422070Y-84748812D01*
X206422073Y-84748814D01*
X206610668Y-84806024D01*
X206806800Y-84825341D01*
X207002932Y-84806024D01*
X207191527Y-84748814D01*
X207365338Y-84655910D01*
X207365339Y-84655908D01*
X207367861Y-84654561D01*
X207442975Y-84637047D01*
X207516782Y-84659436D01*
X207569506Y-84715728D01*
X207587100Y-84785967D01*
X207587100Y-85992242D01*
X207567138Y-86066742D01*
X207543459Y-86097601D01*
X204752434Y-88888625D01*
X204738950Y-88899429D01*
X204739282Y-88899830D01*
X204732059Y-88905805D01*
X204682810Y-88958250D01*
X204661094Y-88979966D01*
X204661080Y-88979982D01*
X204656944Y-88985312D01*
X204652395Y-88990638D01*
X204619551Y-89025614D01*
X204610273Y-89042491D01*
X204597444Y-89062021D01*
X204585638Y-89077242D01*
X204585636Y-89077246D01*
X204566581Y-89121277D01*
X204563494Y-89127579D01*
X204540374Y-89169636D01*
X204540373Y-89169637D01*
X204535581Y-89188301D01*
X204528011Y-89210410D01*
X204520364Y-89228082D01*
X204512859Y-89275467D01*
X204511436Y-89282341D01*
X204499500Y-89328830D01*
X204499500Y-89328832D01*
X204499500Y-89348085D01*
X204497665Y-89371396D01*
X204494653Y-89390410D01*
X204499169Y-89438187D01*
X204499500Y-89445203D01*
X204499500Y-89610300D01*
X204479538Y-89684800D01*
X204425000Y-89739338D01*
X204350500Y-89759300D01*
X202708536Y-89759300D01*
X202708511Y-89759302D01*
X202648921Y-89765708D01*
X202648915Y-89765709D01*
X202514070Y-89816002D01*
X202514066Y-89816004D01*
X202398855Y-89902252D01*
X202398852Y-89902255D01*
X202306217Y-90026000D01*
X202303659Y-90024085D01*
X202262898Y-90066824D01*
X202188891Y-90088543D01*
X202113940Y-90070350D01*
X202062014Y-90020826D01*
X202061783Y-90021000D01*
X202060751Y-90019621D01*
X202058126Y-90017118D01*
X202055597Y-90012737D01*
X201969147Y-89897255D01*
X201969144Y-89897252D01*
X201853933Y-89811004D01*
X201853929Y-89811002D01*
X201719082Y-89760708D01*
X201659485Y-89754300D01*
X201659473Y-89754300D01*
X201561100Y-89754300D01*
X201486600Y-89734338D01*
X201432062Y-89679800D01*
X201412100Y-89605300D01*
X201412100Y-84070000D01*
X202707401Y-84070000D01*
X202707401Y-84151569D01*
X202713809Y-84222104D01*
X202713810Y-84222111D01*
X202764380Y-84384395D01*
X202764383Y-84384401D01*
X202852323Y-84529871D01*
X202852323Y-84529872D01*
X202972527Y-84650076D01*
X203117998Y-84738016D01*
X203118005Y-84738019D01*
X203280290Y-84788590D01*
X203350832Y-84795000D01*
X203357400Y-84794999D01*
X203357400Y-84070000D01*
X202707401Y-84070000D01*
X201412100Y-84070000D01*
X201412100Y-80163363D01*
X201432062Y-80088863D01*
X201455737Y-80058008D01*
X202699004Y-78814741D01*
X202765795Y-78776180D01*
X202842923Y-78776180D01*
X202909718Y-78814744D01*
G37*
%TD.AperFunction*%
%TA.AperFunction,Conductor*%
G36*
X191548283Y-74419045D02*
G01*
X191601712Y-74474670D01*
X191620200Y-74546557D01*
X191620200Y-74717238D01*
X191623100Y-74754093D01*
X191668918Y-74911796D01*
X191668918Y-74911797D01*
X191752516Y-75053154D01*
X191752518Y-75053157D01*
X191868642Y-75169281D01*
X191868648Y-75169285D01*
X191881792Y-75177059D01*
X191935756Y-75232164D01*
X191954938Y-75306869D01*
X191934197Y-75381156D01*
X191933459Y-75382391D01*
X191918581Y-75407002D01*
X191918580Y-75407005D01*
X191868009Y-75569290D01*
X191861600Y-75639830D01*
X191861600Y-75721400D01*
X192862600Y-75721400D01*
X192937100Y-75741362D01*
X192991638Y-75795900D01*
X193011600Y-75870400D01*
X193011600Y-76946399D01*
X193018168Y-76946399D01*
X193018169Y-76946398D01*
X193088704Y-76939990D01*
X193088711Y-76939989D01*
X193250995Y-76889419D01*
X193251001Y-76889416D01*
X193396471Y-76801476D01*
X193396472Y-76801476D01*
X193480887Y-76717062D01*
X193547682Y-76678498D01*
X193624810Y-76678498D01*
X193691605Y-76717062D01*
X193742459Y-76767916D01*
X193781023Y-76834711D01*
X193786100Y-76873275D01*
X193786100Y-88320839D01*
X193766138Y-88395339D01*
X193711600Y-88449877D01*
X193637100Y-88469839D01*
X193562600Y-88449877D01*
X193508062Y-88395339D01*
X193505694Y-88391077D01*
X193456516Y-88299073D01*
X193456515Y-88299071D01*
X193456510Y-88299062D01*
X193331483Y-88146717D01*
X193179138Y-88021690D01*
X193179132Y-88021687D01*
X193179126Y-88021683D01*
X193005331Y-87928787D01*
X192816734Y-87871576D01*
X192660391Y-87856178D01*
X192620600Y-87852259D01*
X192620599Y-87852259D01*
X192580806Y-87856178D01*
X192504709Y-87843613D01*
X192460845Y-87813254D01*
X191219941Y-86572350D01*
X191181377Y-86505555D01*
X191176300Y-86466991D01*
X191176300Y-76797075D01*
X191196262Y-76722575D01*
X191219941Y-76691716D01*
X191256747Y-76654910D01*
X191306272Y-76605385D01*
X191394278Y-76459806D01*
X191444886Y-76297396D01*
X191451300Y-76226816D01*
X191451300Y-76221400D01*
X191861601Y-76221400D01*
X191861601Y-76302969D01*
X191868009Y-76373504D01*
X191868010Y-76373511D01*
X191918580Y-76535795D01*
X191918583Y-76535801D01*
X192006523Y-76681271D01*
X192006523Y-76681272D01*
X192126727Y-76801476D01*
X192272198Y-76889416D01*
X192272205Y-76889419D01*
X192434490Y-76939990D01*
X192505032Y-76946400D01*
X192511600Y-76946399D01*
X192511600Y-76221400D01*
X191861601Y-76221400D01*
X191451300Y-76221400D01*
X191451300Y-75563584D01*
X191444886Y-75493004D01*
X191394278Y-75330594D01*
X191306272Y-75185015D01*
X191194541Y-75073284D01*
X191155977Y-75006489D01*
X191150900Y-74967925D01*
X191150900Y-74765075D01*
X191170862Y-74690575D01*
X191194541Y-74659716D01*
X191229377Y-74624880D01*
X191280872Y-74573385D01*
X191343689Y-74469472D01*
X191399313Y-74416045D01*
X191474200Y-74397587D01*
X191548283Y-74419045D01*
G37*
%TD.AperFunction*%
%TA.AperFunction,Conductor*%
G36*
X192495200Y-72502062D02*
G01*
X192549738Y-72556600D01*
X192569700Y-72631100D01*
X192569700Y-72842290D01*
X192572602Y-72879171D01*
X192586782Y-72927976D01*
X192618456Y-73036998D01*
X192649450Y-73089407D01*
X192670192Y-73163692D01*
X192670200Y-73165253D01*
X192670200Y-73814100D01*
X193220200Y-73814100D01*
X193220200Y-73576100D01*
X193240162Y-73501600D01*
X193294700Y-73447062D01*
X193369200Y-73427100D01*
X193370700Y-73427100D01*
X193445200Y-73447062D01*
X193499738Y-73501600D01*
X193519700Y-73576100D01*
X193519700Y-74717294D01*
X193521634Y-74741877D01*
X193522602Y-74754171D01*
X193540124Y-74814480D01*
X193568455Y-74911996D01*
X193568457Y-74912001D01*
X193573801Y-74921037D01*
X193594541Y-74995325D01*
X193575358Y-75070029D01*
X193521394Y-75125134D01*
X193447106Y-75145874D01*
X193372402Y-75126691D01*
X193368466Y-75124394D01*
X193246296Y-75050540D01*
X193192867Y-74994915D01*
X193174409Y-74920028D01*
X193180296Y-74881457D01*
X193217298Y-74754099D01*
X193217299Y-74754093D01*
X193220200Y-74717238D01*
X193220200Y-74314100D01*
X192319200Y-74314100D01*
X192244700Y-74294138D01*
X192190162Y-74239600D01*
X192170200Y-74165100D01*
X192170200Y-72829302D01*
X192170199Y-72829302D01*
X192167710Y-72829499D01*
X192010003Y-72875318D01*
X192010002Y-72875318D01*
X191868645Y-72958916D01*
X191868642Y-72958918D01*
X191752518Y-73075042D01*
X191752516Y-73075045D01*
X191668918Y-73216402D01*
X191668915Y-73216408D01*
X191649592Y-73282920D01*
X191609637Y-73348892D01*
X191542049Y-73386048D01*
X191464938Y-73384432D01*
X191398966Y-73344477D01*
X191370636Y-73302500D01*
X191368880Y-73298598D01*
X191359402Y-73282920D01*
X191280872Y-73153015D01*
X191160585Y-73032728D01*
X191160584Y-73032727D01*
X191081941Y-72985186D01*
X191015006Y-72944722D01*
X190899273Y-72908659D01*
X190852596Y-72894114D01*
X190845674Y-72893485D01*
X190782016Y-72887700D01*
X190268784Y-72887700D01*
X190207026Y-72893312D01*
X190198203Y-72894114D01*
X190035796Y-72944721D01*
X190035791Y-72944724D01*
X189890215Y-73032727D01*
X189805759Y-73117184D01*
X189738964Y-73155748D01*
X189661836Y-73155748D01*
X189595041Y-73117184D01*
X189510584Y-73032727D01*
X189431941Y-72985186D01*
X189365006Y-72944722D01*
X189228523Y-72902193D01*
X189167493Y-72865299D01*
X189038653Y-72736459D01*
X189000089Y-72669664D01*
X189000089Y-72592536D01*
X189038653Y-72525741D01*
X189105448Y-72487177D01*
X189144012Y-72482100D01*
X192420700Y-72482100D01*
X192495200Y-72502062D01*
G37*
%TD.AperFunction*%
%TD*%
%TA.AperFunction,Conductor*%
%TO.N,GND1*%
G36*
X237875000Y-48670462D02*
G01*
X237929538Y-48725000D01*
X237949500Y-48799500D01*
X237949500Y-56053681D01*
X237938422Y-56095024D01*
X237949500Y-56146318D01*
X237949500Y-57032421D01*
X237929538Y-57106921D01*
X237875000Y-57161459D01*
X237800500Y-57181421D01*
X237726000Y-57161459D01*
X237671462Y-57106921D01*
X237659063Y-57079289D01*
X237649523Y-57050500D01*
X237609814Y-56930666D01*
X237517712Y-56781344D01*
X237517711Y-56781343D01*
X237513156Y-56773958D01*
X237515100Y-56772758D01*
X237489565Y-56713568D01*
X237498516Y-56636961D01*
X237505579Y-56621739D01*
X237578814Y-56484727D01*
X237636024Y-56296132D01*
X237652217Y-56131712D01*
X237663211Y-56102502D01*
X237652217Y-56068285D01*
X237650779Y-56053681D01*
X237636024Y-55903868D01*
X237578814Y-55715273D01*
X237578812Y-55715270D01*
X237578812Y-55715268D01*
X237485916Y-55541473D01*
X237485915Y-55541471D01*
X237485910Y-55541462D01*
X237360883Y-55389117D01*
X237208538Y-55264090D01*
X237208533Y-55264087D01*
X237208530Y-55264085D01*
X237163431Y-55239979D01*
X237107138Y-55187254D01*
X237084750Y-55113447D01*
X237102264Y-55038334D01*
X237139687Y-54994757D01*
X237139654Y-54994724D01*
X237140092Y-54994285D01*
X237144386Y-54989286D01*
X237147191Y-54987186D01*
X237233349Y-54872094D01*
X237233354Y-54872084D01*
X237283598Y-54737377D01*
X237289998Y-54677842D01*
X237290000Y-54677822D01*
X237290000Y-52900000D01*
X236414168Y-52900000D01*
X236421643Y-52885758D01*
X236460000Y-52730138D01*
X236460000Y-52569862D01*
X236421643Y-52414242D01*
X236414168Y-52400000D01*
X237290000Y-52400000D01*
X237290000Y-50622177D01*
X237289998Y-50622157D01*
X237283598Y-50562622D01*
X237233354Y-50427915D01*
X237233349Y-50427905D01*
X237147190Y-50312812D01*
X237147187Y-50312809D01*
X237032094Y-50226650D01*
X237032084Y-50226645D01*
X236897376Y-50176401D01*
X236897378Y-50176401D01*
X236837842Y-50170001D01*
X236837823Y-50170000D01*
X236050000Y-50170000D01*
X236050000Y-52038942D01*
X235959108Y-52004472D01*
X235839919Y-51990000D01*
X235760081Y-51990000D01*
X235640892Y-52004472D01*
X235550000Y-52038942D01*
X235550000Y-50170000D01*
X234762177Y-50170000D01*
X234762157Y-50170001D01*
X234702622Y-50176401D01*
X234567915Y-50226645D01*
X234567905Y-50226650D01*
X234452812Y-50312809D01*
X234452809Y-50312812D01*
X234366650Y-50427905D01*
X234366645Y-50427915D01*
X234316401Y-50562622D01*
X234310001Y-50622157D01*
X234310000Y-50622177D01*
X234310000Y-52400000D01*
X235185832Y-52400000D01*
X235178357Y-52414242D01*
X235140000Y-52569862D01*
X235140000Y-52730138D01*
X235178357Y-52885758D01*
X235185832Y-52900000D01*
X234310000Y-52900000D01*
X234310000Y-54677822D01*
X234310001Y-54677842D01*
X234316401Y-54737377D01*
X234366645Y-54872084D01*
X234366650Y-54872094D01*
X234452809Y-54987187D01*
X234452812Y-54987190D01*
X234567905Y-55073349D01*
X234567915Y-55073354D01*
X234702623Y-55123598D01*
X234702621Y-55123598D01*
X234762157Y-55129998D01*
X234762177Y-55130000D01*
X235550000Y-55130000D01*
X235550000Y-53261057D01*
X235640892Y-53295528D01*
X235760081Y-53310000D01*
X235839919Y-53310000D01*
X235959108Y-53295528D01*
X236050000Y-53261057D01*
X236050000Y-55147501D01*
X236064656Y-55172887D01*
X236064656Y-55250015D01*
X236026092Y-55316810D01*
X236015258Y-55326629D01*
X235939119Y-55389114D01*
X235939117Y-55389117D01*
X235849549Y-55498256D01*
X235814088Y-55541465D01*
X235814083Y-55541473D01*
X235721187Y-55715268D01*
X235663976Y-55903865D01*
X235644659Y-56100000D01*
X235663976Y-56296134D01*
X235706401Y-56435987D01*
X235708925Y-56513074D01*
X235672567Y-56581095D01*
X235607070Y-56621824D01*
X235529983Y-56624348D01*
X235485598Y-56606058D01*
X235419334Y-56565186D01*
X235320139Y-56532316D01*
X235252798Y-56510001D01*
X235235665Y-56508250D01*
X235150009Y-56499500D01*
X235150004Y-56499500D01*
X234524996Y-56499500D01*
X234422202Y-56510001D01*
X234255666Y-56565186D01*
X234106343Y-56657288D01*
X233982288Y-56781343D01*
X233890186Y-56930666D01*
X233835001Y-57097201D01*
X233835001Y-57097203D01*
X233824551Y-57199500D01*
X233824500Y-57199995D01*
X233824500Y-57350500D01*
X233804538Y-57425000D01*
X233750000Y-57479538D01*
X233675500Y-57499500D01*
X233170727Y-57499500D01*
X233096227Y-57479538D01*
X233061314Y-57451642D01*
X233059796Y-57450000D01*
X231799000Y-57450000D01*
X231724500Y-57430038D01*
X231669962Y-57375500D01*
X231650000Y-57301000D01*
X231650000Y-56400000D01*
X232150000Y-56400000D01*
X232150000Y-56950000D01*
X233059796Y-56950000D01*
X233059796Y-56949999D01*
X233059600Y-56947511D01*
X233013781Y-56789803D01*
X233013781Y-56789802D01*
X232930183Y-56648445D01*
X232930181Y-56648442D01*
X232814057Y-56532318D01*
X232814054Y-56532316D01*
X232672697Y-56448718D01*
X232514993Y-56402900D01*
X232478138Y-56400000D01*
X232150000Y-56400000D01*
X231650000Y-56400000D01*
X231599500Y-56400000D01*
X231525000Y-56380038D01*
X231470462Y-56325500D01*
X231450500Y-56251000D01*
X231450500Y-55071515D01*
X231470462Y-54997015D01*
X231525000Y-54942477D01*
X231528584Y-54940473D01*
X231618020Y-54892073D01*
X231797062Y-54752719D01*
X231812943Y-54740359D01*
X231812945Y-54740357D01*
X231812948Y-54740355D01*
X231980245Y-54558621D01*
X232115348Y-54351831D01*
X232214572Y-54125623D01*
X232275210Y-53886169D01*
X232290500Y-53701645D01*
X232290500Y-51598355D01*
X232275210Y-51413831D01*
X232214572Y-51174377D01*
X232115348Y-50948169D01*
X231980245Y-50741379D01*
X231980244Y-50741378D01*
X231980243Y-50741376D01*
X231852815Y-50602953D01*
X231812948Y-50559645D01*
X231812947Y-50559644D01*
X231812945Y-50559642D01*
X231812943Y-50559640D01*
X231618024Y-50407930D01*
X231618023Y-50407929D01*
X231618020Y-50407927D01*
X231618013Y-50407923D01*
X231400784Y-50290364D01*
X231400780Y-50290362D01*
X231167153Y-50210158D01*
X231167152Y-50210157D01*
X231167150Y-50210157D01*
X230923506Y-50169500D01*
X230676494Y-50169500D01*
X230432850Y-50210157D01*
X230432848Y-50210157D01*
X230432846Y-50210158D01*
X230199219Y-50290362D01*
X230199215Y-50290364D01*
X229981986Y-50407923D01*
X229981975Y-50407930D01*
X229787056Y-50559640D01*
X229787054Y-50559642D01*
X229619756Y-50741376D01*
X229484651Y-50948171D01*
X229484649Y-50948174D01*
X229385428Y-51174374D01*
X229324789Y-51413835D01*
X229309500Y-51598360D01*
X229309500Y-53701640D01*
X229324789Y-53886164D01*
X229385428Y-54125625D01*
X229484649Y-54351825D01*
X229484652Y-54351831D01*
X229587046Y-54508556D01*
X229619756Y-54558623D01*
X229787054Y-54740357D01*
X229787056Y-54740359D01*
X229885256Y-54816790D01*
X229981980Y-54892073D01*
X230071416Y-54940473D01*
X230127436Y-54993487D01*
X230149443Y-55067409D01*
X230149500Y-55071515D01*
X230149500Y-55300500D01*
X230129538Y-55375000D01*
X230075000Y-55429538D01*
X230000500Y-55449500D01*
X229046806Y-55449500D01*
X229025734Y-55451158D01*
X229009928Y-55452402D01*
X228852099Y-55498257D01*
X228715992Y-55578751D01*
X228641705Y-55599492D01*
X228640145Y-55599500D01*
X227781164Y-55599500D01*
X227706664Y-55579538D01*
X227675805Y-55555859D01*
X226936736Y-54816790D01*
X226898172Y-54749995D01*
X226898172Y-54672867D01*
X226932473Y-54610516D01*
X226980242Y-54558624D01*
X226980243Y-54558623D01*
X226980245Y-54558621D01*
X227115348Y-54351831D01*
X227214572Y-54125623D01*
X227275210Y-53886169D01*
X227290500Y-53701645D01*
X227290500Y-51598355D01*
X227275210Y-51413831D01*
X227214572Y-51174377D01*
X227115348Y-50948169D01*
X226980245Y-50741379D01*
X226980244Y-50741378D01*
X226980243Y-50741376D01*
X226852815Y-50602953D01*
X226812948Y-50559645D01*
X226812947Y-50559644D01*
X226812945Y-50559642D01*
X226812943Y-50559640D01*
X226618024Y-50407930D01*
X226618023Y-50407929D01*
X226618020Y-50407927D01*
X226618013Y-50407923D01*
X226400784Y-50290364D01*
X226400780Y-50290362D01*
X226167153Y-50210158D01*
X226167152Y-50210157D01*
X226167150Y-50210157D01*
X225923506Y-50169500D01*
X225676494Y-50169500D01*
X225432850Y-50210157D01*
X225432848Y-50210157D01*
X225432846Y-50210158D01*
X225199219Y-50290362D01*
X225199215Y-50290364D01*
X224981986Y-50407923D01*
X224981975Y-50407930D01*
X224787056Y-50559640D01*
X224787054Y-50559642D01*
X224619756Y-50741376D01*
X224484651Y-50948171D01*
X224484649Y-50948174D01*
X224385428Y-51174374D01*
X224324789Y-51413835D01*
X224309500Y-51598360D01*
X224309500Y-53701640D01*
X224324789Y-53886164D01*
X224385428Y-54125625D01*
X224484649Y-54351825D01*
X224484652Y-54351831D01*
X224587046Y-54508556D01*
X224619756Y-54558623D01*
X224787054Y-54740357D01*
X224787056Y-54740359D01*
X224914858Y-54839830D01*
X224961388Y-54901341D01*
X224970929Y-54977877D01*
X224940923Y-55048929D01*
X224879412Y-55095459D01*
X224837947Y-55105694D01*
X224753869Y-55113975D01*
X224565268Y-55171187D01*
X224391473Y-55264083D01*
X224391465Y-55264088D01*
X224391463Y-55264089D01*
X224391462Y-55264090D01*
X224239117Y-55389117D01*
X224149549Y-55498256D01*
X224114088Y-55541465D01*
X224114083Y-55541473D01*
X224021187Y-55715268D01*
X223963976Y-55903865D01*
X223963976Y-55903868D01*
X223950243Y-56043309D01*
X223947783Y-56068285D01*
X223936788Y-56097496D01*
X223947783Y-56131714D01*
X223963976Y-56296134D01*
X224021187Y-56484731D01*
X224114083Y-56658526D01*
X224114086Y-56658531D01*
X224114090Y-56658538D01*
X224128247Y-56675788D01*
X224131417Y-56679651D01*
X224163248Y-56749905D01*
X224155688Y-56826661D01*
X224124940Y-56874352D01*
X224125171Y-56874535D01*
X224123282Y-56876923D01*
X224121604Y-56879527D01*
X224119790Y-56881341D01*
X224027686Y-57030666D01*
X223972501Y-57197201D01*
X223972501Y-57197202D01*
X223972501Y-57197203D01*
X223964656Y-57274000D01*
X223962000Y-57299995D01*
X223962000Y-58300003D01*
X223968710Y-58365690D01*
X223972501Y-58402797D01*
X224027686Y-58569334D01*
X224063972Y-58628163D01*
X224119788Y-58718656D01*
X224245773Y-58844641D01*
X224284337Y-58911436D01*
X224284337Y-58988564D01*
X224245773Y-59055359D01*
X224119788Y-59181343D01*
X224027686Y-59330666D01*
X223972501Y-59497201D01*
X223962000Y-59599995D01*
X223962000Y-60600003D01*
X223965396Y-60633247D01*
X223972501Y-60702797D01*
X224027686Y-60869334D01*
X224117277Y-61014585D01*
X224119788Y-61018656D01*
X224243844Y-61142712D01*
X224282325Y-61166447D01*
X224335254Y-61222547D01*
X224342643Y-61238416D01*
X224357593Y-61276177D01*
X224359866Y-61282818D01*
X224373256Y-61328901D01*
X224373257Y-61328903D01*
X224383058Y-61345476D01*
X224393341Y-61366467D01*
X224400429Y-61384370D01*
X224400432Y-61384375D01*
X224428632Y-61423189D01*
X224432487Y-61429058D01*
X224448236Y-61455687D01*
X224456919Y-61470368D01*
X224456921Y-61470370D01*
X224470533Y-61483982D01*
X224485717Y-61501761D01*
X224497032Y-61517335D01*
X224497034Y-61517337D01*
X224497036Y-61517338D01*
X224497037Y-61517340D01*
X224520471Y-61536726D01*
X224534009Y-61547926D01*
X224539203Y-61552652D01*
X226305859Y-63319308D01*
X226344423Y-63386103D01*
X226349500Y-63424667D01*
X226349500Y-63675500D01*
X226329538Y-63750000D01*
X226275000Y-63804538D01*
X226200500Y-63824500D01*
X224802136Y-63824500D01*
X224802111Y-63824502D01*
X224742521Y-63830908D01*
X224742515Y-63830909D01*
X224607670Y-63881202D01*
X224607666Y-63881204D01*
X224492455Y-63967452D01*
X224492452Y-63967455D01*
X224406204Y-64082666D01*
X224406202Y-64082670D01*
X224355908Y-64217517D01*
X224349500Y-64277114D01*
X224349500Y-66072863D01*
X224349502Y-66072888D01*
X224355908Y-66132478D01*
X224355909Y-66132484D01*
X224406202Y-66267329D01*
X224406204Y-66267333D01*
X224492452Y-66382544D01*
X224492455Y-66382547D01*
X224607666Y-66468795D01*
X224607668Y-66468795D01*
X224607669Y-66468796D01*
X224702633Y-66504215D01*
X224765460Y-66548953D01*
X224797501Y-66619111D01*
X224790170Y-66695890D01*
X224755923Y-66749179D01*
X224661509Y-66843593D01*
X224536025Y-67022804D01*
X224525965Y-67037171D01*
X224426097Y-67251337D01*
X224426096Y-67251340D01*
X224364937Y-67479590D01*
X224344341Y-67715000D01*
X224364937Y-67950409D01*
X224418058Y-68148663D01*
X224426097Y-68178663D01*
X224525965Y-68392830D01*
X224661505Y-68586401D01*
X224828599Y-68753495D01*
X224985349Y-68863253D01*
X225034925Y-68922335D01*
X225048318Y-68998291D01*
X225021939Y-69070768D01*
X224985348Y-69107358D01*
X224828923Y-69216888D01*
X224661891Y-69383920D01*
X224526402Y-69577419D01*
X224426568Y-69791512D01*
X224369364Y-70004999D01*
X224369364Y-70005000D01*
X225266314Y-70005000D01*
X225240507Y-70045156D01*
X225200000Y-70183111D01*
X225200000Y-70326889D01*
X225240507Y-70464844D01*
X225266314Y-70505000D01*
X224369364Y-70505000D01*
X224426568Y-70718489D01*
X224426569Y-70718491D01*
X224526400Y-70932579D01*
X224526406Y-70932588D01*
X224661888Y-71126076D01*
X224828923Y-71293111D01*
X225022411Y-71428593D01*
X225022420Y-71428599D01*
X225236508Y-71528430D01*
X225236513Y-71528432D01*
X225450000Y-71585634D01*
X225450000Y-70690501D01*
X225557685Y-70739680D01*
X225664237Y-70755000D01*
X225735763Y-70755000D01*
X225842315Y-70739680D01*
X225950000Y-70690501D01*
X225950000Y-71585633D01*
X226163486Y-71528432D01*
X226163491Y-71528430D01*
X226377579Y-71428599D01*
X226377582Y-71428597D01*
X226465036Y-71367361D01*
X226537513Y-71340981D01*
X226613469Y-71354374D01*
X226672553Y-71403950D01*
X226698933Y-71476427D01*
X226699500Y-71489414D01*
X226699500Y-72244411D01*
X226679538Y-72318911D01*
X226625000Y-72373449D01*
X226550500Y-72393411D01*
X226499548Y-72382862D01*
X226499400Y-72383372D01*
X226492924Y-72381490D01*
X226491337Y-72381162D01*
X226490404Y-72380758D01*
X226490398Y-72380756D01*
X226405667Y-72356139D01*
X226332571Y-72334902D01*
X226320277Y-72333934D01*
X226295694Y-72332000D01*
X225864306Y-72332000D01*
X225843234Y-72333658D01*
X225827428Y-72334902D01*
X225669599Y-72380757D01*
X225520356Y-72469019D01*
X225446069Y-72489760D01*
X225371364Y-72470579D01*
X225368663Y-72469019D01*
X225220201Y-72381220D01*
X225220196Y-72381218D01*
X225062489Y-72335399D01*
X225060000Y-72335202D01*
X225060000Y-73958500D01*
X225040038Y-74033000D01*
X224985500Y-74087538D01*
X224911000Y-74107500D01*
X224010000Y-74107500D01*
X224010000Y-74798138D01*
X224012900Y-74834993D01*
X224058718Y-74992696D01*
X224058718Y-74992697D01*
X224142316Y-75134054D01*
X224142318Y-75134057D01*
X224253902Y-75245641D01*
X224292466Y-75312436D01*
X224292466Y-75389564D01*
X224253902Y-75456359D01*
X224187107Y-75494923D01*
X224148543Y-75500000D01*
X223799500Y-75500000D01*
X223725000Y-75480038D01*
X223670462Y-75425500D01*
X223650500Y-75351000D01*
X223650500Y-73607500D01*
X224010000Y-73607500D01*
X224560000Y-73607500D01*
X224560000Y-72335202D01*
X224559999Y-72335202D01*
X224557510Y-72335399D01*
X224399803Y-72381218D01*
X224399802Y-72381218D01*
X224258445Y-72464816D01*
X224258442Y-72464818D01*
X224142318Y-72580942D01*
X224142316Y-72580945D01*
X224058718Y-72722302D01*
X224058718Y-72722303D01*
X224012900Y-72880006D01*
X224010000Y-72916862D01*
X224010000Y-73607500D01*
X223650500Y-73607500D01*
X223650500Y-56146318D01*
X223661578Y-56104973D01*
X223650500Y-56053681D01*
X223650500Y-48799500D01*
X223670462Y-48725000D01*
X223725000Y-48670462D01*
X223799500Y-48650500D01*
X237800500Y-48650500D01*
X237875000Y-48670462D01*
G37*
%TD.AperFunction*%
%TA.AperFunction,Conductor*%
G36*
X234468508Y-63544962D02*
G01*
X234523046Y-63599500D01*
X234543008Y-63674000D01*
X234523046Y-63748500D01*
X234499366Y-63779359D01*
X234252433Y-64026290D01*
X234238950Y-64037094D01*
X234239282Y-64037495D01*
X234232059Y-64043470D01*
X234182810Y-64095915D01*
X234161094Y-64117631D01*
X234161080Y-64117647D01*
X234156944Y-64122977D01*
X234152395Y-64128303D01*
X234119551Y-64163279D01*
X234110273Y-64180156D01*
X234097444Y-64199686D01*
X234085638Y-64214907D01*
X234085636Y-64214911D01*
X234066581Y-64258942D01*
X234063494Y-64265244D01*
X234040374Y-64307301D01*
X234040373Y-64307302D01*
X234035581Y-64325966D01*
X234028011Y-64348075D01*
X234020364Y-64365747D01*
X234012859Y-64413132D01*
X234011436Y-64420006D01*
X233999500Y-64466495D01*
X233999500Y-64466497D01*
X233999500Y-64485750D01*
X233997665Y-64509061D01*
X233994653Y-64528075D01*
X233999169Y-64575852D01*
X233999500Y-64582868D01*
X233999500Y-68836734D01*
X233997603Y-68853912D01*
X233998122Y-68853961D01*
X233997239Y-68863297D01*
X233999500Y-68935203D01*
X233999500Y-68965936D01*
X234000346Y-68972633D01*
X234000895Y-68979621D01*
X234002402Y-69027565D01*
X234002402Y-69027568D01*
X234007775Y-69046063D01*
X234012513Y-69068945D01*
X234014927Y-69088052D01*
X234014928Y-69088057D01*
X234032593Y-69132674D01*
X234034866Y-69139315D01*
X234048256Y-69185398D01*
X234048257Y-69185400D01*
X234058058Y-69201973D01*
X234068341Y-69222964D01*
X234075429Y-69240867D01*
X234075432Y-69240872D01*
X234103632Y-69279686D01*
X234107487Y-69285555D01*
X234123236Y-69312184D01*
X234131919Y-69326865D01*
X234131921Y-69326867D01*
X234145533Y-69340479D01*
X234160717Y-69358258D01*
X234172032Y-69373832D01*
X234172034Y-69373834D01*
X234172036Y-69373835D01*
X234172037Y-69373837D01*
X234197233Y-69394681D01*
X234209009Y-69404423D01*
X234214203Y-69409149D01*
X234512194Y-69707140D01*
X234550758Y-69773935D01*
X234550758Y-69851063D01*
X234512194Y-69917858D01*
X234049193Y-70380859D01*
X233982398Y-70419423D01*
X233943835Y-70424500D01*
X233676659Y-70424500D01*
X233577292Y-70434651D01*
X233577291Y-70434651D01*
X233416300Y-70487998D01*
X233271953Y-70577033D01*
X233267004Y-70580947D01*
X233196182Y-70611493D01*
X233119576Y-70602535D01*
X233082182Y-70580946D01*
X233077729Y-70577425D01*
X232933485Y-70488453D01*
X232772603Y-70435143D01*
X232772603Y-70435142D01*
X232673325Y-70425000D01*
X232650000Y-70425000D01*
X232650000Y-72302485D01*
X232674923Y-72345654D01*
X232680000Y-72384218D01*
X232680000Y-73958500D01*
X232660038Y-74033000D01*
X232605500Y-74087538D01*
X232531000Y-74107500D01*
X232329000Y-74107500D01*
X232254500Y-74087538D01*
X232199962Y-74033000D01*
X232180000Y-73958500D01*
X232180000Y-72405014D01*
X232155077Y-72361846D01*
X232150000Y-72323282D01*
X232150000Y-70424999D01*
X232131878Y-70406877D01*
X232125000Y-70405035D01*
X232070462Y-70350497D01*
X232050500Y-70275997D01*
X232050500Y-69530910D01*
X232070462Y-69456410D01*
X232104975Y-69415732D01*
X232107836Y-69413383D01*
X232110883Y-69410883D01*
X232235910Y-69258538D01*
X232305588Y-69128179D01*
X232328812Y-69084731D01*
X232328812Y-69084730D01*
X232328814Y-69084727D01*
X232386024Y-68896132D01*
X232405341Y-68700000D01*
X232386024Y-68503868D01*
X232328814Y-68315273D01*
X232328812Y-68315270D01*
X232328812Y-68315268D01*
X232235916Y-68141473D01*
X232235915Y-68141471D01*
X232235910Y-68141462D01*
X232110883Y-67989117D01*
X231958538Y-67864090D01*
X231958532Y-67864087D01*
X231958526Y-67864083D01*
X231784731Y-67771187D01*
X231596134Y-67713976D01*
X231400000Y-67694659D01*
X231203865Y-67713976D01*
X231015268Y-67771187D01*
X230841473Y-67864083D01*
X230841465Y-67864088D01*
X230841463Y-67864089D01*
X230841462Y-67864090D01*
X230689117Y-67989117D01*
X230583577Y-68117718D01*
X230564088Y-68141465D01*
X230564083Y-68141473D01*
X230471187Y-68315268D01*
X230413976Y-68503865D01*
X230394659Y-68700000D01*
X230413976Y-68896134D01*
X230471187Y-69084731D01*
X230564083Y-69258526D01*
X230564087Y-69258532D01*
X230564090Y-69258538D01*
X230689117Y-69410883D01*
X230689119Y-69410885D01*
X230695025Y-69415732D01*
X230739950Y-69478425D01*
X230749500Y-69530910D01*
X230749500Y-70637842D01*
X230729538Y-70712342D01*
X230675000Y-70766880D01*
X230600500Y-70786842D01*
X230526000Y-70766880D01*
X230505976Y-70753021D01*
X230476757Y-70729042D01*
X230458538Y-70714090D01*
X230458531Y-70714086D01*
X230458526Y-70714083D01*
X230284731Y-70621187D01*
X230096134Y-70563976D01*
X229900000Y-70544659D01*
X229703865Y-70563976D01*
X229515268Y-70621187D01*
X229341473Y-70714083D01*
X229341465Y-70714088D01*
X229341463Y-70714089D01*
X229341462Y-70714090D01*
X229189117Y-70839117D01*
X229064469Y-70991001D01*
X229064088Y-70991465D01*
X229064083Y-70991473D01*
X228971187Y-71165268D01*
X228913976Y-71353865D01*
X228894659Y-71550000D01*
X228913976Y-71746134D01*
X228971187Y-71934731D01*
X229064083Y-72108526D01*
X229064085Y-72108530D01*
X229064090Y-72108538D01*
X229064095Y-72108544D01*
X229068153Y-72114617D01*
X229066726Y-72115570D01*
X229094692Y-72177296D01*
X229087129Y-72254052D01*
X229042202Y-72316744D01*
X228971948Y-72348574D01*
X228906111Y-72344647D01*
X228872571Y-72334902D01*
X228860277Y-72333934D01*
X228835694Y-72332000D01*
X228404306Y-72332000D01*
X228383234Y-72333658D01*
X228367428Y-72334902D01*
X228209595Y-72380758D01*
X228208663Y-72381162D01*
X228207735Y-72381298D01*
X228200600Y-72383372D01*
X228200315Y-72382393D01*
X228132361Y-72392422D01*
X228060652Y-72364023D01*
X228012749Y-72303574D01*
X228000500Y-72244411D01*
X228000500Y-70531163D01*
X228020462Y-70456663D01*
X228044137Y-70425808D01*
X228722431Y-69747513D01*
X228789224Y-69708951D01*
X228842395Y-69704592D01*
X228843027Y-69704654D01*
X228850000Y-69705341D01*
X229046132Y-69686024D01*
X229234727Y-69628814D01*
X229408538Y-69535910D01*
X229560883Y-69410883D01*
X229685910Y-69258538D01*
X229755588Y-69128179D01*
X229778812Y-69084731D01*
X229778812Y-69084730D01*
X229778814Y-69084727D01*
X229836024Y-68896132D01*
X229855341Y-68700000D01*
X229836024Y-68503868D01*
X229778814Y-68315273D01*
X229778812Y-68315270D01*
X229778812Y-68315268D01*
X229699089Y-68166117D01*
X229681575Y-68091004D01*
X229703964Y-68017197D01*
X229725141Y-67990516D01*
X229730470Y-67985187D01*
X229730470Y-67985186D01*
X229730472Y-67985185D01*
X229818478Y-67839606D01*
X229869086Y-67677196D01*
X229875500Y-67606616D01*
X229875500Y-67093384D01*
X229869086Y-67022804D01*
X229818478Y-66860394D01*
X229730472Y-66714815D01*
X229646016Y-66630359D01*
X229607452Y-66563564D01*
X229607452Y-66486436D01*
X229646016Y-66419641D01*
X229684857Y-66380800D01*
X229730472Y-66335185D01*
X229818478Y-66189606D01*
X229869086Y-66027196D01*
X229875500Y-65956616D01*
X229875500Y-65443384D01*
X229869086Y-65372804D01*
X229818478Y-65210394D01*
X229730472Y-65064815D01*
X229610185Y-64944528D01*
X229610181Y-64944524D01*
X229607599Y-64942501D01*
X229605910Y-64940253D01*
X229603812Y-64938155D01*
X229604109Y-64937857D01*
X229561270Y-64880838D01*
X229550500Y-64825218D01*
X229550500Y-63738262D01*
X229552396Y-63721082D01*
X229551878Y-63721033D01*
X229552759Y-63711707D01*
X229552760Y-63711703D01*
X229551722Y-63678678D01*
X229569335Y-63603589D01*
X229622133Y-63547366D01*
X229695970Y-63525073D01*
X229700649Y-63525000D01*
X234394008Y-63525000D01*
X234468508Y-63544962D01*
G37*
%TD.AperFunction*%
%TD*%
%TA.AperFunction,Conductor*%
%TO.N,GND*%
G36*
X186329800Y-76222232D02*
G01*
X186384338Y-76276770D01*
X186386706Y-76281032D01*
X186438283Y-76377527D01*
X186438287Y-76377533D01*
X186438290Y-76377538D01*
X186563317Y-76529883D01*
X186715662Y-76654910D01*
X186715671Y-76654915D01*
X186715673Y-76654916D01*
X186889468Y-76747812D01*
X186889470Y-76747812D01*
X186889473Y-76747814D01*
X187078068Y-76805024D01*
X187274200Y-76824341D01*
X187470332Y-76805024D01*
X187658927Y-76747814D01*
X187832738Y-76654910D01*
X187928799Y-76576074D01*
X187999046Y-76544245D01*
X188075803Y-76551805D01*
X188138497Y-76596729D01*
X188140604Y-76599357D01*
X188145324Y-76605381D01*
X188145327Y-76605384D01*
X188145328Y-76605385D01*
X188265615Y-76725672D01*
X188411194Y-76813678D01*
X188573604Y-76864286D01*
X188644184Y-76870700D01*
X188644191Y-76870700D01*
X189157409Y-76870700D01*
X189157416Y-76870700D01*
X189227996Y-76864286D01*
X189390406Y-76813678D01*
X189535985Y-76725672D01*
X189620441Y-76641216D01*
X189687236Y-76602652D01*
X189764364Y-76602652D01*
X189831159Y-76641216D01*
X189881659Y-76691716D01*
X189920223Y-76758511D01*
X189925300Y-76797075D01*
X189925300Y-86702295D01*
X189923447Y-86719080D01*
X189924009Y-86719134D01*
X189923126Y-86728470D01*
X189925300Y-86797614D01*
X189925300Y-86827155D01*
X189926096Y-86833457D01*
X189926645Y-86840445D01*
X189928090Y-86886420D01*
X189928092Y-86886434D01*
X189933131Y-86903778D01*
X189937872Y-86926670D01*
X189940135Y-86944589D01*
X189940137Y-86944596D01*
X189957073Y-86987370D01*
X189959347Y-86994012D01*
X189972182Y-87038190D01*
X189981378Y-87053740D01*
X189991661Y-87074730D01*
X189998314Y-87091532D01*
X190014871Y-87114321D01*
X190025358Y-87128756D01*
X190029210Y-87134620D01*
X190052630Y-87174220D01*
X190063449Y-87185039D01*
X190065406Y-87186996D01*
X190080586Y-87204770D01*
X190091206Y-87219387D01*
X190126656Y-87248714D01*
X190131844Y-87253435D01*
X191576254Y-88697845D01*
X191614818Y-88764640D01*
X191619178Y-88817806D01*
X191615259Y-88857599D01*
X191634576Y-89053734D01*
X191691787Y-89242331D01*
X191784683Y-89416126D01*
X191784684Y-89416127D01*
X191784690Y-89416138D01*
X191909717Y-89568483D01*
X192062062Y-89693510D01*
X192062071Y-89693515D01*
X192062073Y-89693516D01*
X192235868Y-89786412D01*
X192235870Y-89786412D01*
X192235873Y-89786414D01*
X192424468Y-89843624D01*
X192620600Y-89862941D01*
X192816732Y-89843624D01*
X193005327Y-89786414D01*
X193008091Y-89784937D01*
X193065408Y-89754300D01*
X193179138Y-89693510D01*
X193331483Y-89568483D01*
X193456510Y-89416138D01*
X193456517Y-89416126D01*
X193547579Y-89245760D01*
X193600302Y-89189467D01*
X193674109Y-89167078D01*
X193749223Y-89184592D01*
X193805516Y-89237315D01*
X193822068Y-89274426D01*
X193832982Y-89311990D01*
X193842178Y-89327540D01*
X193852461Y-89348530D01*
X193859114Y-89365332D01*
X193863520Y-89371396D01*
X193886158Y-89402556D01*
X193890010Y-89408420D01*
X193913430Y-89448020D01*
X193926206Y-89460796D01*
X193941386Y-89478570D01*
X193952006Y-89493187D01*
X193987456Y-89522514D01*
X193992644Y-89527235D01*
X199410551Y-94945141D01*
X199449115Y-95011936D01*
X199449115Y-95089064D01*
X199410551Y-95155859D01*
X199343756Y-95194423D01*
X199305192Y-95199500D01*
X196930910Y-95199500D01*
X196856410Y-95179538D01*
X196815732Y-95145025D01*
X196810885Y-95139119D01*
X196810883Y-95139117D01*
X196658538Y-95014090D01*
X196658532Y-95014087D01*
X196658526Y-95014083D01*
X196484731Y-94921187D01*
X196296134Y-94863976D01*
X196100000Y-94844659D01*
X195903865Y-94863976D01*
X195715268Y-94921187D01*
X195541473Y-95014083D01*
X195541465Y-95014088D01*
X195541463Y-95014089D01*
X195541462Y-95014090D01*
X195389117Y-95139117D01*
X195264088Y-95291465D01*
X195264083Y-95291473D01*
X195171187Y-95465268D01*
X195113976Y-95653865D01*
X195094659Y-95850000D01*
X195108275Y-95988253D01*
X195095710Y-96064350D01*
X195046780Y-96123971D01*
X194974595Y-96151139D01*
X194898498Y-96138574D01*
X194854633Y-96108215D01*
X193594141Y-94847723D01*
X193555577Y-94780928D01*
X193550500Y-94742364D01*
X193550500Y-91588262D01*
X193552396Y-91571082D01*
X193551878Y-91571033D01*
X193552760Y-91561701D01*
X193550500Y-91489796D01*
X193550500Y-91459078D01*
X193549656Y-91452398D01*
X193549104Y-91445391D01*
X193548802Y-91435798D01*
X193547597Y-91397431D01*
X193542224Y-91378937D01*
X193537485Y-91356054D01*
X193535071Y-91336942D01*
X193517402Y-91292315D01*
X193515129Y-91285675D01*
X193501744Y-91239601D01*
X193491939Y-91223022D01*
X193481653Y-91202024D01*
X193474570Y-91184133D01*
X193474565Y-91184124D01*
X193446359Y-91145301D01*
X193442504Y-91139432D01*
X193418085Y-91098141D01*
X193418083Y-91098139D01*
X193418081Y-91098135D01*
X193404460Y-91084514D01*
X193389278Y-91066737D01*
X193377964Y-91051165D01*
X193377963Y-91051163D01*
X193340995Y-91020580D01*
X193335800Y-91015854D01*
X193042384Y-90722438D01*
X193031579Y-90708951D01*
X193031178Y-90709284D01*
X193025205Y-90702065D01*
X193025202Y-90702060D01*
X192972755Y-90652809D01*
X192951035Y-90631089D01*
X192945710Y-90626958D01*
X192940372Y-90622398D01*
X192905400Y-90589557D01*
X192905396Y-90589554D01*
X192905393Y-90589552D01*
X192888515Y-90580273D01*
X192868984Y-90567444D01*
X192853764Y-90555638D01*
X192809720Y-90536578D01*
X192803423Y-90533493D01*
X192761372Y-90510375D01*
X192761369Y-90510373D01*
X192755697Y-90508917D01*
X192742704Y-90505580D01*
X192720598Y-90498012D01*
X192702926Y-90490365D01*
X192702923Y-90490364D01*
X192702921Y-90490364D01*
X192655540Y-90482859D01*
X192648666Y-90481435D01*
X192609896Y-90471482D01*
X192602177Y-90469500D01*
X192602176Y-90469500D01*
X192582922Y-90469500D01*
X192559611Y-90467665D01*
X192540594Y-90464652D01*
X192492819Y-90469169D01*
X192485803Y-90469500D01*
X191470736Y-90469500D01*
X191396236Y-90449538D01*
X191348682Y-90405963D01*
X191347365Y-90404082D01*
X191238495Y-90248599D01*
X191071401Y-90081505D01*
X190877830Y-89945965D01*
X190663663Y-89846097D01*
X190663661Y-89846096D01*
X190435409Y-89784937D01*
X190200000Y-89764341D01*
X189964590Y-89784937D01*
X189736340Y-89846096D01*
X189736339Y-89846096D01*
X189736337Y-89846097D01*
X189522171Y-89945965D01*
X189522168Y-89945966D01*
X189522168Y-89945967D01*
X189328596Y-90081507D01*
X189161507Y-90248596D01*
X189161505Y-90248599D01*
X189025965Y-90442171D01*
X188926097Y-90656337D01*
X188926096Y-90656340D01*
X188864937Y-90884590D01*
X188844341Y-91120000D01*
X188864937Y-91355409D01*
X188922921Y-91571813D01*
X188926097Y-91583663D01*
X189025965Y-91797830D01*
X189161505Y-91991401D01*
X189328599Y-92158495D01*
X189484913Y-92267947D01*
X189534489Y-92327030D01*
X189547882Y-92402986D01*
X189521503Y-92475463D01*
X189484912Y-92512054D01*
X189328597Y-92621506D01*
X189161507Y-92788596D01*
X189144961Y-92812227D01*
X189025965Y-92982171D01*
X188930852Y-93186140D01*
X188926096Y-93196340D01*
X188864937Y-93424590D01*
X188844341Y-93660000D01*
X188864937Y-93895409D01*
X188923363Y-94113463D01*
X188926097Y-94123663D01*
X189025965Y-94337830D01*
X189161505Y-94531401D01*
X189328599Y-94698495D01*
X189484913Y-94807947D01*
X189534489Y-94867030D01*
X189547882Y-94942986D01*
X189521503Y-95015463D01*
X189484912Y-95052054D01*
X189328597Y-95161506D01*
X189161507Y-95328596D01*
X189161505Y-95328599D01*
X189025965Y-95522171D01*
X188930852Y-95726140D01*
X188926096Y-95736340D01*
X188864937Y-95964590D01*
X188844341Y-96200000D01*
X188864937Y-96435409D01*
X188909172Y-96600500D01*
X188926097Y-96663663D01*
X189025965Y-96877830D01*
X189161505Y-97071401D01*
X189328599Y-97238495D01*
X189484913Y-97347947D01*
X189534489Y-97407030D01*
X189547882Y-97482986D01*
X189521503Y-97555463D01*
X189484912Y-97592054D01*
X189328597Y-97701506D01*
X189161507Y-97868596D01*
X189069848Y-97999500D01*
X189025965Y-98062171D01*
X188977909Y-98165227D01*
X188926096Y-98276340D01*
X188864937Y-98504590D01*
X188844341Y-98740000D01*
X188864937Y-98975409D01*
X188925789Y-99202517D01*
X188926097Y-99203663D01*
X189025965Y-99417830D01*
X189161505Y-99611401D01*
X189328599Y-99778495D01*
X189484913Y-99887947D01*
X189534489Y-99947030D01*
X189547882Y-100022986D01*
X189521503Y-100095463D01*
X189484912Y-100132054D01*
X189328597Y-100241506D01*
X189161507Y-100408596D01*
X189161505Y-100408599D01*
X189025965Y-100602171D01*
X188926097Y-100816337D01*
X188926096Y-100816340D01*
X188864937Y-101044590D01*
X188844341Y-101280000D01*
X188864937Y-101515409D01*
X188923607Y-101734372D01*
X188926097Y-101743663D01*
X189025965Y-101957830D01*
X189161505Y-102151401D01*
X189328599Y-102318495D01*
X189484913Y-102427947D01*
X189534489Y-102487030D01*
X189547882Y-102562986D01*
X189521503Y-102635463D01*
X189484912Y-102672054D01*
X189328597Y-102781506D01*
X189161507Y-102948596D01*
X189105779Y-103028185D01*
X189025965Y-103142171D01*
X188927448Y-103353440D01*
X188926096Y-103356340D01*
X188864937Y-103584590D01*
X188844341Y-103820000D01*
X188864937Y-104055409D01*
X188923363Y-104273463D01*
X188926097Y-104283663D01*
X189025965Y-104497830D01*
X189161505Y-104691401D01*
X189328599Y-104858495D01*
X189484913Y-104967947D01*
X189534489Y-105027030D01*
X189547882Y-105102986D01*
X189521503Y-105175463D01*
X189484912Y-105212054D01*
X189328597Y-105321506D01*
X189161507Y-105488596D01*
X189161505Y-105488599D01*
X189025965Y-105682171D01*
X188926097Y-105896337D01*
X188926096Y-105896340D01*
X188864937Y-106124590D01*
X188844341Y-106360000D01*
X188864937Y-106595409D01*
X188923317Y-106813291D01*
X188926097Y-106823663D01*
X189025965Y-107037830D01*
X189154136Y-107220876D01*
X189161506Y-107231402D01*
X189256311Y-107326207D01*
X189294875Y-107393002D01*
X189294875Y-107470130D01*
X189256311Y-107536925D01*
X189203024Y-107571171D01*
X189107911Y-107606647D01*
X189107905Y-107606650D01*
X188992812Y-107692809D01*
X188992809Y-107692812D01*
X188906650Y-107807905D01*
X188906645Y-107807915D01*
X188856401Y-107942622D01*
X188850001Y-108002157D01*
X188850000Y-108002177D01*
X188850000Y-108650000D01*
X189766314Y-108650000D01*
X189740507Y-108690156D01*
X189700000Y-108828111D01*
X189700000Y-108971889D01*
X189740507Y-109109844D01*
X189766314Y-109150000D01*
X188850000Y-109150000D01*
X188850000Y-109797822D01*
X188850001Y-109797842D01*
X188856401Y-109857377D01*
X188906645Y-109992084D01*
X188906650Y-109992094D01*
X188992809Y-110107187D01*
X188992812Y-110107190D01*
X189107905Y-110193349D01*
X189107915Y-110193354D01*
X189242623Y-110243598D01*
X189242621Y-110243598D01*
X189302157Y-110249998D01*
X189302177Y-110250000D01*
X189950000Y-110250000D01*
X189950000Y-109335501D01*
X190057685Y-109384680D01*
X190164237Y-109400000D01*
X190235763Y-109400000D01*
X190342315Y-109384680D01*
X190450000Y-109335501D01*
X190450000Y-110250000D01*
X191097823Y-110250000D01*
X191097842Y-110249998D01*
X191157377Y-110243598D01*
X191292084Y-110193354D01*
X191292094Y-110193349D01*
X191407187Y-110107190D01*
X191407190Y-110107187D01*
X191493349Y-109992094D01*
X191493354Y-109992084D01*
X191543598Y-109857377D01*
X191549998Y-109797842D01*
X191550000Y-109797822D01*
X191550000Y-109150000D01*
X190633686Y-109150000D01*
X190659493Y-109109844D01*
X190700000Y-108971889D01*
X190700000Y-108828111D01*
X190659493Y-108690156D01*
X190633686Y-108650000D01*
X191550000Y-108650000D01*
X191550000Y-108002177D01*
X191549998Y-108002157D01*
X191543598Y-107942622D01*
X191493354Y-107807915D01*
X191493349Y-107807905D01*
X191407190Y-107692812D01*
X191407187Y-107692809D01*
X191292094Y-107606650D01*
X191292086Y-107606646D01*
X191196976Y-107571171D01*
X191134149Y-107526432D01*
X191102110Y-107456274D01*
X191109442Y-107379495D01*
X191143689Y-107326207D01*
X191238490Y-107231406D01*
X191238495Y-107231401D01*
X191374035Y-107037830D01*
X191473903Y-106823663D01*
X191535063Y-106595408D01*
X191549080Y-106435189D01*
X191575459Y-106362714D01*
X191634543Y-106313137D01*
X191710499Y-106299744D01*
X191782976Y-106326123D01*
X191802872Y-106342818D01*
X193407615Y-107947561D01*
X193418420Y-107961047D01*
X193418821Y-107960716D01*
X193424795Y-107967937D01*
X193424797Y-107967939D01*
X193424798Y-107967940D01*
X193461257Y-108002177D01*
X193477243Y-108017189D01*
X193498967Y-108038913D01*
X193498975Y-108038919D01*
X193504291Y-108043043D01*
X193509629Y-108047602D01*
X193544607Y-108080448D01*
X193557010Y-108087266D01*
X193561475Y-108089721D01*
X193581022Y-108102561D01*
X193596234Y-108114361D01*
X193596237Y-108114363D01*
X193627512Y-108127897D01*
X193640273Y-108133419D01*
X193646569Y-108136502D01*
X193688632Y-108159627D01*
X193707275Y-108164413D01*
X193729406Y-108171990D01*
X193747071Y-108179635D01*
X193747072Y-108179635D01*
X193747074Y-108179636D01*
X193771171Y-108183452D01*
X193794465Y-108187142D01*
X193801343Y-108188566D01*
X193816463Y-108192448D01*
X193847823Y-108200500D01*
X193867079Y-108200500D01*
X193890386Y-108202334D01*
X193909405Y-108205347D01*
X193943555Y-108202118D01*
X193957184Y-108200831D01*
X193964199Y-108200500D01*
X199269090Y-108200500D01*
X199343590Y-108220462D01*
X199384268Y-108254975D01*
X199389114Y-108260880D01*
X199389119Y-108260885D01*
X199495025Y-108347800D01*
X199539950Y-108410493D01*
X199549500Y-108462978D01*
X199549500Y-109011734D01*
X199547603Y-109028912D01*
X199548122Y-109028961D01*
X199547239Y-109038297D01*
X199549500Y-109110203D01*
X199549500Y-109140936D01*
X199550346Y-109147633D01*
X199550895Y-109154621D01*
X199552402Y-109202565D01*
X199552402Y-109202568D01*
X199557775Y-109221063D01*
X199562513Y-109243945D01*
X199564927Y-109263052D01*
X199564928Y-109263057D01*
X199582593Y-109307674D01*
X199584866Y-109314315D01*
X199598256Y-109360398D01*
X199598257Y-109360400D01*
X199608058Y-109376973D01*
X199618341Y-109397964D01*
X199625429Y-109415867D01*
X199625432Y-109415872D01*
X199653632Y-109454686D01*
X199657487Y-109460555D01*
X199673236Y-109487184D01*
X199681919Y-109501865D01*
X199681921Y-109501867D01*
X199695533Y-109515479D01*
X199710717Y-109533258D01*
X199722032Y-109548832D01*
X199722034Y-109548834D01*
X199722036Y-109548835D01*
X199722037Y-109548837D01*
X199744754Y-109567630D01*
X199759009Y-109579423D01*
X199764203Y-109584149D01*
X200236589Y-110056535D01*
X200254464Y-110078143D01*
X200258171Y-110083599D01*
X200302718Y-110122872D01*
X200306130Y-110126076D01*
X200558730Y-110378676D01*
X200597294Y-110445471D01*
X200601600Y-110468893D01*
X200609651Y-110547708D01*
X200662997Y-110708697D01*
X200752032Y-110853044D01*
X200871956Y-110972968D01*
X201016303Y-111062003D01*
X201177292Y-111115349D01*
X201276655Y-111125500D01*
X201823344Y-111125499D01*
X201922708Y-111115349D01*
X202083697Y-111062003D01*
X202228044Y-110972968D01*
X202228050Y-110972961D01*
X202232984Y-110969061D01*
X202303803Y-110938508D01*
X202380410Y-110947459D01*
X202417818Y-110969055D01*
X202422264Y-110972570D01*
X202566514Y-111061546D01*
X202727392Y-111114855D01*
X202826689Y-111124999D01*
X202849999Y-111124998D01*
X202850000Y-111124998D01*
X202850000Y-110400000D01*
X203350000Y-110400000D01*
X203350000Y-111124999D01*
X203373310Y-111124999D01*
X203472606Y-111114855D01*
X203472609Y-111114855D01*
X203633485Y-111061546D01*
X203777732Y-110972572D01*
X203897572Y-110852732D01*
X203986546Y-110708485D01*
X204039856Y-110547603D01*
X204039857Y-110547603D01*
X204049999Y-110448325D01*
X204050000Y-110448315D01*
X204050000Y-110400000D01*
X203350000Y-110400000D01*
X202850000Y-110400000D01*
X202850000Y-109175000D01*
X203350000Y-109175000D01*
X203350000Y-109900000D01*
X204049999Y-109900000D01*
X204049999Y-109851690D01*
X204039855Y-109752393D01*
X204039855Y-109752390D01*
X203986546Y-109591514D01*
X203897572Y-109447267D01*
X203777732Y-109327427D01*
X203633485Y-109238453D01*
X203472603Y-109185143D01*
X203472603Y-109185142D01*
X203373325Y-109175000D01*
X203350000Y-109175000D01*
X202850000Y-109175000D01*
X202850000Y-109174999D01*
X202826691Y-109175000D01*
X202826690Y-109175000D01*
X202727393Y-109185144D01*
X202727390Y-109185144D01*
X202566514Y-109238453D01*
X202422267Y-109327427D01*
X202417812Y-109330950D01*
X202346989Y-109361493D01*
X202270383Y-109352534D01*
X202232990Y-109330943D01*
X202228047Y-109327035D01*
X202228044Y-109327032D01*
X202093340Y-109243945D01*
X202083699Y-109237998D01*
X202083698Y-109237997D01*
X202083697Y-109237997D01*
X202032593Y-109221063D01*
X201964042Y-109198347D01*
X201899602Y-109155964D01*
X201864988Y-109087039D01*
X201869473Y-109010042D01*
X201911856Y-108945602D01*
X201967655Y-108914327D01*
X202084727Y-108878814D01*
X202258538Y-108785910D01*
X202410883Y-108660883D01*
X202535910Y-108508538D01*
X202628814Y-108334727D01*
X202686024Y-108146132D01*
X202705341Y-107950000D01*
X202686024Y-107753868D01*
X202668819Y-107697154D01*
X202666296Y-107620070D01*
X202702653Y-107552049D01*
X202768150Y-107511319D01*
X202826548Y-107505675D01*
X202933481Y-107516599D01*
X202956799Y-107516598D01*
X202956800Y-107516598D01*
X202956800Y-106440600D01*
X202976762Y-106366100D01*
X203031300Y-106311562D01*
X203105800Y-106291600D01*
X203307800Y-106291600D01*
X203382300Y-106311562D01*
X203436838Y-106366100D01*
X203456800Y-106440600D01*
X203456800Y-107516599D01*
X203480110Y-107516599D01*
X203579406Y-107506455D01*
X203579409Y-107506455D01*
X203740285Y-107453146D01*
X203884532Y-107364172D01*
X203947892Y-107300812D01*
X204014687Y-107262247D01*
X204091815Y-107262247D01*
X204136041Y-107282287D01*
X204141457Y-107285906D01*
X204141462Y-107285910D01*
X204141467Y-107285912D01*
X204141469Y-107285914D01*
X204315268Y-107378812D01*
X204315270Y-107378812D01*
X204315273Y-107378814D01*
X204503868Y-107436024D01*
X204700000Y-107455341D01*
X204896132Y-107436024D01*
X205084727Y-107378814D01*
X205114435Y-107362935D01*
X205155423Y-107341026D01*
X205258538Y-107285910D01*
X205410883Y-107160883D01*
X205535910Y-107008538D01*
X205617519Y-106855859D01*
X205628812Y-106834731D01*
X205628812Y-106834730D01*
X205628814Y-106834727D01*
X205686024Y-106646132D01*
X205705341Y-106450000D01*
X205686024Y-106253868D01*
X205628814Y-106065273D01*
X205628812Y-106065270D01*
X205628812Y-106065268D01*
X205535916Y-105891473D01*
X205535915Y-105891471D01*
X205535910Y-105891462D01*
X205410883Y-105739117D01*
X205410881Y-105739115D01*
X205404968Y-105734262D01*
X205360047Y-105671566D01*
X205350500Y-105619089D01*
X205350500Y-105398063D01*
X205352396Y-105380883D01*
X205351878Y-105380834D01*
X205352760Y-105371502D01*
X205350500Y-105299596D01*
X205350500Y-105268878D01*
X205349656Y-105262198D01*
X205349104Y-105255191D01*
X205348802Y-105245598D01*
X205347597Y-105207231D01*
X205342224Y-105188737D01*
X205337485Y-105165854D01*
X205335071Y-105146742D01*
X205317404Y-105102120D01*
X205315128Y-105095473D01*
X205301744Y-105049401D01*
X205291945Y-105032833D01*
X205281656Y-105011831D01*
X205274569Y-104993932D01*
X205274568Y-104993929D01*
X205246361Y-104955105D01*
X205242510Y-104949241D01*
X205225889Y-104921138D01*
X205218081Y-104907935D01*
X205204460Y-104894314D01*
X205189278Y-104876537D01*
X205177964Y-104860965D01*
X205177963Y-104860963D01*
X205140995Y-104830380D01*
X205135800Y-104825654D01*
X205008087Y-104697941D01*
X204969523Y-104631146D01*
X204969523Y-104554018D01*
X205008087Y-104487223D01*
X205074882Y-104448659D01*
X205128046Y-104444299D01*
X205282800Y-104459541D01*
X205478932Y-104440224D01*
X205667527Y-104383014D01*
X205841338Y-104290110D01*
X205993683Y-104165083D01*
X206072288Y-104069302D01*
X206134978Y-104024379D01*
X206211734Y-104016819D01*
X206281988Y-104048650D01*
X206326914Y-104111343D01*
X206331387Y-104125264D01*
X206364212Y-104247769D01*
X206371097Y-104273463D01*
X206470965Y-104487630D01*
X206606505Y-104681201D01*
X206773599Y-104848295D01*
X206930349Y-104958053D01*
X206979925Y-105017135D01*
X206993318Y-105093091D01*
X206966939Y-105165568D01*
X206930348Y-105202158D01*
X206773923Y-105311688D01*
X206606891Y-105478720D01*
X206471402Y-105672219D01*
X206371568Y-105886312D01*
X206314364Y-106099799D01*
X206314364Y-106099800D01*
X207211314Y-106099800D01*
X207185507Y-106139956D01*
X207145000Y-106277911D01*
X207145000Y-106421689D01*
X207185507Y-106559644D01*
X207211314Y-106599800D01*
X206314364Y-106599800D01*
X206371568Y-106813289D01*
X206371569Y-106813291D01*
X206471400Y-107027379D01*
X206471406Y-107027388D01*
X206606888Y-107220876D01*
X206773920Y-107387908D01*
X206930348Y-107497440D01*
X206979925Y-107556524D01*
X206993318Y-107632480D01*
X206966939Y-107704957D01*
X206930348Y-107741547D01*
X206773600Y-107851303D01*
X206606507Y-108018396D01*
X206507617Y-108159627D01*
X206470965Y-108211971D01*
X206387852Y-108390206D01*
X206371096Y-108426140D01*
X206309937Y-108654390D01*
X206289341Y-108889800D01*
X206309937Y-109125209D01*
X206365064Y-109330950D01*
X206371097Y-109353463D01*
X206470965Y-109567630D01*
X206606505Y-109761201D01*
X206773599Y-109928295D01*
X206967170Y-110063835D01*
X207181337Y-110163703D01*
X207409592Y-110224863D01*
X207645000Y-110245459D01*
X207880408Y-110224863D01*
X208108663Y-110163703D01*
X208322830Y-110063835D01*
X208516401Y-109928295D01*
X208683495Y-109761201D01*
X208819035Y-109567630D01*
X208918903Y-109353463D01*
X208980063Y-109125208D01*
X209000659Y-108889800D01*
X208980063Y-108654392D01*
X208918903Y-108426137D01*
X208819035Y-108211971D01*
X208683495Y-108018399D01*
X208516401Y-107851305D01*
X208516399Y-107851303D01*
X208359652Y-107741547D01*
X208310075Y-107682464D01*
X208296682Y-107606507D01*
X208323062Y-107534031D01*
X208359652Y-107497440D01*
X208516079Y-107387908D01*
X208683111Y-107220876D01*
X208818593Y-107027388D01*
X208818599Y-107027379D01*
X208918430Y-106813291D01*
X208918431Y-106813289D01*
X208975636Y-106599800D01*
X208078686Y-106599800D01*
X208104493Y-106559644D01*
X208145000Y-106421689D01*
X208145000Y-106277911D01*
X208104493Y-106139956D01*
X208078686Y-106099800D01*
X208953336Y-106099800D01*
X209027836Y-106119762D01*
X209058695Y-106143441D01*
X210905859Y-107990605D01*
X210944423Y-108057400D01*
X210949500Y-108095964D01*
X210949500Y-112814850D01*
X210929538Y-112889350D01*
X210875000Y-112943888D01*
X210800500Y-112963850D01*
X210726000Y-112943888D01*
X210678447Y-112900313D01*
X210639296Y-112844400D01*
X210472202Y-112677306D01*
X210395320Y-112623472D01*
X210278630Y-112541765D01*
X210064463Y-112441897D01*
X210064461Y-112441896D01*
X209836209Y-112380737D01*
X209600800Y-112360141D01*
X209365390Y-112380737D01*
X209137140Y-112441896D01*
X209137139Y-112441896D01*
X209137137Y-112441897D01*
X208922971Y-112541765D01*
X208922968Y-112541766D01*
X208922968Y-112541767D01*
X208729396Y-112677307D01*
X208562306Y-112844397D01*
X208452854Y-113000712D01*
X208393770Y-113050289D01*
X208317814Y-113063682D01*
X208245337Y-113037303D01*
X208208746Y-113000712D01*
X208182935Y-112963850D01*
X208099295Y-112844399D01*
X207932201Y-112677305D01*
X207738630Y-112541765D01*
X207524463Y-112441897D01*
X207524461Y-112441896D01*
X207296209Y-112380737D01*
X207060800Y-112360141D01*
X206825390Y-112380737D01*
X206597140Y-112441896D01*
X206597139Y-112441896D01*
X206597137Y-112441897D01*
X206382971Y-112541765D01*
X206382968Y-112541766D01*
X206382968Y-112541767D01*
X206189396Y-112677307D01*
X206022303Y-112844400D01*
X205912547Y-113001148D01*
X205853464Y-113050725D01*
X205777507Y-113064118D01*
X205705031Y-113037738D01*
X205668440Y-113001148D01*
X205558908Y-112844720D01*
X205391876Y-112677688D01*
X205198388Y-112542206D01*
X205198379Y-112542200D01*
X204984291Y-112442369D01*
X204984289Y-112442368D01*
X204770800Y-112385164D01*
X204770800Y-113280298D01*
X204663115Y-113231120D01*
X204556563Y-113215800D01*
X204485037Y-113215800D01*
X204378485Y-113231120D01*
X204270800Y-113280298D01*
X204270800Y-112385164D01*
X204270799Y-112385164D01*
X204057312Y-112442368D01*
X203843219Y-112542202D01*
X203649716Y-112677694D01*
X203555171Y-112772239D01*
X203488376Y-112810803D01*
X203411248Y-112810803D01*
X203344454Y-112772238D01*
X203310207Y-112718948D01*
X203274598Y-112623472D01*
X203274595Y-112623466D01*
X203188347Y-112508255D01*
X203188344Y-112508252D01*
X203073133Y-112422004D01*
X203073129Y-112422002D01*
X202938282Y-112371708D01*
X202878676Y-112365300D01*
X201082936Y-112365300D01*
X201082911Y-112365302D01*
X201023321Y-112371708D01*
X201023315Y-112371709D01*
X200888470Y-112422002D01*
X200888466Y-112422004D01*
X200773255Y-112508252D01*
X200773252Y-112508255D01*
X200687004Y-112623466D01*
X200687002Y-112623470D01*
X200636708Y-112758317D01*
X200630300Y-112817914D01*
X200630300Y-114613663D01*
X200630302Y-114613688D01*
X200636708Y-114673278D01*
X200636709Y-114673284D01*
X200687002Y-114808129D01*
X200687004Y-114808133D01*
X200773252Y-114923344D01*
X200773255Y-114923347D01*
X200888466Y-115009595D01*
X200888470Y-115009597D01*
X201023317Y-115059891D01*
X201082914Y-115066299D01*
X201082918Y-115066299D01*
X201082927Y-115066300D01*
X201484635Y-115066299D01*
X201559135Y-115086261D01*
X201589994Y-115109940D01*
X202577614Y-116097559D01*
X202588422Y-116111049D01*
X202588823Y-116110718D01*
X202594794Y-116117936D01*
X202647260Y-116167205D01*
X202668969Y-116188914D01*
X202674284Y-116193036D01*
X202679618Y-116197592D01*
X202710173Y-116226284D01*
X202750816Y-116291835D01*
X202753238Y-116368925D01*
X202716791Y-116436898D01*
X202651240Y-116477541D01*
X202608175Y-116483900D01*
X186255300Y-116483900D01*
X186180800Y-116463938D01*
X186126262Y-116409400D01*
X186106300Y-116334900D01*
X186106300Y-76351270D01*
X186126262Y-76276770D01*
X186180800Y-76222232D01*
X186255300Y-76202270D01*
X186329800Y-76222232D01*
G37*
%TD.AperFunction*%
%TA.AperFunction,Conductor*%
G36*
X199378040Y-100812062D02*
G01*
X199432578Y-100866600D01*
X199452540Y-100941100D01*
X199432578Y-101015600D01*
X199408899Y-101046459D01*
X198034234Y-102421122D01*
X198020750Y-102431926D01*
X198021082Y-102432327D01*
X198013859Y-102438302D01*
X197964610Y-102490747D01*
X197942894Y-102512463D01*
X197942880Y-102512479D01*
X197938744Y-102517809D01*
X197934195Y-102523135D01*
X197901351Y-102558111D01*
X197892073Y-102574988D01*
X197879244Y-102594518D01*
X197867438Y-102609739D01*
X197867436Y-102609743D01*
X197848381Y-102653774D01*
X197845294Y-102660076D01*
X197817659Y-102710347D01*
X197815259Y-102709027D01*
X197778229Y-102758879D01*
X197707442Y-102789504D01*
X197685691Y-102791100D01*
X197593648Y-102791100D01*
X197593638Y-102791101D01*
X197579693Y-102792198D01*
X197558178Y-102793890D01*
X197558174Y-102793890D01*
X197558173Y-102793891D01*
X197406410Y-102837982D01*
X197270381Y-102918429D01*
X197270378Y-102918431D01*
X197158631Y-103030178D01*
X197158629Y-103030181D01*
X197078182Y-103166210D01*
X197078182Y-103166211D01*
X197034091Y-103317970D01*
X197034091Y-103317973D01*
X197031300Y-103353437D01*
X197031300Y-104125264D01*
X197031301Y-104792100D01*
X197011339Y-104866600D01*
X196956801Y-104921138D01*
X196882301Y-104941100D01*
X195700582Y-104941100D01*
X195626082Y-104921138D01*
X195595223Y-104897459D01*
X194957716Y-104259952D01*
X194919152Y-104193157D01*
X194919152Y-104116029D01*
X194957716Y-104049234D01*
X195024511Y-104010670D01*
X195163489Y-103973431D01*
X195163491Y-103973430D01*
X195377579Y-103873599D01*
X195377588Y-103873593D01*
X195571076Y-103738111D01*
X195738111Y-103571076D01*
X195873593Y-103377588D01*
X195873599Y-103377579D01*
X195973430Y-103163491D01*
X195973431Y-103163489D01*
X196030636Y-102950000D01*
X195133686Y-102950000D01*
X195159493Y-102909844D01*
X195200000Y-102771889D01*
X195200000Y-102628111D01*
X195159493Y-102490156D01*
X195133686Y-102450000D01*
X196030636Y-102450000D01*
X196030635Y-102449999D01*
X195973431Y-102236512D01*
X195873597Y-102022419D01*
X195738108Y-101828920D01*
X195643560Y-101734372D01*
X195604996Y-101667577D01*
X195604996Y-101590449D01*
X195643560Y-101523654D01*
X195696848Y-101489408D01*
X195792331Y-101453796D01*
X195792331Y-101453795D01*
X195792333Y-101453795D01*
X195861206Y-101402236D01*
X195907546Y-101367546D01*
X195993796Y-101252331D01*
X196007421Y-101215802D01*
X196044091Y-101117482D01*
X196050499Y-101057885D01*
X196050500Y-101057867D01*
X196050500Y-100941100D01*
X196070462Y-100866600D01*
X196125000Y-100812062D01*
X196199500Y-100792100D01*
X199303540Y-100792100D01*
X199378040Y-100812062D01*
G37*
%TD.AperFunction*%
%TA.AperFunction,Conductor*%
G36*
X202530532Y-102462062D02*
G01*
X202585070Y-102516600D01*
X202605032Y-102591100D01*
X202585070Y-102665600D01*
X202564647Y-102693099D01*
X202563860Y-102693936D01*
X202563860Y-102693937D01*
X202556161Y-102702136D01*
X202514611Y-102746381D01*
X202492893Y-102768099D01*
X202492879Y-102768115D01*
X202488743Y-102773445D01*
X202484194Y-102778771D01*
X202451350Y-102813747D01*
X202442077Y-102830616D01*
X202429244Y-102850152D01*
X202417440Y-102865370D01*
X202412667Y-102873442D01*
X202410011Y-102871871D01*
X202372232Y-102919498D01*
X202300508Y-102947862D01*
X202224212Y-102936565D01*
X202201374Y-102923053D01*
X202201287Y-102923201D01*
X202154951Y-102895797D01*
X202100988Y-102840691D01*
X202093078Y-102810541D01*
X202081799Y-102802072D01*
X202049264Y-102811525D01*
X201972152Y-102813140D01*
X201966127Y-102811525D01*
X201905431Y-102793891D01*
X201887695Y-102792495D01*
X201869963Y-102791100D01*
X201869959Y-102791100D01*
X201719433Y-102791100D01*
X201493638Y-102791101D01*
X201479693Y-102792198D01*
X201458178Y-102793890D01*
X201458171Y-102793891D01*
X201449981Y-102796271D01*
X201372870Y-102797884D01*
X201305283Y-102760725D01*
X201265330Y-102694752D01*
X201263717Y-102617641D01*
X201300876Y-102550054D01*
X201303024Y-102547859D01*
X201365144Y-102485740D01*
X201431939Y-102447177D01*
X201470502Y-102442100D01*
X202456032Y-102442100D01*
X202530532Y-102462062D01*
G37*
%TD.AperFunction*%
%TA.AperFunction,Conductor*%
G36*
X207820500Y-100670462D02*
G01*
X207875038Y-100725000D01*
X207895000Y-100799500D01*
X207895000Y-100834298D01*
X207787315Y-100785120D01*
X207680763Y-100769800D01*
X207609237Y-100769800D01*
X207502685Y-100785120D01*
X207395000Y-100834298D01*
X207395000Y-100799500D01*
X207414962Y-100725000D01*
X207469500Y-100670462D01*
X207544000Y-100650500D01*
X207746000Y-100650500D01*
X207820500Y-100670462D01*
G37*
%TD.AperFunction*%
%TA.AperFunction,Conductor*%
G36*
X207895000Y-99200500D02*
G01*
X207875038Y-99275000D01*
X207820500Y-99329538D01*
X207746000Y-99349500D01*
X207544000Y-99349500D01*
X207469500Y-99329538D01*
X207414962Y-99275000D01*
X207395000Y-99200500D01*
X207395000Y-99165301D01*
X207502685Y-99214480D01*
X207609237Y-99229800D01*
X207680763Y-99229800D01*
X207787315Y-99214480D01*
X207895000Y-99165301D01*
X207895000Y-99200500D01*
G37*
%TD.AperFunction*%
%TA.AperFunction,Conductor*%
G36*
X206536397Y-70819962D02*
G01*
X206590935Y-70874500D01*
X206610897Y-70949000D01*
X206590935Y-71023500D01*
X206556425Y-71064175D01*
X206426117Y-71171117D01*
X206321936Y-71298062D01*
X206301088Y-71323465D01*
X206301083Y-71323473D01*
X206208187Y-71497268D01*
X206150976Y-71685865D01*
X206131659Y-71882003D01*
X206132408Y-71889610D01*
X206119842Y-71965707D01*
X206089484Y-72009568D01*
X199114034Y-78985018D01*
X199100550Y-78995822D01*
X199100882Y-78996223D01*
X199093659Y-79002198D01*
X199044410Y-79054643D01*
X199022694Y-79076359D01*
X199022680Y-79076375D01*
X199018544Y-79081705D01*
X199013995Y-79087031D01*
X198981151Y-79122007D01*
X198971873Y-79138884D01*
X198959044Y-79158414D01*
X198947238Y-79173635D01*
X198947236Y-79173639D01*
X198928181Y-79217670D01*
X198925094Y-79223972D01*
X198901974Y-79266029D01*
X198901973Y-79266030D01*
X198897181Y-79284694D01*
X198889611Y-79306803D01*
X198881964Y-79324475D01*
X198874459Y-79371860D01*
X198873036Y-79378734D01*
X198861100Y-79425223D01*
X198861100Y-79425225D01*
X198861100Y-79444478D01*
X198859265Y-79467789D01*
X198856253Y-79486803D01*
X198860769Y-79534580D01*
X198861100Y-79541596D01*
X198861100Y-92235334D01*
X198859203Y-92252512D01*
X198859722Y-92252561D01*
X198857958Y-92271226D01*
X198856151Y-92271055D01*
X198841159Y-92334958D01*
X198788358Y-92391179D01*
X198714520Y-92413467D01*
X198639431Y-92395850D01*
X198604490Y-92369899D01*
X195080741Y-88846150D01*
X195042177Y-88779355D01*
X195037100Y-88740791D01*
X195037100Y-76873275D01*
X195057062Y-76798775D01*
X195080741Y-76767916D01*
X195122985Y-76725672D01*
X195167072Y-76681585D01*
X195255078Y-76536006D01*
X195305686Y-76373596D01*
X195312100Y-76303016D01*
X195312100Y-75639784D01*
X195305686Y-75569204D01*
X195255078Y-75406794D01*
X195167072Y-75261215D01*
X195080741Y-75174884D01*
X195042177Y-75108089D01*
X195037100Y-75069525D01*
X195037100Y-75011677D01*
X195057062Y-74937177D01*
X195057783Y-74935941D01*
X195071944Y-74911998D01*
X195117798Y-74754169D01*
X195120700Y-74717294D01*
X195120700Y-73410906D01*
X195117798Y-73374031D01*
X195071944Y-73216202D01*
X194988281Y-73074735D01*
X194872065Y-72958519D01*
X194738762Y-72879684D01*
X194730600Y-72874857D01*
X194730599Y-72874856D01*
X194730598Y-72874856D01*
X194664479Y-72855646D01*
X194572771Y-72829002D01*
X194560477Y-72828034D01*
X194535894Y-72826100D01*
X194535890Y-72826100D01*
X194319700Y-72826100D01*
X194245200Y-72806138D01*
X194190662Y-72751600D01*
X194170700Y-72677100D01*
X194170700Y-71535910D01*
X194170700Y-71535906D01*
X194167798Y-71499031D01*
X194121944Y-71341202D01*
X194038281Y-71199735D01*
X193922065Y-71083519D01*
X193922060Y-71083516D01*
X193911467Y-71077251D01*
X193857503Y-71022146D01*
X193838321Y-70947441D01*
X193859062Y-70873154D01*
X193914167Y-70819190D01*
X193987313Y-70800000D01*
X206461897Y-70800000D01*
X206536397Y-70819962D01*
G37*
%TD.AperFunction*%
%TA.AperFunction,Conductor*%
G36*
X202909718Y-78814744D02*
G01*
X202948282Y-78881539D01*
X202952697Y-78906077D01*
X202956169Y-78942793D01*
X202956500Y-78949810D01*
X202956500Y-79006525D01*
X202936538Y-79081025D01*
X202912859Y-79111884D01*
X202826527Y-79198215D01*
X202738524Y-79343791D01*
X202738521Y-79343796D01*
X202699884Y-79467789D01*
X202687914Y-79506204D01*
X202681500Y-79576784D01*
X202681500Y-80240016D01*
X202687914Y-80310596D01*
X202738522Y-80473006D01*
X202757000Y-80503572D01*
X202826527Y-80618584D01*
X202912859Y-80704916D01*
X202951423Y-80771711D01*
X202956500Y-80810275D01*
X202956500Y-80987725D01*
X202936538Y-81062225D01*
X202912859Y-81093084D01*
X202851927Y-81154015D01*
X202782400Y-81269027D01*
X202763922Y-81299594D01*
X202713314Y-81462004D01*
X202706900Y-81532584D01*
X202706900Y-82195816D01*
X202713314Y-82266396D01*
X202763922Y-82428806D01*
X202815847Y-82514700D01*
X202850275Y-82571652D01*
X202851928Y-82574385D01*
X202972215Y-82694672D01*
X203005642Y-82714880D01*
X203059072Y-82770504D01*
X203077531Y-82845390D01*
X203056074Y-82919473D01*
X203005646Y-82969902D01*
X202972527Y-82989923D01*
X202852323Y-83110127D01*
X202852323Y-83110128D01*
X202764383Y-83255598D01*
X202764380Y-83255605D01*
X202713809Y-83417890D01*
X202707400Y-83488430D01*
X202707400Y-83570000D01*
X203708400Y-83570000D01*
X203782900Y-83589962D01*
X203837438Y-83644500D01*
X203857400Y-83719000D01*
X203857400Y-84794999D01*
X203863968Y-84794999D01*
X203863969Y-84794998D01*
X203934504Y-84788590D01*
X203934511Y-84788589D01*
X204096795Y-84738019D01*
X204096801Y-84738016D01*
X204242271Y-84650076D01*
X204242272Y-84650076D01*
X204326687Y-84565662D01*
X204393482Y-84527098D01*
X204470610Y-84527098D01*
X204537405Y-84565662D01*
X204622215Y-84650472D01*
X204767794Y-84738478D01*
X204930204Y-84789086D01*
X205000784Y-84795500D01*
X205000791Y-84795500D01*
X205514009Y-84795500D01*
X205514016Y-84795500D01*
X205584596Y-84789086D01*
X205747006Y-84738478D01*
X205892585Y-84650472D01*
X205954430Y-84588626D01*
X206021223Y-84550063D01*
X206098351Y-84550063D01*
X206154312Y-84578807D01*
X206248262Y-84655910D01*
X206248271Y-84655915D01*
X206248273Y-84655916D01*
X206422068Y-84748812D01*
X206422070Y-84748812D01*
X206422073Y-84748814D01*
X206610668Y-84806024D01*
X206806800Y-84825341D01*
X207002932Y-84806024D01*
X207191527Y-84748814D01*
X207365338Y-84655910D01*
X207365339Y-84655908D01*
X207367861Y-84654561D01*
X207442975Y-84637047D01*
X207516782Y-84659436D01*
X207569506Y-84715728D01*
X207587100Y-84785967D01*
X207587100Y-85992242D01*
X207567138Y-86066742D01*
X207543459Y-86097601D01*
X204752434Y-88888625D01*
X204738950Y-88899429D01*
X204739282Y-88899830D01*
X204732059Y-88905805D01*
X204682810Y-88958250D01*
X204661094Y-88979966D01*
X204661080Y-88979982D01*
X204656944Y-88985312D01*
X204652395Y-88990638D01*
X204619551Y-89025614D01*
X204610273Y-89042491D01*
X204597444Y-89062021D01*
X204585638Y-89077242D01*
X204585636Y-89077246D01*
X204566581Y-89121277D01*
X204563494Y-89127579D01*
X204540374Y-89169636D01*
X204540373Y-89169637D01*
X204535581Y-89188301D01*
X204528011Y-89210410D01*
X204520364Y-89228082D01*
X204512859Y-89275467D01*
X204511436Y-89282341D01*
X204499500Y-89328830D01*
X204499500Y-89328832D01*
X204499500Y-89348085D01*
X204497665Y-89371396D01*
X204494653Y-89390410D01*
X204499169Y-89438187D01*
X204499500Y-89445203D01*
X204499500Y-89610300D01*
X204479538Y-89684800D01*
X204425000Y-89739338D01*
X204350500Y-89759300D01*
X202708536Y-89759300D01*
X202708511Y-89759302D01*
X202648921Y-89765708D01*
X202648915Y-89765709D01*
X202514070Y-89816002D01*
X202514066Y-89816004D01*
X202398855Y-89902252D01*
X202398852Y-89902255D01*
X202306217Y-90026000D01*
X202303659Y-90024085D01*
X202262898Y-90066824D01*
X202188891Y-90088543D01*
X202113940Y-90070350D01*
X202062014Y-90020826D01*
X202061783Y-90021000D01*
X202060751Y-90019621D01*
X202058126Y-90017118D01*
X202055597Y-90012737D01*
X201969147Y-89897255D01*
X201969144Y-89897252D01*
X201853933Y-89811004D01*
X201853929Y-89811002D01*
X201719082Y-89760708D01*
X201659485Y-89754300D01*
X201659473Y-89754300D01*
X201561100Y-89754300D01*
X201486600Y-89734338D01*
X201432062Y-89679800D01*
X201412100Y-89605300D01*
X201412100Y-84070000D01*
X202707401Y-84070000D01*
X202707401Y-84151569D01*
X202713809Y-84222104D01*
X202713810Y-84222111D01*
X202764380Y-84384395D01*
X202764383Y-84384401D01*
X202852323Y-84529871D01*
X202852323Y-84529872D01*
X202972527Y-84650076D01*
X203117998Y-84738016D01*
X203118005Y-84738019D01*
X203280290Y-84788590D01*
X203350832Y-84795000D01*
X203357400Y-84794999D01*
X203357400Y-84070000D01*
X202707401Y-84070000D01*
X201412100Y-84070000D01*
X201412100Y-80163363D01*
X201432062Y-80088863D01*
X201455737Y-80058008D01*
X202699004Y-78814741D01*
X202765795Y-78776180D01*
X202842923Y-78776180D01*
X202909718Y-78814744D01*
G37*
%TD.AperFunction*%
%TA.AperFunction,Conductor*%
G36*
X191548283Y-74419045D02*
G01*
X191601712Y-74474670D01*
X191620200Y-74546557D01*
X191620200Y-74717238D01*
X191623100Y-74754093D01*
X191668918Y-74911796D01*
X191668918Y-74911797D01*
X191752516Y-75053154D01*
X191752518Y-75053157D01*
X191868642Y-75169281D01*
X191868648Y-75169285D01*
X191881792Y-75177059D01*
X191935756Y-75232164D01*
X191954938Y-75306869D01*
X191934197Y-75381156D01*
X191933459Y-75382391D01*
X191918581Y-75407002D01*
X191918580Y-75407005D01*
X191868009Y-75569290D01*
X191861600Y-75639830D01*
X191861600Y-75721400D01*
X192862600Y-75721400D01*
X192937100Y-75741362D01*
X192991638Y-75795900D01*
X193011600Y-75870400D01*
X193011600Y-76946399D01*
X193018168Y-76946399D01*
X193018169Y-76946398D01*
X193088704Y-76939990D01*
X193088711Y-76939989D01*
X193250995Y-76889419D01*
X193251001Y-76889416D01*
X193396471Y-76801476D01*
X193396472Y-76801476D01*
X193480887Y-76717062D01*
X193547682Y-76678498D01*
X193624810Y-76678498D01*
X193691605Y-76717062D01*
X193742459Y-76767916D01*
X193781023Y-76834711D01*
X193786100Y-76873275D01*
X193786100Y-88320839D01*
X193766138Y-88395339D01*
X193711600Y-88449877D01*
X193637100Y-88469839D01*
X193562600Y-88449877D01*
X193508062Y-88395339D01*
X193505694Y-88391077D01*
X193456516Y-88299073D01*
X193456515Y-88299071D01*
X193456510Y-88299062D01*
X193331483Y-88146717D01*
X193179138Y-88021690D01*
X193179132Y-88021687D01*
X193179126Y-88021683D01*
X193005331Y-87928787D01*
X192816734Y-87871576D01*
X192660391Y-87856178D01*
X192620600Y-87852259D01*
X192620599Y-87852259D01*
X192580806Y-87856178D01*
X192504709Y-87843613D01*
X192460845Y-87813254D01*
X191219941Y-86572350D01*
X191181377Y-86505555D01*
X191176300Y-86466991D01*
X191176300Y-76797075D01*
X191196262Y-76722575D01*
X191219941Y-76691716D01*
X191256747Y-76654910D01*
X191306272Y-76605385D01*
X191394278Y-76459806D01*
X191444886Y-76297396D01*
X191451300Y-76226816D01*
X191451300Y-76221400D01*
X191861601Y-76221400D01*
X191861601Y-76302969D01*
X191868009Y-76373504D01*
X191868010Y-76373511D01*
X191918580Y-76535795D01*
X191918583Y-76535801D01*
X192006523Y-76681271D01*
X192006523Y-76681272D01*
X192126727Y-76801476D01*
X192272198Y-76889416D01*
X192272205Y-76889419D01*
X192434490Y-76939990D01*
X192505032Y-76946400D01*
X192511600Y-76946399D01*
X192511600Y-76221400D01*
X191861601Y-76221400D01*
X191451300Y-76221400D01*
X191451300Y-75563584D01*
X191444886Y-75493004D01*
X191394278Y-75330594D01*
X191306272Y-75185015D01*
X191194541Y-75073284D01*
X191155977Y-75006489D01*
X191150900Y-74967925D01*
X191150900Y-74765075D01*
X191170862Y-74690575D01*
X191194541Y-74659716D01*
X191229377Y-74624880D01*
X191280872Y-74573385D01*
X191343689Y-74469472D01*
X191399313Y-74416045D01*
X191474200Y-74397587D01*
X191548283Y-74419045D01*
G37*
%TD.AperFunction*%
%TA.AperFunction,Conductor*%
G36*
X192495200Y-72502062D02*
G01*
X192549738Y-72556600D01*
X192569700Y-72631100D01*
X192569700Y-72842290D01*
X192572602Y-72879171D01*
X192586782Y-72927976D01*
X192618456Y-73036998D01*
X192649450Y-73089407D01*
X192670192Y-73163692D01*
X192670200Y-73165253D01*
X192670200Y-73814100D01*
X193220200Y-73814100D01*
X193220200Y-73576100D01*
X193240162Y-73501600D01*
X193294700Y-73447062D01*
X193369200Y-73427100D01*
X193370700Y-73427100D01*
X193445200Y-73447062D01*
X193499738Y-73501600D01*
X193519700Y-73576100D01*
X193519700Y-74717294D01*
X193521634Y-74741877D01*
X193522602Y-74754171D01*
X193540124Y-74814480D01*
X193568455Y-74911996D01*
X193568457Y-74912001D01*
X193573801Y-74921037D01*
X193594541Y-74995325D01*
X193575358Y-75070029D01*
X193521394Y-75125134D01*
X193447106Y-75145874D01*
X193372402Y-75126691D01*
X193368466Y-75124394D01*
X193246296Y-75050540D01*
X193192867Y-74994915D01*
X193174409Y-74920028D01*
X193180296Y-74881457D01*
X193217298Y-74754099D01*
X193217299Y-74754093D01*
X193220200Y-74717238D01*
X193220200Y-74314100D01*
X192319200Y-74314100D01*
X192244700Y-74294138D01*
X192190162Y-74239600D01*
X192170200Y-74165100D01*
X192170200Y-72829302D01*
X192170199Y-72829302D01*
X192167710Y-72829499D01*
X192010003Y-72875318D01*
X192010002Y-72875318D01*
X191868645Y-72958916D01*
X191868642Y-72958918D01*
X191752518Y-73075042D01*
X191752516Y-73075045D01*
X191668918Y-73216402D01*
X191668915Y-73216408D01*
X191649592Y-73282920D01*
X191609637Y-73348892D01*
X191542049Y-73386048D01*
X191464938Y-73384432D01*
X191398966Y-73344477D01*
X191370636Y-73302500D01*
X191368880Y-73298598D01*
X191359402Y-73282920D01*
X191280872Y-73153015D01*
X191160585Y-73032728D01*
X191160584Y-73032727D01*
X191081941Y-72985186D01*
X191015006Y-72944722D01*
X190899273Y-72908659D01*
X190852596Y-72894114D01*
X190845674Y-72893485D01*
X190782016Y-72887700D01*
X190268784Y-72887700D01*
X190207026Y-72893312D01*
X190198203Y-72894114D01*
X190035796Y-72944721D01*
X190035791Y-72944724D01*
X189890215Y-73032727D01*
X189805759Y-73117184D01*
X189738964Y-73155748D01*
X189661836Y-73155748D01*
X189595041Y-73117184D01*
X189510584Y-73032727D01*
X189431941Y-72985186D01*
X189365006Y-72944722D01*
X189228523Y-72902193D01*
X189167493Y-72865299D01*
X189038653Y-72736459D01*
X189000089Y-72669664D01*
X189000089Y-72592536D01*
X189038653Y-72525741D01*
X189105448Y-72487177D01*
X189144012Y-72482100D01*
X192420700Y-72482100D01*
X192495200Y-72502062D01*
G37*
%TD.AperFunction*%
%TD*%
%TA.AperFunction,Conductor*%
%TO.N,GND*%
G36*
X234755500Y-81419962D02*
G01*
X234810038Y-81474500D01*
X234830000Y-81549000D01*
X234830000Y-81987500D01*
X235973550Y-81987500D01*
X235973275Y-81987890D01*
X235923795Y-82127114D01*
X235913712Y-82274525D01*
X235943774Y-82419190D01*
X235979169Y-82487500D01*
X234830000Y-82487500D01*
X234830000Y-83160322D01*
X234830001Y-83160342D01*
X234836401Y-83219877D01*
X234886645Y-83354584D01*
X234886650Y-83354594D01*
X234972809Y-83469687D01*
X234972812Y-83469690D01*
X235087905Y-83555849D01*
X235087915Y-83555854D01*
X235222623Y-83606098D01*
X235222621Y-83606098D01*
X235282157Y-83612498D01*
X235282177Y-83612500D01*
X236205000Y-83612500D01*
X236205000Y-82714553D01*
X236238846Y-82735136D01*
X236381122Y-82775000D01*
X236491764Y-82775000D01*
X236601379Y-82759934D01*
X236705000Y-82714925D01*
X236705000Y-83612500D01*
X237627823Y-83612500D01*
X237627842Y-83612498D01*
X237687374Y-83606098D01*
X237748428Y-83583326D01*
X237825207Y-83575994D01*
X237895366Y-83608033D01*
X237940105Y-83670859D01*
X237949500Y-83722931D01*
X237949500Y-134500500D01*
X237929538Y-134575000D01*
X237875000Y-134629538D01*
X237800500Y-134649500D01*
X223799500Y-134649500D01*
X223725000Y-134629538D01*
X223670462Y-134575000D01*
X223650500Y-134500500D01*
X223650500Y-132677863D01*
X224309500Y-132677863D01*
X224309502Y-132677888D01*
X224315908Y-132737478D01*
X224315909Y-132737484D01*
X224366202Y-132872329D01*
X224366204Y-132872333D01*
X224452452Y-132987544D01*
X224452455Y-132987547D01*
X224567666Y-133073795D01*
X224567670Y-133073797D01*
X224702517Y-133124091D01*
X224762114Y-133130499D01*
X224762118Y-133130499D01*
X224762127Y-133130500D01*
X226837872Y-133130499D01*
X226897483Y-133124091D01*
X226993447Y-133088298D01*
X227032329Y-133073797D01*
X227032333Y-133073795D01*
X227118649Y-133009178D01*
X227147546Y-132987546D01*
X227233796Y-132872331D01*
X227284091Y-132737483D01*
X227285823Y-132721370D01*
X227290499Y-132677885D01*
X227290499Y-132677882D01*
X227290500Y-132677873D01*
X227290500Y-131701628D01*
X229310000Y-131701628D01*
X229325283Y-131886082D01*
X229385902Y-132125461D01*
X229485090Y-132351586D01*
X229485092Y-132351589D01*
X229620152Y-132558316D01*
X229787393Y-132739987D01*
X229787396Y-132739990D01*
X229982250Y-132891649D01*
X229982255Y-132891653D01*
X230199421Y-133009178D01*
X230432973Y-133089357D01*
X230432977Y-133089358D01*
X230550000Y-133108884D01*
X230550000Y-131261057D01*
X230640892Y-131295528D01*
X230760081Y-131310000D01*
X230839919Y-131310000D01*
X230959108Y-131295528D01*
X231050000Y-131261057D01*
X231050000Y-133108884D01*
X231167022Y-133089358D01*
X231167026Y-133089357D01*
X231400578Y-133009178D01*
X231617744Y-132891653D01*
X231617749Y-132891649D01*
X231812603Y-132739990D01*
X231812606Y-132739987D01*
X231979847Y-132558316D01*
X232114907Y-132351589D01*
X232114909Y-132351586D01*
X232214097Y-132125461D01*
X232274716Y-131886082D01*
X232290000Y-131701628D01*
X234310000Y-131701628D01*
X234325283Y-131886082D01*
X234385902Y-132125461D01*
X234485090Y-132351586D01*
X234485092Y-132351589D01*
X234620152Y-132558316D01*
X234787393Y-132739987D01*
X234787396Y-132739990D01*
X234982250Y-132891649D01*
X234982255Y-132891653D01*
X235199421Y-133009178D01*
X235432973Y-133089357D01*
X235432977Y-133089358D01*
X235550000Y-133108884D01*
X235550000Y-131261057D01*
X235640892Y-131295528D01*
X235760081Y-131310000D01*
X235839919Y-131310000D01*
X235959108Y-131295528D01*
X236050000Y-131261057D01*
X236050000Y-133108884D01*
X236167022Y-133089358D01*
X236167026Y-133089357D01*
X236400578Y-133009178D01*
X236617744Y-132891653D01*
X236617749Y-132891649D01*
X236812603Y-132739990D01*
X236812606Y-132739987D01*
X236979847Y-132558316D01*
X237114907Y-132351589D01*
X237114909Y-132351586D01*
X237214097Y-132125461D01*
X237274716Y-131886082D01*
X237290000Y-131701628D01*
X237290000Y-130900000D01*
X236414168Y-130900000D01*
X236421643Y-130885758D01*
X236460000Y-130730138D01*
X236460000Y-130569862D01*
X236421643Y-130414242D01*
X236414168Y-130400000D01*
X237290000Y-130400000D01*
X237290000Y-129598372D01*
X237274716Y-129413917D01*
X237214097Y-129174538D01*
X237114909Y-128948413D01*
X237114907Y-128948410D01*
X236979847Y-128741683D01*
X236812606Y-128560012D01*
X236812603Y-128560009D01*
X236617749Y-128408350D01*
X236617744Y-128408346D01*
X236400578Y-128290821D01*
X236167032Y-128210644D01*
X236050000Y-128191114D01*
X236050000Y-130038942D01*
X235959108Y-130004472D01*
X235839919Y-129990000D01*
X235760081Y-129990000D01*
X235640892Y-130004472D01*
X235550000Y-130038942D01*
X235550000Y-128191114D01*
X235432967Y-128210644D01*
X235199421Y-128290821D01*
X234982255Y-128408346D01*
X234982250Y-128408350D01*
X234787396Y-128560009D01*
X234787393Y-128560012D01*
X234620152Y-128741683D01*
X234485092Y-128948410D01*
X234485090Y-128948413D01*
X234385902Y-129174538D01*
X234325283Y-129413917D01*
X234310000Y-129598372D01*
X234310000Y-130400000D01*
X235185832Y-130400000D01*
X235178357Y-130414242D01*
X235140000Y-130569862D01*
X235140000Y-130730138D01*
X235178357Y-130885758D01*
X235185832Y-130900000D01*
X234310000Y-130900000D01*
X234310000Y-131701628D01*
X232290000Y-131701628D01*
X232290000Y-130900000D01*
X231414168Y-130900000D01*
X231421643Y-130885758D01*
X231460000Y-130730138D01*
X231460000Y-130569862D01*
X231421643Y-130414242D01*
X231414168Y-130400000D01*
X232290000Y-130400000D01*
X232290000Y-129598372D01*
X232274716Y-129413917D01*
X232214097Y-129174538D01*
X232114909Y-128948413D01*
X232114907Y-128948410D01*
X231979847Y-128741683D01*
X231812606Y-128560012D01*
X231812603Y-128560009D01*
X231617749Y-128408350D01*
X231617744Y-128408346D01*
X231400578Y-128290821D01*
X231167032Y-128210644D01*
X231050000Y-128191114D01*
X231050000Y-130038942D01*
X230959108Y-130004472D01*
X230839919Y-129990000D01*
X230760081Y-129990000D01*
X230640892Y-130004472D01*
X230550000Y-130038942D01*
X230550000Y-128191114D01*
X230432967Y-128210644D01*
X230199421Y-128290821D01*
X229982255Y-128408346D01*
X229982250Y-128408350D01*
X229787396Y-128560009D01*
X229787393Y-128560012D01*
X229620152Y-128741683D01*
X229485092Y-128948410D01*
X229485090Y-128948413D01*
X229385902Y-129174538D01*
X229325283Y-129413917D01*
X229310000Y-129598372D01*
X229310000Y-130400000D01*
X230185832Y-130400000D01*
X230178357Y-130414242D01*
X230140000Y-130569862D01*
X230140000Y-130730138D01*
X230178357Y-130885758D01*
X230185832Y-130900000D01*
X229310000Y-130900000D01*
X229310000Y-131701628D01*
X227290500Y-131701628D01*
X227290499Y-128622128D01*
X227284091Y-128562517D01*
X227269588Y-128523633D01*
X227233797Y-128427670D01*
X227233795Y-128427666D01*
X227147547Y-128312455D01*
X227147544Y-128312452D01*
X227032333Y-128226204D01*
X227032329Y-128226202D01*
X226897482Y-128175908D01*
X226845581Y-128170328D01*
X226773642Y-128142516D01*
X226725247Y-128082460D01*
X226713364Y-128006253D01*
X226741176Y-127934314D01*
X226783283Y-127895369D01*
X226868656Y-127842712D01*
X226992712Y-127718656D01*
X227084814Y-127569334D01*
X227139999Y-127402797D01*
X227150500Y-127300009D01*
X227150499Y-125199992D01*
X227139999Y-125097203D01*
X227084814Y-124930666D01*
X226992712Y-124781344D01*
X226868656Y-124657288D01*
X226719334Y-124565186D01*
X226636065Y-124537593D01*
X226552798Y-124510001D01*
X226535665Y-124508250D01*
X226450009Y-124499500D01*
X226450004Y-124499500D01*
X225049996Y-124499500D01*
X224947202Y-124510001D01*
X224780666Y-124565186D01*
X224631343Y-124657288D01*
X224507288Y-124781343D01*
X224415186Y-124930666D01*
X224360001Y-125097201D01*
X224349500Y-125199995D01*
X224349500Y-127300003D01*
X224349501Y-127300008D01*
X224360001Y-127402797D01*
X224415186Y-127569334D01*
X224507288Y-127718656D01*
X224631344Y-127842712D01*
X224735483Y-127906945D01*
X224788411Y-127963044D01*
X224806199Y-128038093D01*
X224784079Y-128111981D01*
X224727979Y-128164910D01*
X224709332Y-128173367D01*
X224567668Y-128226203D01*
X224567666Y-128226204D01*
X224452455Y-128312452D01*
X224452452Y-128312455D01*
X224366204Y-128427666D01*
X224366202Y-128427670D01*
X224315908Y-128562517D01*
X224309500Y-128622114D01*
X224309500Y-132677863D01*
X223650500Y-132677863D01*
X223650500Y-86602752D01*
X223670462Y-86528252D01*
X223725000Y-86473714D01*
X223799500Y-86453752D01*
X223874000Y-86473714D01*
X223877723Y-86475936D01*
X224016516Y-86561547D01*
X224177392Y-86614855D01*
X224276689Y-86624999D01*
X224299999Y-86624998D01*
X224300000Y-86624998D01*
X224300000Y-85549000D01*
X224319962Y-85474500D01*
X224374500Y-85419962D01*
X224449000Y-85400000D01*
X224651000Y-85400000D01*
X224725500Y-85419962D01*
X224780038Y-85474500D01*
X224800000Y-85549000D01*
X224800000Y-86624999D01*
X224823310Y-86624999D01*
X224922604Y-86614855D01*
X224998645Y-86589658D01*
X225075643Y-86585173D01*
X225144567Y-86619787D01*
X225186951Y-86684226D01*
X225191436Y-86761224D01*
X225188098Y-86774347D01*
X225163976Y-86853863D01*
X225144659Y-87050000D01*
X225163976Y-87246134D01*
X225221187Y-87434731D01*
X225314083Y-87608526D01*
X225314087Y-87608532D01*
X225314090Y-87608538D01*
X225439117Y-87760883D01*
X225591462Y-87885910D01*
X225591471Y-87885915D01*
X225591473Y-87885916D01*
X225765268Y-87978812D01*
X225765270Y-87978812D01*
X225765273Y-87978814D01*
X225953868Y-88036024D01*
X226150000Y-88055341D01*
X226150002Y-88055340D01*
X226150004Y-88055341D01*
X226150005Y-88055341D01*
X226254946Y-88045005D01*
X226331044Y-88057568D01*
X226390665Y-88106498D01*
X226417833Y-88178682D01*
X226405270Y-88254780D01*
X226374910Y-88298646D01*
X226207028Y-88466527D01*
X226193544Y-88477331D01*
X226193876Y-88477732D01*
X226186653Y-88483707D01*
X226137404Y-88536152D01*
X226115688Y-88557868D01*
X226115674Y-88557884D01*
X226111538Y-88563214D01*
X226106989Y-88568540D01*
X226074145Y-88603516D01*
X226064867Y-88620393D01*
X226052038Y-88639923D01*
X226040232Y-88655144D01*
X226040230Y-88655148D01*
X226021175Y-88699179D01*
X226018088Y-88705481D01*
X225994968Y-88747538D01*
X225994967Y-88747539D01*
X225990175Y-88766203D01*
X225982605Y-88788312D01*
X225974958Y-88805984D01*
X225967453Y-88853369D01*
X225966030Y-88860243D01*
X225954094Y-88906732D01*
X225954094Y-88906734D01*
X225954094Y-88925987D01*
X225952259Y-88949298D01*
X225949247Y-88968312D01*
X225953763Y-89016089D01*
X225954094Y-89023105D01*
X225954094Y-94596328D01*
X225952197Y-94613506D01*
X225952716Y-94613555D01*
X225951833Y-94622891D01*
X225954094Y-94694797D01*
X225954094Y-94725530D01*
X225954940Y-94732227D01*
X225955489Y-94739215D01*
X225956996Y-94787159D01*
X225956996Y-94787162D01*
X225962369Y-94805657D01*
X225967107Y-94828539D01*
X225969521Y-94847646D01*
X225969522Y-94847651D01*
X225987187Y-94892268D01*
X225989460Y-94898909D01*
X226002850Y-94944992D01*
X226002851Y-94944994D01*
X226012652Y-94961567D01*
X226022935Y-94982558D01*
X226030023Y-95000461D01*
X226030026Y-95000466D01*
X226058226Y-95039280D01*
X226062081Y-95045149D01*
X226077830Y-95071778D01*
X226086513Y-95086459D01*
X226086515Y-95086461D01*
X226100127Y-95100073D01*
X226115311Y-95117852D01*
X226126626Y-95133426D01*
X226126628Y-95133428D01*
X226126630Y-95133429D01*
X226126631Y-95133431D01*
X226151827Y-95154275D01*
X226163603Y-95164017D01*
X226168797Y-95168743D01*
X226592084Y-95592030D01*
X226630648Y-95658825D01*
X226630649Y-95735950D01*
X226614937Y-95794589D01*
X226614936Y-95794594D01*
X226594341Y-96030000D01*
X226614937Y-96265408D01*
X226676097Y-96493663D01*
X226775965Y-96707830D01*
X226911505Y-96901401D01*
X227078599Y-97068495D01*
X227235349Y-97178253D01*
X227284925Y-97237335D01*
X227298318Y-97313291D01*
X227271939Y-97385768D01*
X227235348Y-97422358D01*
X227078923Y-97531888D01*
X226911891Y-97698920D01*
X226776402Y-97892419D01*
X226676568Y-98106512D01*
X226619364Y-98319999D01*
X226619364Y-98320000D01*
X227516314Y-98320000D01*
X227490507Y-98360156D01*
X227450000Y-98498111D01*
X227450000Y-98641889D01*
X227490507Y-98779844D01*
X227516314Y-98820000D01*
X226619364Y-98820000D01*
X226676568Y-99033489D01*
X226676569Y-99033491D01*
X226776400Y-99247579D01*
X226776406Y-99247588D01*
X226911888Y-99441076D01*
X227078923Y-99608111D01*
X227235784Y-99717947D01*
X227285361Y-99777030D01*
X227298754Y-99852987D01*
X227272374Y-99925463D01*
X227235784Y-99962053D01*
X227078923Y-100071888D01*
X226911891Y-100238920D01*
X226776402Y-100432419D01*
X226676568Y-100646512D01*
X226619364Y-100859999D01*
X226619364Y-100860000D01*
X227516314Y-100860000D01*
X227490507Y-100900156D01*
X227450000Y-101038111D01*
X227450000Y-101181889D01*
X227490507Y-101319844D01*
X227516314Y-101360000D01*
X226619364Y-101360000D01*
X226676568Y-101573489D01*
X226676569Y-101573491D01*
X226776400Y-101787579D01*
X226776406Y-101787588D01*
X226911888Y-101981076D01*
X227078920Y-102148108D01*
X227235348Y-102257640D01*
X227284925Y-102316724D01*
X227298318Y-102392680D01*
X227271939Y-102465157D01*
X227235348Y-102501747D01*
X227078600Y-102611503D01*
X226911507Y-102778596D01*
X226911505Y-102778599D01*
X226775965Y-102972171D01*
X226676097Y-103186337D01*
X226676096Y-103186340D01*
X226614937Y-103414590D01*
X226594341Y-103650000D01*
X226614937Y-103885409D01*
X226652913Y-104027140D01*
X226676097Y-104113663D01*
X226775965Y-104327830D01*
X226911505Y-104521401D01*
X227078599Y-104688495D01*
X227235349Y-104798253D01*
X227284925Y-104857335D01*
X227298318Y-104933291D01*
X227271939Y-105005768D01*
X227235348Y-105042358D01*
X227078923Y-105151888D01*
X226911891Y-105318920D01*
X226776402Y-105512419D01*
X226676568Y-105726512D01*
X226619364Y-105939999D01*
X226619364Y-105940000D01*
X227516314Y-105940000D01*
X227490507Y-105980156D01*
X227450000Y-106118111D01*
X227450000Y-106261889D01*
X227490507Y-106399844D01*
X227516314Y-106440000D01*
X226619364Y-106440000D01*
X226676568Y-106653489D01*
X226676569Y-106653491D01*
X226776400Y-106867579D01*
X226776406Y-106867588D01*
X226911888Y-107061076D01*
X227078920Y-107228108D01*
X227235348Y-107337640D01*
X227284925Y-107396724D01*
X227298318Y-107472680D01*
X227271939Y-107545157D01*
X227235348Y-107581747D01*
X227078600Y-107691503D01*
X226911506Y-107858597D01*
X226801318Y-108015963D01*
X226742234Y-108065540D01*
X226679264Y-108079500D01*
X226608265Y-108079500D01*
X226591086Y-108077603D01*
X226591038Y-108078122D01*
X226581701Y-108077239D01*
X226509796Y-108079500D01*
X226479064Y-108079500D01*
X226472368Y-108080346D01*
X226465380Y-108080895D01*
X226417431Y-108082402D01*
X226417426Y-108082403D01*
X226398938Y-108087774D01*
X226376054Y-108092513D01*
X226356946Y-108094927D01*
X226312320Y-108112594D01*
X226305680Y-108114868D01*
X226259600Y-108128256D01*
X226243020Y-108138061D01*
X226222034Y-108148342D01*
X226204131Y-108155431D01*
X226204125Y-108155434D01*
X226165309Y-108183634D01*
X226159444Y-108187487D01*
X226118134Y-108211919D01*
X226118132Y-108211921D01*
X226104511Y-108225541D01*
X226086744Y-108240716D01*
X226071163Y-108252037D01*
X226040575Y-108289009D01*
X226035850Y-108294202D01*
X225302434Y-109027618D01*
X225288950Y-109038422D01*
X225289282Y-109038823D01*
X225282059Y-109044798D01*
X225232810Y-109097243D01*
X225211094Y-109118959D01*
X225211080Y-109118975D01*
X225206944Y-109124305D01*
X225202395Y-109129631D01*
X225169551Y-109164607D01*
X225160273Y-109181484D01*
X225147444Y-109201014D01*
X225135638Y-109216235D01*
X225135636Y-109216239D01*
X225116581Y-109260270D01*
X225113494Y-109266572D01*
X225090374Y-109308629D01*
X225090373Y-109308630D01*
X225085581Y-109327294D01*
X225078011Y-109349403D01*
X225070364Y-109367075D01*
X225062859Y-109414460D01*
X225061436Y-109421334D01*
X225049500Y-109467823D01*
X225049500Y-109467825D01*
X225049500Y-109487078D01*
X225047665Y-109510389D01*
X225044653Y-109529403D01*
X225049169Y-109577180D01*
X225049500Y-109584196D01*
X225049500Y-116655192D01*
X225029538Y-116729692D01*
X224975000Y-116784230D01*
X224916428Y-116803338D01*
X224892521Y-116805908D01*
X224892515Y-116805909D01*
X224757670Y-116856202D01*
X224757666Y-116856204D01*
X224642455Y-116942452D01*
X224642452Y-116942455D01*
X224556204Y-117057666D01*
X224556202Y-117057670D01*
X224505908Y-117192517D01*
X224499500Y-117252114D01*
X224499500Y-119347863D01*
X224499502Y-119347888D01*
X224505908Y-119407478D01*
X224505909Y-119407484D01*
X224556202Y-119542329D01*
X224556204Y-119542333D01*
X224642452Y-119657544D01*
X224642455Y-119657547D01*
X224757666Y-119743795D01*
X224757670Y-119743797D01*
X224892517Y-119794091D01*
X224952114Y-119800499D01*
X224952118Y-119800499D01*
X224952127Y-119800500D01*
X225768835Y-119800499D01*
X225843335Y-119820461D01*
X225874194Y-119844140D01*
X226275195Y-120245141D01*
X226313759Y-120311936D01*
X226313759Y-120389064D01*
X226275195Y-120455859D01*
X226208400Y-120494423D01*
X226169836Y-120499500D01*
X225049996Y-120499500D01*
X224947202Y-120510001D01*
X224780666Y-120565186D01*
X224631343Y-120657288D01*
X224507288Y-120781343D01*
X224415186Y-120930666D01*
X224360001Y-121097201D01*
X224349500Y-121199995D01*
X224349500Y-123300003D01*
X224360001Y-123402797D01*
X224415186Y-123569334D01*
X224507288Y-123718656D01*
X224631344Y-123842712D01*
X224780666Y-123934814D01*
X224947203Y-123989999D01*
X225049991Y-124000500D01*
X226450008Y-124000499D01*
X226552797Y-123989999D01*
X226719334Y-123934814D01*
X226868656Y-123842712D01*
X226992712Y-123718656D01*
X227084814Y-123569334D01*
X227139999Y-123402797D01*
X227150500Y-123300009D01*
X227150500Y-123049500D01*
X227170462Y-122975000D01*
X227225000Y-122920462D01*
X227299500Y-122900500D01*
X227800500Y-122900500D01*
X227875000Y-122920462D01*
X227929538Y-122975000D01*
X227949500Y-123049500D01*
X227949500Y-123225008D01*
X227960001Y-123327797D01*
X228015186Y-123494334D01*
X228107289Y-123643655D01*
X228231345Y-123767711D01*
X228380666Y-123859814D01*
X228547203Y-123914999D01*
X228649992Y-123925500D01*
X228649996Y-123925500D01*
X229750004Y-123925500D01*
X229750008Y-123925500D01*
X229852797Y-123914999D01*
X230019334Y-123859814D01*
X230168655Y-123767711D01*
X230292711Y-123643655D01*
X230384814Y-123494334D01*
X230439999Y-123327797D01*
X230450500Y-123225008D01*
X230450500Y-122500000D01*
X231200000Y-122500000D01*
X231200000Y-123224988D01*
X231210492Y-123327687D01*
X231210494Y-123327696D01*
X231265642Y-123494120D01*
X231357680Y-123643339D01*
X231481660Y-123767319D01*
X231630879Y-123859357D01*
X231797303Y-123914505D01*
X231797312Y-123914507D01*
X231900011Y-123924999D01*
X231900022Y-123925000D01*
X232200000Y-123925000D01*
X232200000Y-122500000D01*
X232700000Y-122500000D01*
X232700000Y-123925000D01*
X232999978Y-123925000D01*
X232999988Y-123924999D01*
X233102687Y-123914507D01*
X233102696Y-123914505D01*
X233269120Y-123859357D01*
X233418339Y-123767319D01*
X233542319Y-123643339D01*
X233634357Y-123494120D01*
X233689505Y-123327696D01*
X233689507Y-123327687D01*
X233699999Y-123224988D01*
X233700000Y-123224978D01*
X233700000Y-122500000D01*
X232700000Y-122500000D01*
X232200000Y-122500000D01*
X231200000Y-122500000D01*
X230450500Y-122500000D01*
X230450500Y-122000000D01*
X231200000Y-122000000D01*
X232200000Y-122000000D01*
X232200000Y-120575000D01*
X232700000Y-120575000D01*
X232700000Y-122000000D01*
X233700000Y-122000000D01*
X233700000Y-121275021D01*
X233699999Y-121275011D01*
X233689507Y-121172312D01*
X233689505Y-121172303D01*
X233634357Y-121005879D01*
X233542319Y-120856660D01*
X233418339Y-120732680D01*
X233269120Y-120640642D01*
X233102696Y-120585494D01*
X233102687Y-120585492D01*
X232999988Y-120575000D01*
X232700000Y-120575000D01*
X232200000Y-120575000D01*
X231900011Y-120575000D01*
X231797312Y-120585492D01*
X231797303Y-120585494D01*
X231630879Y-120640642D01*
X231481660Y-120732680D01*
X231357680Y-120856660D01*
X231265642Y-121005879D01*
X231210494Y-121172303D01*
X231210492Y-121172312D01*
X231200000Y-121275011D01*
X231200000Y-122000000D01*
X230450500Y-122000000D01*
X230450500Y-121274992D01*
X230439999Y-121172203D01*
X230384814Y-121005666D01*
X230292711Y-120856345D01*
X230168655Y-120732289D01*
X230019336Y-120640187D01*
X230019335Y-120640186D01*
X230019334Y-120640186D01*
X229922089Y-120607962D01*
X229852798Y-120585001D01*
X229852799Y-120585001D01*
X229807564Y-120580380D01*
X229750008Y-120574500D01*
X228649992Y-120574500D01*
X228547203Y-120585001D01*
X228547201Y-120585001D01*
X228539111Y-120585828D01*
X228538895Y-120583713D01*
X228473433Y-120580380D01*
X228413910Y-120543964D01*
X227924804Y-120054858D01*
X227886240Y-119988063D01*
X227886240Y-119910935D01*
X227924804Y-119844140D01*
X227991599Y-119805576D01*
X228030163Y-119800499D01*
X228847864Y-119800499D01*
X228847872Y-119800499D01*
X228907483Y-119794091D01*
X229003447Y-119758298D01*
X229042329Y-119743797D01*
X229042329Y-119743796D01*
X229042331Y-119743796D01*
X229111122Y-119692298D01*
X229182725Y-119663632D01*
X229259068Y-119674607D01*
X229289709Y-119692298D01*
X229357904Y-119743349D01*
X229357915Y-119743354D01*
X229492623Y-119793598D01*
X229492621Y-119793598D01*
X229552157Y-119799998D01*
X229552177Y-119800000D01*
X230100000Y-119800000D01*
X230100000Y-118550000D01*
X230600000Y-118550000D01*
X230600000Y-119800000D01*
X231147823Y-119800000D01*
X231147842Y-119799998D01*
X231207377Y-119793598D01*
X231342084Y-119743354D01*
X231342094Y-119743349D01*
X231457187Y-119657190D01*
X231457190Y-119657187D01*
X231543349Y-119542094D01*
X231543354Y-119542084D01*
X231593598Y-119407377D01*
X231599998Y-119347842D01*
X231600000Y-119347822D01*
X231600000Y-118800000D01*
X232025000Y-118800000D01*
X232025000Y-119099988D01*
X232035492Y-119202687D01*
X232035494Y-119202696D01*
X232090642Y-119369120D01*
X232182680Y-119518339D01*
X232306660Y-119642319D01*
X232455879Y-119734357D01*
X232622303Y-119789505D01*
X232622312Y-119789507D01*
X232725011Y-119799999D01*
X232725022Y-119800000D01*
X233450000Y-119800000D01*
X233450000Y-118800000D01*
X233950000Y-118800000D01*
X233950000Y-119800000D01*
X234674978Y-119800000D01*
X234674988Y-119799999D01*
X234777687Y-119789507D01*
X234777696Y-119789505D01*
X234944120Y-119734357D01*
X235093339Y-119642319D01*
X235217319Y-119518339D01*
X235309357Y-119369120D01*
X235364505Y-119202696D01*
X235364507Y-119202687D01*
X235374999Y-119099988D01*
X235375000Y-119099978D01*
X235375000Y-118800000D01*
X233950000Y-118800000D01*
X233450000Y-118800000D01*
X232025000Y-118800000D01*
X231600000Y-118800000D01*
X231600000Y-118550000D01*
X230600000Y-118550000D01*
X230100000Y-118550000D01*
X230100000Y-118300000D01*
X232025000Y-118300000D01*
X233450000Y-118300000D01*
X233450000Y-117300000D01*
X233950000Y-117300000D01*
X233950000Y-118300000D01*
X235375000Y-118300000D01*
X235375000Y-118000021D01*
X235374999Y-118000011D01*
X235364507Y-117897312D01*
X235364505Y-117897303D01*
X235309357Y-117730879D01*
X235217319Y-117581660D01*
X235093339Y-117457680D01*
X234944120Y-117365642D01*
X234777696Y-117310494D01*
X234777687Y-117310492D01*
X234674988Y-117300000D01*
X233950000Y-117300000D01*
X233450000Y-117300000D01*
X232725011Y-117300000D01*
X232622312Y-117310492D01*
X232622303Y-117310494D01*
X232455879Y-117365642D01*
X232306660Y-117457680D01*
X232182680Y-117581660D01*
X232090642Y-117730879D01*
X232035494Y-117897303D01*
X232035492Y-117897312D01*
X232025000Y-118000011D01*
X232025000Y-118300000D01*
X230100000Y-118300000D01*
X230100000Y-116800000D01*
X230600000Y-116800000D01*
X230600000Y-118050000D01*
X231600000Y-118050000D01*
X231600000Y-117252177D01*
X231599998Y-117252157D01*
X231593598Y-117192622D01*
X231543354Y-117057915D01*
X231543349Y-117057905D01*
X231457190Y-116942812D01*
X231457187Y-116942809D01*
X231342094Y-116856650D01*
X231342084Y-116856645D01*
X231207376Y-116806401D01*
X231207378Y-116806401D01*
X231147842Y-116800001D01*
X231147823Y-116800000D01*
X230600000Y-116800000D01*
X230100000Y-116800000D01*
X229552177Y-116800000D01*
X229552157Y-116800001D01*
X229492622Y-116806401D01*
X229357915Y-116856645D01*
X229357905Y-116856650D01*
X229289708Y-116907702D01*
X229218104Y-116936367D01*
X229141761Y-116925390D01*
X229111123Y-116907701D01*
X229042333Y-116856205D01*
X229042329Y-116856202D01*
X228907482Y-116805908D01*
X228847885Y-116799500D01*
X228843892Y-116799287D01*
X228843960Y-116798015D01*
X228775000Y-116779538D01*
X228720462Y-116725000D01*
X228700500Y-116650500D01*
X228700500Y-116099500D01*
X228720462Y-116025000D01*
X228775000Y-115970462D01*
X228849500Y-115950500D01*
X231926646Y-115950500D01*
X232001146Y-115970462D01*
X232055684Y-116025000D01*
X232068083Y-116052631D01*
X232090187Y-116119337D01*
X232182289Y-116268655D01*
X232306345Y-116392711D01*
X232455666Y-116484814D01*
X232622203Y-116539999D01*
X232724992Y-116550500D01*
X232724996Y-116550500D01*
X234675004Y-116550500D01*
X234675008Y-116550500D01*
X234777797Y-116539999D01*
X234944334Y-116484814D01*
X235093655Y-116392711D01*
X235217711Y-116268655D01*
X235309814Y-116119334D01*
X235364999Y-115952797D01*
X235375500Y-115850008D01*
X235375500Y-114749992D01*
X235364999Y-114647203D01*
X235309814Y-114480666D01*
X235217711Y-114331345D01*
X235093655Y-114207289D01*
X234944334Y-114115186D01*
X234860332Y-114087350D01*
X234777798Y-114060001D01*
X234777799Y-114060001D01*
X234743534Y-114056500D01*
X234675008Y-114049500D01*
X234675004Y-114049500D01*
X234499500Y-114049500D01*
X234425000Y-114029538D01*
X234370462Y-113975000D01*
X234350500Y-113900500D01*
X234350500Y-109488263D01*
X234352396Y-109471083D01*
X234351878Y-109471034D01*
X234352760Y-109461702D01*
X234350500Y-109389796D01*
X234350500Y-109359078D01*
X234349656Y-109352398D01*
X234349104Y-109345391D01*
X234348535Y-109327294D01*
X234347597Y-109297431D01*
X234342224Y-109278937D01*
X234337485Y-109256054D01*
X234335071Y-109236942D01*
X234320846Y-109201014D01*
X234317404Y-109192320D01*
X234315128Y-109185673D01*
X234301744Y-109139601D01*
X234291945Y-109123033D01*
X234281656Y-109102031D01*
X234274569Y-109084132D01*
X234274568Y-109084129D01*
X234246361Y-109045305D01*
X234242510Y-109039441D01*
X234232063Y-109021777D01*
X234218081Y-108998135D01*
X234204460Y-108984514D01*
X234189278Y-108966737D01*
X234177964Y-108951165D01*
X234177963Y-108951163D01*
X234140995Y-108920580D01*
X234135800Y-108915854D01*
X229307915Y-104087969D01*
X229269351Y-104021174D01*
X229269351Y-103944046D01*
X229269668Y-103942859D01*
X229285063Y-103885408D01*
X229305659Y-103650000D01*
X229285063Y-103414592D01*
X229223903Y-103186337D01*
X229124035Y-102972171D01*
X228988495Y-102778599D01*
X228821401Y-102611505D01*
X228821399Y-102611503D01*
X228664652Y-102501747D01*
X228615075Y-102442664D01*
X228601682Y-102366707D01*
X228628062Y-102294231D01*
X228664652Y-102257640D01*
X228821079Y-102148108D01*
X228988111Y-101981076D01*
X229123593Y-101787588D01*
X229123599Y-101787579D01*
X229223430Y-101573491D01*
X229223431Y-101573489D01*
X229280636Y-101360000D01*
X228383686Y-101360000D01*
X228409493Y-101319844D01*
X228450000Y-101181889D01*
X228450000Y-101038111D01*
X228409493Y-100900156D01*
X228383686Y-100860000D01*
X229280636Y-100860000D01*
X229280635Y-100859999D01*
X229223431Y-100646512D01*
X229123597Y-100432419D01*
X228988108Y-100238920D01*
X228821079Y-100071891D01*
X228664215Y-99962054D01*
X228614638Y-99902970D01*
X228601245Y-99827014D01*
X228627624Y-99754537D01*
X228664215Y-99717946D01*
X228821079Y-99608108D01*
X228988111Y-99441076D01*
X229123593Y-99247588D01*
X229123599Y-99247579D01*
X229223430Y-99033491D01*
X229223431Y-99033489D01*
X229280636Y-98820000D01*
X228383686Y-98820000D01*
X228409493Y-98779844D01*
X228450000Y-98641889D01*
X228450000Y-98498111D01*
X228409493Y-98360156D01*
X228383686Y-98320000D01*
X229280636Y-98320000D01*
X229280635Y-98319999D01*
X229223431Y-98106512D01*
X229123597Y-97892419D01*
X228988108Y-97698920D01*
X228821076Y-97531888D01*
X228664652Y-97422358D01*
X228615075Y-97363275D01*
X228601682Y-97287318D01*
X228628062Y-97214842D01*
X228664648Y-97178254D01*
X228821401Y-97068495D01*
X228988495Y-96901401D01*
X229124035Y-96707830D01*
X229223903Y-96493663D01*
X229285063Y-96265408D01*
X229305659Y-96030000D01*
X229285063Y-95794592D01*
X229223903Y-95566337D01*
X229124035Y-95352171D01*
X228988495Y-95158599D01*
X228821401Y-94991505D01*
X228665086Y-94882052D01*
X228615511Y-94822970D01*
X228602118Y-94747014D01*
X228628497Y-94674537D01*
X228665085Y-94637948D01*
X228821401Y-94528495D01*
X228988495Y-94361401D01*
X229124035Y-94167830D01*
X229223903Y-93953663D01*
X229285063Y-93725408D01*
X229305659Y-93490000D01*
X229285063Y-93254592D01*
X229223903Y-93026337D01*
X229124035Y-92812171D01*
X228988495Y-92618599D01*
X228894076Y-92524180D01*
X228855512Y-92457385D01*
X228855512Y-92380257D01*
X228894076Y-92313462D01*
X228947366Y-92279215D01*
X228978278Y-92267685D01*
X229042327Y-92243798D01*
X229042333Y-92243795D01*
X229099938Y-92200671D01*
X229157546Y-92157546D01*
X229221351Y-92072314D01*
X229243795Y-92042333D01*
X229243797Y-92042329D01*
X229294092Y-91907479D01*
X229296235Y-91898413D01*
X229297762Y-91898773D01*
X229321783Y-91836637D01*
X229381837Y-91788240D01*
X229442120Y-91775500D01*
X230324379Y-91775500D01*
X230398879Y-91795462D01*
X230451195Y-91846278D01*
X230457288Y-91856156D01*
X230581344Y-91980212D01*
X230730666Y-92072314D01*
X230897203Y-92127499D01*
X230999991Y-92138000D01*
X232000008Y-92137999D01*
X232102797Y-92127499D01*
X232269334Y-92072314D01*
X232418656Y-91980212D01*
X232542712Y-91856156D01*
X232634814Y-91706834D01*
X232689999Y-91540297D01*
X232700500Y-91437509D01*
X232700499Y-90812492D01*
X232689999Y-90709703D01*
X232634814Y-90543166D01*
X232542712Y-90393844D01*
X232466726Y-90317858D01*
X232428163Y-90251064D01*
X232428163Y-90173936D01*
X232466727Y-90107141D01*
X232542712Y-90031156D01*
X232634814Y-89881834D01*
X232689999Y-89715297D01*
X232700500Y-89612509D01*
X232700499Y-88987492D01*
X232690002Y-88884737D01*
X232702290Y-88808597D01*
X232751003Y-88748799D01*
X232823089Y-88721369D01*
X232851718Y-88721210D01*
X232893423Y-88725000D01*
X232900000Y-88724999D01*
X232900000Y-88000000D01*
X233400000Y-88000000D01*
X233400000Y-88724999D01*
X233406568Y-88724999D01*
X233406569Y-88724998D01*
X233477104Y-88718590D01*
X233477111Y-88718589D01*
X233639395Y-88668019D01*
X233639401Y-88668016D01*
X233784871Y-88580076D01*
X233784872Y-88580076D01*
X233905076Y-88459872D01*
X233905076Y-88459871D01*
X233993016Y-88314401D01*
X233993019Y-88314394D01*
X234043590Y-88152109D01*
X234050000Y-88081569D01*
X234050000Y-88000000D01*
X233400000Y-88000000D01*
X232900000Y-88000000D01*
X232900000Y-87115000D01*
X232882065Y-87097065D01*
X232874500Y-87095038D01*
X232819962Y-87040500D01*
X232800000Y-86966000D01*
X232800000Y-86100000D01*
X233300000Y-86100000D01*
X233300000Y-86735000D01*
X233317934Y-86752934D01*
X233325500Y-86754962D01*
X233380038Y-86809500D01*
X233400000Y-86884000D01*
X233400000Y-87500000D01*
X234049999Y-87500000D01*
X234049999Y-87418432D01*
X234049998Y-87418430D01*
X234043590Y-87347895D01*
X234043589Y-87347888D01*
X233993019Y-87185604D01*
X233993016Y-87185598D01*
X233905076Y-87040128D01*
X233905076Y-87040127D01*
X233880663Y-87015714D01*
X233842099Y-86948919D01*
X233842099Y-86871791D01*
X233880663Y-86804996D01*
X233892318Y-86793341D01*
X233984357Y-86644121D01*
X234039505Y-86477697D01*
X234039507Y-86477688D01*
X234049999Y-86374989D01*
X234050000Y-86374979D01*
X234050000Y-86100000D01*
X233300000Y-86100000D01*
X232800000Y-86100000D01*
X232800000Y-85749000D01*
X232819962Y-85674500D01*
X232874500Y-85619962D01*
X232949000Y-85600000D01*
X234049999Y-85600000D01*
X234049999Y-85325026D01*
X234039505Y-85222303D01*
X233984357Y-85055878D01*
X233887761Y-84899269D01*
X233889899Y-84897950D01*
X233864707Y-84839566D01*
X233873652Y-84762958D01*
X233919702Y-84701087D01*
X233970557Y-84674871D01*
X234110398Y-84634244D01*
X234251865Y-84550581D01*
X234368081Y-84434365D01*
X234451744Y-84292898D01*
X234497598Y-84135069D01*
X234500500Y-84098194D01*
X234500500Y-82216806D01*
X234497598Y-82179931D01*
X234451744Y-82022102D01*
X234368081Y-81880635D01*
X234251865Y-81764419D01*
X234251864Y-81764418D01*
X234247710Y-81761196D01*
X234221291Y-81734775D01*
X234218083Y-81730639D01*
X234218081Y-81730635D01*
X234204462Y-81717016D01*
X234189279Y-81699239D01*
X234177963Y-81683663D01*
X234177960Y-81683660D01*
X234153961Y-81663807D01*
X234109281Y-81600938D01*
X234102022Y-81524153D01*
X234134129Y-81454025D01*
X234196998Y-81409345D01*
X234248936Y-81400000D01*
X234681000Y-81400000D01*
X234755500Y-81419962D01*
G37*
%TD.AperFunction*%
%TA.AperFunction,Conductor*%
G36*
X229332836Y-105959962D02*
G01*
X229363695Y-105983641D01*
X233005859Y-109625805D01*
X233044423Y-109692600D01*
X233049500Y-109731164D01*
X233049500Y-113900500D01*
X233029538Y-113975000D01*
X232975000Y-114029538D01*
X232900500Y-114049500D01*
X232724992Y-114049500D01*
X232656466Y-114056500D01*
X232622201Y-114060001D01*
X232455663Y-114115187D01*
X232306344Y-114207289D01*
X232182289Y-114331344D01*
X232090187Y-114480662D01*
X232068083Y-114547369D01*
X232025699Y-114611808D01*
X231956775Y-114646422D01*
X231926646Y-114649500D01*
X228849500Y-114649500D01*
X228775000Y-114629538D01*
X228720462Y-114575000D01*
X228700500Y-114500500D01*
X228700500Y-113649499D01*
X228720462Y-113574999D01*
X228775000Y-113520461D01*
X228849500Y-113500499D01*
X229997864Y-113500499D01*
X229997872Y-113500499D01*
X230057483Y-113494091D01*
X230153447Y-113458298D01*
X230192329Y-113443797D01*
X230192333Y-113443795D01*
X230249938Y-113400671D01*
X230307546Y-113357546D01*
X230393796Y-113242331D01*
X230444091Y-113107483D01*
X230450500Y-113047873D01*
X230450499Y-110952128D01*
X230444091Y-110892517D01*
X230429588Y-110853633D01*
X230393797Y-110757670D01*
X230393795Y-110757666D01*
X230307547Y-110642455D01*
X230307544Y-110642452D01*
X230192333Y-110556204D01*
X230192329Y-110556202D01*
X230057482Y-110505908D01*
X229997885Y-110499500D01*
X229997873Y-110499500D01*
X226499500Y-110499500D01*
X226425000Y-110479538D01*
X226370462Y-110425000D01*
X226350500Y-110350500D01*
X226350500Y-109881163D01*
X226370462Y-109806663D01*
X226394138Y-109775807D01*
X226644702Y-109525243D01*
X226711494Y-109486681D01*
X226788622Y-109486681D01*
X226855417Y-109525245D01*
X226872107Y-109545135D01*
X226911505Y-109601401D01*
X227078599Y-109768495D01*
X227272170Y-109904035D01*
X227486337Y-110003903D01*
X227714592Y-110065063D01*
X227950000Y-110085659D01*
X228185408Y-110065063D01*
X228413663Y-110003903D01*
X228627830Y-109904035D01*
X228821401Y-109768495D01*
X228988495Y-109601401D01*
X229124035Y-109407830D01*
X229223903Y-109193663D01*
X229285063Y-108965408D01*
X229305659Y-108730000D01*
X229285063Y-108494592D01*
X229223903Y-108266337D01*
X229124035Y-108052171D01*
X228988495Y-107858599D01*
X228821401Y-107691505D01*
X228821399Y-107691503D01*
X228664652Y-107581747D01*
X228615075Y-107522664D01*
X228601682Y-107446707D01*
X228628062Y-107374231D01*
X228664652Y-107337640D01*
X228821079Y-107228108D01*
X228988111Y-107061076D01*
X229123593Y-106867588D01*
X229123599Y-106867579D01*
X229223430Y-106653491D01*
X229223431Y-106653489D01*
X229280636Y-106440000D01*
X228383686Y-106440000D01*
X228409493Y-106399844D01*
X228450000Y-106261889D01*
X228450000Y-106118111D01*
X228409493Y-105980156D01*
X228383686Y-105940000D01*
X229258336Y-105940000D01*
X229332836Y-105959962D01*
G37*
%TD.AperFunction*%
%TA.AperFunction,Conductor*%
G36*
X228200000Y-100674498D02*
G01*
X228092315Y-100625320D01*
X227985763Y-100610000D01*
X227914237Y-100610000D01*
X227807685Y-100625320D01*
X227700000Y-100674498D01*
X227700000Y-99005501D01*
X227807685Y-99054680D01*
X227914237Y-99070000D01*
X227985763Y-99070000D01*
X228092315Y-99054680D01*
X228200000Y-99005501D01*
X228200000Y-100674498D01*
G37*
%TD.AperFunction*%
%TA.AperFunction,Conductor*%
G36*
X224405164Y-81419962D02*
G01*
X224459702Y-81474500D01*
X224479664Y-81549000D01*
X224459702Y-81623500D01*
X224406511Y-81677251D01*
X224258445Y-81764816D01*
X224258442Y-81764818D01*
X224142318Y-81880942D01*
X224142316Y-81880945D01*
X224058718Y-82022302D01*
X224058718Y-82022303D01*
X224012900Y-82180006D01*
X224010000Y-82216862D01*
X224010000Y-82907500D01*
X224911000Y-82907500D01*
X224985500Y-82927462D01*
X225040038Y-82982000D01*
X225060000Y-83056500D01*
X225060000Y-83258500D01*
X225040038Y-83333000D01*
X224985500Y-83387538D01*
X224911000Y-83407500D01*
X224010000Y-83407500D01*
X224010000Y-84098138D01*
X224012900Y-84134993D01*
X224058718Y-84292696D01*
X224058718Y-84292697D01*
X224142316Y-84434054D01*
X224142318Y-84434057D01*
X224168829Y-84460568D01*
X224207393Y-84527363D01*
X224207393Y-84604491D01*
X224168829Y-84671286D01*
X224110338Y-84707364D01*
X224016513Y-84738454D01*
X223877722Y-84824063D01*
X223803834Y-84846184D01*
X223728785Y-84828397D01*
X223672684Y-84775469D01*
X223650563Y-84701581D01*
X223650500Y-84697247D01*
X223650500Y-81549000D01*
X223670462Y-81474500D01*
X223725000Y-81419962D01*
X223799500Y-81400000D01*
X224330664Y-81400000D01*
X224405164Y-81419962D01*
G37*
%TD.AperFunction*%
%TA.AperFunction,Conductor*%
G36*
X225605688Y-81419962D02*
G01*
X225660226Y-81474500D01*
X225680188Y-81549000D01*
X225660226Y-81623500D01*
X225639803Y-81650999D01*
X225612809Y-81679743D01*
X225591095Y-81701458D01*
X225591083Y-81701471D01*
X225586949Y-81706800D01*
X225582398Y-81712127D01*
X225568044Y-81727413D01*
X225554257Y-81742096D01*
X225521484Y-81768351D01*
X225520351Y-81769021D01*
X225446063Y-81789760D01*
X225371359Y-81770576D01*
X225368661Y-81769019D01*
X225213489Y-81677251D01*
X225159525Y-81622145D01*
X225140344Y-81547440D01*
X225161085Y-81473153D01*
X225216191Y-81419189D01*
X225289336Y-81400000D01*
X225531188Y-81400000D01*
X225605688Y-81419962D01*
G37*
%TD.AperFunction*%
%TD*%
M02*
